<mxfile host="app.diagrams.net" modified="2024-06-14T15:27:23.131Z" agent="Mozilla/5.0 (X11; Linux x86_64; rv:126.0) Gecko/20100101 Firefox/126.0" etag="Zn4ARRwPlJ9vV1tkCRen" version="24.4.9" type="device">
  <diagram name="Pagina-1" id="P_FRAxCGpwx6TSUULwEd">
    <mxGraphModel dx="1628" dy="894" grid="1" gridSize="10" guides="1" tooltips="1" connect="1" arrows="1" fold="1" page="1" pageScale="1" pageWidth="827" pageHeight="428" math="0" shadow="0">
      <root>
        <mxCell id="0" />
        <mxCell id="1" parent="0" />
        <mxCell id="XJBxNDXNKOUv2HLO4PTf-41" value="" style="group" vertex="1" connectable="0" parent="1">
          <mxGeometry x="22" y="10" width="782.2979069767441" height="400" as="geometry" />
        </mxCell>
        <mxCell id="XJBxNDXNKOUv2HLO4PTf-2" value="" style="rounded=1;whiteSpace=wrap;html=1;shadow=1;fillColor=#f5f5f5;fontColor=#333333;strokeColor=#666666;" vertex="1" parent="XJBxNDXNKOUv2HLO4PTf-41">
          <mxGeometry y="27.586206896551744" width="377.00930232558136" height="183.90804597701148" as="geometry" />
        </mxCell>
        <mxCell id="XJBxNDXNKOUv2HLO4PTf-3" value="Host" style="text;html=1;align=center;verticalAlign=middle;resizable=0;points=[];autosize=1;strokeColor=none;fillColor=none;fontSize=15;fontStyle=1" vertex="1" parent="XJBxNDXNKOUv2HLO4PTf-41">
          <mxGeometry x="170.1139534883721" width="50" height="30" as="geometry" />
        </mxCell>
        <mxCell id="XJBxNDXNKOUv2HLO4PTf-6" value="" style="sketch=0;pointerEvents=1;shadow=0;dashed=0;html=1;strokeColor=none;fillColor=#505050;labelPosition=center;verticalLabelPosition=bottom;verticalAlign=top;outlineConnect=0;align=center;shape=mxgraph.office.concepts.globe_internet;" vertex="1" parent="XJBxNDXNKOUv2HLO4PTf-41">
          <mxGeometry x="722.2979069767441" y="85.234367816092" width="55.17209302325581" height="55.172413793103445" as="geometry" />
        </mxCell>
        <mxCell id="XJBxNDXNKOUv2HLO4PTf-20" value="" style="edgeStyle=orthogonalEdgeStyle;rounded=0;orthogonalLoop=1;jettySize=auto;html=1;endArrow=none;endFill=0;exitX=1;exitY=0.5;exitDx=0;exitDy=0;" edge="1" parent="XJBxNDXNKOUv2HLO4PTf-41" source="XJBxNDXNKOUv2HLO4PTf-25" target="XJBxNDXNKOUv2HLO4PTf-6">
          <mxGeometry relative="1" as="geometry">
            <mxPoint x="655.1718604651162" y="399.71712643678165" as="targetPoint" />
          </mxGeometry>
        </mxCell>
        <mxCell id="XJBxNDXNKOUv2HLO4PTf-30" value="" style="edgeStyle=orthogonalEdgeStyle;rounded=0;orthogonalLoop=1;jettySize=auto;html=1;" edge="1" parent="XJBxNDXNKOUv2HLO4PTf-41" source="XJBxNDXNKOUv2HLO4PTf-10">
          <mxGeometry relative="1" as="geometry">
            <mxPoint x="510" y="115" as="targetPoint" />
          </mxGeometry>
        </mxCell>
        <mxCell id="XJBxNDXNKOUv2HLO4PTf-10" value="" style="shape=image;verticalLabelPosition=bottom;labelBackgroundColor=default;verticalAlign=top;aspect=fixed;imageAspect=0;image=data:image/png,iVBORw0KGgoAAAANSUhEUgAAAfQAAAH0CAYAAADL1t+KAAAgAElEQVR4Xuy9aZBs6Vke+GaePLlU1a27dEvd2tBCN2q0C8Qyg1G3Wg1hiTZIgB2OGMtikdQCO2JmYsIR83N+eIKAEWgJCbWFGIE9gGEYsFiEbCRACxJIwjYCbDAgsQi3erv31q2q3Jd5nvf9vnNOZmWtmZWZVfWejuq8lZV5lud853u+d3ve0i9/5OMjWeK2fmlT0jSVejWVWpp+tlZb+4Wnrl/+1ac8pf5nSzwtP7Qj4Ag4Ao6AI3CmECgtm9C7/YGUy2WplEsyGo2kDPgqlYoRfKPxsWc87Y53P/fOp/xaqVRqnylk/WQdAUfAEXAEHIEFIrB0Qk/SqoCspTQaynA4lNFgEIgd5A6iL5dGMhj0ZXN987N33/Xs/+3pT33qJxaIjx/KEXAEHAFHwBE4EwgsndAHcPhHQiditNBpqZPg+X6/35dataLvDYcDubZ59Xef8/zn/eCzrl37/JlA2E/SEXAEHAFHwBFYAAJLJ3SSNsk6bvw9ErvIUJIkkSHc8txK5ZH0OwN9vfOOp//6i+7+6jevr5ceWQBOfghHwBFwBBwBR2ClEVg6odOtTkKPP0VC53vtdlNqtZoS+wDu+KRUlrRWhWt+KM3Wjjz3ec9529fec8+/WGmU/eQcAUfAEXAEHIFTRmDphD5poU9a6syA7/V6Gl8n+ZdA8l244RNY8mmaSLu1K89+1jM//XUvftErsa/+KePlu3cEHAFHwBFwBFYSgaUT+iSBF93v/FtG5CBw/psbiT1uaQKC77Tl0qVLra987nNe8NynPe2vVhJpPylHwBFwBBwBR+AUEVgZQt/vGkdwse+3MXFOSkOpIOw+hDu+hoz5Zz3t2a984fO/wjPhT3HQ+K4dAUfAEXAEVg+BM03oaq3LSDrdltRB5mkF5D8cyVc84xnf86Ln3/XTqwe3n5Ej4Ag4Ao6AI3A6CJwBQt/vwoPljlK2hCY6kuQ0Gx6E3qil8rznPuver3re8z5+OrD5Xh0BR8ARcAQcgdVC4AwTegASBM4s+F6ngxh7HwpzNem2O9JYq8nL7rn7rjvuuOMvVwtyPxtHwBFwBBwBR2D+CKw8oU9e8ggx83yjZGyiZM6yNmbE9/tdtdTTKn5PKvJ1L37BlWvXrm3NHzrfoyPgCDgCjoAjsDoInGlCpwRNMkot+z0QvZXBmRANZWOvXNl85JWveMXTVwdyPxNHwBFwBBwBR2D+CKw+oY9Z5HsBKA0SqVar0u12EUbvQXSmhjB6XyVjG2jw0u115Bl33vkzX//iF/+T+cPne3QEHAFHwBFwBFYDgbNN6KMyXO2pdJotJXW62XdbLXW/V2sVaeHf9bSipP4NX//1L3/m1av/eTVg97NwBBwBR8ARcATmi8DMhD4y6XUouE0/sf2ryO3zxYj4yS4tHiGIzoS9DuN5UZCm15dr16786X1f97VffbJj+LccAUfAEXAEHIHVRuDME3oUnlGRGWzlsESIhC6w4hljX6tX5e4XvODVd91+5bdW+5b42TkCjoAj4Ag4AsdHYG6EHg+9n6Ue/z5psc9qoR+F0Cknm+DErl7Z6CFBrnp8mPwbjoAj4Ag4Ao7AaiNw7gl9FEz1EjLfWeL2ghfc891f+fQ7/r/Vvi1+do6AI+AIOAKOwPEQAKF/cp/o99F2NF4Xvvc7h1nsRzvK/p86zEIfwQlP9Th2aauUS/KU26/93Te+7MXPnPW4/n1HwBFwBBwBR2CVEDj3hC6lxHqtQxo2TUrayOWFX/PSr3z2lStfWKUb4efiCDgCjoAj4AjMgkDplz46m4U+a576rBb8YRb6EGn4LGOjehwT5spInrvjqU/537/hZS/54VmA8+86Ao6AI+AIOAKrhMC5J/Refyj1el0JfTToSbWSSi1JPvvAvf/j16/SjfBzcQQcAUfAEXAEZkGg9O8++ruzxdCDzOpBJ0E5Vuiw6kfU/R1++HtZQsH4Ca/iMAtdY+j4YZtVsLoeD2nuj/z9b7nP5WBPiLl/zRFwBBwBR2D1ECj90m9+YiZCLwWfOUl62mba6iMZwNXNV/5OF3i5DGql6Atbns6wHUjoqEGPfyehsx69gtdKqXTrtQ/ce3mGw/pXHQFHwBFwBByBlUJg5rK1Cog5Wt7FK4v15SRuErk2UMGm1jq2aKXH30+Kyr6ErpY5jlMyqZmEC4tBXwm9nJRaD95/79pJj+nfcwQcAUfAEXAEVg0BWOgfm8lCLwrFRCs9kjSJdDAYKInzh+Q+7+0gQqcsLdLg9JCR0PmayqDz2gdeVZ/3ufj+HAFHwBFwBByBZSFQ+pWPzkbokmms2iWoi72go160yGml94OlHl3u+7nqjwqIE/pRkfLPOQKOgCPgCJxnBEr/7jd/eyYLvYQ4dSTyIlCR1EnYkbz598FEUtxpuNx1jaHx830s9PKw/dr772uc5xvr1+YIOAKOgCNwsRAo/epHfuczYPQBktB7EFRLy+VhQ1+ROwZvdQKXdVIaDsvMZZNSOcFnqc2C95Eujl/KA77FJHZUeJeH+Gp5gDx2xMgHtdFgdIVkTsscKXGZ2z263i1Zbqb1RJb0VmzOciihy2AXLveNi3Wr/WodAUfAEXAEzjMCs9WMHRGZP/mLv33N9euPP7y1vfMV/X5fS9jMMo+90Y64oykfO8zlHo8xnhQnOw/ef9+lkx/Vv+kIOAKOgCPgCKwWAgsh9HjJf/YXX3zd3375y7/85I3rsra+jvA7CH22qjVdFKiHIOusbtn0TIYzt3/8O0rkUIcesty3keW+uVq3ws/GEXAEHAFHwBE4OQILJXSeJtzstY986tPtW9s7Uk4reAM/M237E7oeD4sGo3UG1Ckswzr0IerQ7/c69Jlw9y87Ao6AI+AIrBICCyd0XvyfffGLr/uvf/GFX5YE9DpMZsTDCX1GAP3rjoAj4Ag4AucAgaUQOnH7nc/9wc0bW1uwkkHIIVP+ZHieiNC3YKFfOdnx/FuOgCPgCDgCjsDqIbA0Qv/8X/z1Q3/5hT9/WBK63WcRnDk+oZcTuYmkuKurdzv8jBwBR8ARcAQcgZMhsDRCf+KJJ57x6c//8Zf6rFpbMKEjhn4dFvptJ4PMv+UIOAKOgCPgCKweAksjdELxq7/1O6NlEHq5NHzywQfuv331boefkSPgCDgCjoAjcDIElkrov/ihD4/SKnqVh9Kyk13CiVzuT8Dl/pSTHc+/5Qg4Ao6AI+AIrB4CSyX0D/7mRyEflyyc0OFyfwwu9ztW73b4GTkCjoAj4Ag4AidD4EISOuRtH33w1fffeTLI/FuOgCPgCDgCjsDqIbBUQv+V//CR0ahcWbiFniTy5W+7/76nrd7t8DNyBBwBR8ARcAROhoAT+slw8285Ao6AI+AIOAIrhcBSCf3X/v1HRgPUoS86KQ7t4h557QP3PX2l7oSfjCPgCDgCjoAjMAMCTugzgOdfdQQcAUfAEXAEVgUBJ/RVuRN+Ho6AI+AIOAKOwAwIOKHPAJ5/1RFwBBwBR8ARWBUElkzoH0UMffF16J7lvirDz8/DEXAEHAFHYF4IOKHPC0nfjyPgCDgCjoAjsEQELiShu7DMEkecH9oRcAQcAUfgVBC4kITu0q+nMpZ8p46AI+AIOAJLROBiEnoij7/2/vueukTc/dCOgCPgCDgCjsBcEXBCnyucvjNHwBFwBBwBR2A5CFxIQi8n4u1TlzPe/KiOgCPgCDgCp4TAxST00vDJBx+4//ZTwtR36wg4Ao6AI+AILBwBJ/SFQ+4HdAQcAUfAEXAE5o+AE/r8MfU9OgKOgCPgCDgCC0fgYhK6x9AXPtD8gI6AI+AIOAKni4AT+uni63t3BBwBR8ARcAQWgsCFJHQXllnI2PKDOAKOgCPgCCwQgQtJ6C79usAR5odyBBwBR8ARWAgCF5LQvdvaQsaWH8QRcAQcAUdggQhcSEKvlOSR1z5w39MXiLMfyhFwBBwBR8AROFUEnNBPFV7fuSPgCDgCjoAjsBgEnNAXg7MfxRFwBBwBR8AROFUEnNBPFV7fuSPgCDgCjoAjsBgELiShe1LcYgaXH8URcAQcAUdgcQg4oS8Oaz+SI+AIOAKOgCNwaghcSEL3OvRTG0++Y0fAEXAEHIElIXAhCd2V4pY02vywjoAj4Ag4AqeGgBP6qUHrO3YEHAFHwBFwBBaHgBP64rD2IzkCjoAj4Ag4AqeGgBP6qUHrO3YEHAFHwBFwBBaHwIUkdE+KW9wA8yM5Ao6AI+AILAaBC0noXoe+mMHlR3EEHAFHwBFYHAIXktC9OcviBpgfyRFwBBwBR2AxCFxMQk/kS6+9/75nLQZiP4oj4Ag4Ao6AI3D6CFxIQi+Xhn/z4AP3P/v04fUjOAKOgCPgCDgCi0HgzBP6qFSW0kikLMOAWHyN75RlhKvEp0SGfbyOpCryxb//Lfc9bzEQ+1EcAUfAEXAEHIHTR+BMEzqJegiKLgOn0oj/slcp4WfE30QGIHxupRI/PJRkNJJKMvzL17z6/rtOH14/giPgCDgCjoAjsBgEziWhl0DzI6V3I/RooQ9B6CkJvTz6y9c88Con9MWMMT+KI+AIOAKOwAIQONOETnwmXe5qoev7MMjxQ2Kn7Z7AQh/C5U5Ch8v9L+Byv3sB+PohHAFHwBFwBByBhSBw5gmd0fEyYujqZucLCH2SzPX94HKvgOIr5cFfftv9bqEvZIT5QRwBR8ARcAQWgsCZJ/QyYuV2EdEyt1e62qOFDjpXQh8NBkJCT5LRF7/9Vfd6UtxChpgfxBFwBBwBR2ARCJx5Qk9C8hsJnZY5X0nkGju3NDmz3AuEnpYGf/fgq1/1zEUA7MdwBBwBR8ARcAQWgcC5IfRRcLkP8UoP/HCC0K1szSz0VEbXX/vAvbctAmA/hiPgCDgCjoAjsAgEzjyh0+VuJjgsc7yQ2EnmLFujxV4ysx1ETrN9IAlj6DJqvuZb711fBMB+DEfAEXAEHAFHYBEInBtCV8s8XA1d7rEOnYZ7Ge72ahkx9U5HqmkivU6r9+C3fSuS3X1zBBwBR8ARcATOBwLngtA1+U0t88JNgYVO2z0pJSDyHsRk4HQf9PH7QNIk6T/wLfel5+MW+lU4Ao6AI+AIOAIxY2xJSPzav//oaIBepqbxdtLNvjuN0BME01U0rjeQ9UYdIfSOdHstSWvpNpTiNk96RP+eI+AIOAKOgCOwagiceQuddejTCF3L2UDoa2ld2q0miH0gw1EXJWtlqa0nX/jWb77/K1ftZvj5OAKOgCPgCDgCJ0Xg3BP6qNeXSqUCV/tQBtKTJC1Lq9/+/He/+jUvPSlo/j1HwBFwBBwBR2DVEDg3hJ7XoRvEpZD9PuoPpF5LpT/sSafflnID2e+10dZ3f8O3Xlm1m+Hn4wg4Ao6AI+AInBSBM0/osWzNEuMIQ5SANVd8mpiGe6ffkRHy2kv1kuz0tuVLjz8iN1qPSanRk0HSlcqoPOQ+KCPbLw1HlVJ51B8NS3i/1E9QCDeA1z783V8NJ8fBcfBx4M+BzwOnOw9IqTwsk8ZGoq99/JQHaDVWkn6llnR7g16v3exIu9u+cvYJPS5lYJHHbPdoobMtywjNWEacddicJRlKc9CU8qWS/MGff05koy+tyi0Qeu+kCyL/niPgCDgCjoAjsHAENBEc3NZq78qtrR19PduEjgvSxizcRhUQekkGMKVppSdDK1uLUrAlSMr0kRhXqpSkVd2W//jop6Vd2wWZ92HZx50s/J74AR0BR8ARcAQuKAIsq1ajM/zEgq/4exl8xbbfaqSywRipDp9VKXP8PHHjUXifu9JFafZwBH5bJo4zl60podvFIjCuFnqfhI73qwPSuf2N75cg+DoY4POVsuxWb8rnHv+YtBrb2n7VN0fAEXAEHAFHYNEIRCXTSNjRuCRpc2PuV5qaZEqv15MyBNKY5N1st2Vr+ybKsNvSQ0h5ABVUJfpFX0DxeE7oy0Tfj+0IOAKOgCOwTARGA7O2SdRql8JbHMlcjVHUZun7cEXzc7TW2yDznZ0dabZaEDJHOXbBw+yE7hb6MsezH9sRcAQcgQuLAAk9krkRePA4K7kjdAzhtR6sdCV1WOAtkPitW7ekAxlzeOtJ50r00R3vhO6EfmEfJr9wR8ARcASWigD4uxgbz/K5gkUek7q73a662Eno0YKnq52LgbHY+jIvxl3uy0Tfj+0IOAKOgCOwTARiDF1JmpY2G4XyhEL30OGoj3j5ruzu7iqZa4IcSrEnt0jybqG7hb7M8ezHdgQcAUfgwiLAWiySNC3z6DonoQ/gZu8h0Y1Jb7TMGTcvo1MoLXImx5HA0xoqu/rjMXcndCf0C/sw+YU7Ao6AI7BMBJAOp+Vm0UInYdMqb8PF3oMY2hPXH7dkuGLim5asIdqOhUBSqowl0TmhO6Evczz7sR0BR8ARONcIxKS3WFpWjHvzvQRlaHyv021p9vo23Ov9PvRRmOEehFYioZPIi1uUOI/vOaE7oZ/rh8kvzhFwBByBZSEQS82iGExWnhaEZMrIYqd7nUlvu4iRM07eH3TN6gaZx9i4E7oLyyxrDPtxHQFHwBFwBIBAJHSCMZmRzvcoHNPsNC3pDXFyWuxoI5LH00HsRXe7W+gAzZXi/NlyBBwBR8ARWDQCtLAjkU9KuA4QK79x64Z0kPjWaaNJGMh9TGRmgsx57k7oTuiLHsN+PEfAEXAEHAEgQIub0q0kdrW+kdBG6VYKw2zv3pKt5k3pMymO9egoWSu65LkAiDXmRwXTY+geQz/qWPHPOQKOgCPgCBwTAc1cZ2kaSJ1kzo1qb8xg75fQVKVQshZ3HZuzOKF7c5ZjDjf/uCPgCDgCjsBpIFAk5Gil0zpnNvtua0cGKaxzZK6PqcWFbmo8n8ks9sPO0S10t9APGyP+d0fAEXAEHIETIBDd5iRsJsDt3NqVm4ib0/1egTAM5GP2xMWLzVnKaPt9nM0J3Qn9OOPFP+sIOAKOwLlBYDLJbN8LG4232c6IM5aFF/6s7nJY3dHFzppy7ZAGi7zbQu9ylKVp8ht6nTN+Ps/NCd0JfZ7jyfflCDgCjsCZQWBWQqd0K7fY9jSzrkPpGcmc9eU7SIBjrbm60QtKbxPrhJlxc0J3Qp95EPkOHAFHwBE4iwhoIxSS7AlPXsk5iMRoHDyIwdDVTrf6dnNbrXMKxgzwXiWFEx1iMvyOJsqNG/4nPIv8aye9jpkPzB14t7W5wOg7cQQcAUfAETgBArMSOg9JoiaR0oXOjHZa5c0mxGLQJY2v8RjsoFbcuABgP/N5bk7obqHPczz5vhwBR8ARuDAIwA6Hu72EJilsoDLUTmi0xknkbWSzm1Y7/g6rnNTN39mMJYrNFBPg5gGaE7oT+jzGke/DEXAEHIELhQAtb5I4CZvErIlvLEcDmRclXNWKD2551KEdWyzmOKA6oTuhH2e8+GcdAUfAETg3CJRG0ykwd5Nn/9pzzZrJjph5D1nrrC1XqxykTitde5vDKlctd1jkmepbGe9r3N1aph63LO0w4J3QndAPGyP+d0fAEXAEziUCsxI6LXRKuG5vbyupRy12utc16Q2OdrrXo6Qr3zE3exCTYaOROW7z3dsxT8yT4o4JmH/cEXAEHAFHYH4IgHljAxWSbsw+HwYi5oGKLVCZxR6lXHsQirl+80nUlUMeBlY5CbwYG4+/cx/7lccdVwnusAt3QncL/bAx4n93BBwBR+BcIpCUkKwWdNbVTR7L0BDrJjnHhip68aG2nO/FLHZ2SusN+7oP/Qi+E/dRbK7ihH6U4QN3R5ltanQJVNM2qX3Xcj8Kcv4ZR8ARcAQuPAKVciVknoce5KgLj5nnWlaGFqdFkqYlnvUvRzY7ST72K48LAqUjdavvv8XQPdYNc93cQncLfa4DynfmCDgCjsBZQSCLoVMUJrBrFIphSRrLzaLLnUROy1xFYlh+xiry8J3JJizx+vfrluaEPm2EuIV+Vp4bP09HwBFwBFYOgRjnjvFzisRQACZa23y/0+8oiccfNlmJyW+k9clOaYeR+WmC4Ba6W+inOb58346AI+AIrDQCkZBJ7rS6i1npbKSyu7urP12426PaW7Ti95NujQuCGFtfFABO6E7oixprfhxHwBFwBFYKgYzMqfgW4t7a6hSxc22sAiJnbTmT37hFxTfWlvPz01zq+7nfdQeTde9zDqI7oTuhr9QD5ifjCDgCjsAiEYitTqMbnWQe5Vup/Ma/R4ubim8kc/6u5B6y2yfd7GMNW4oX44R+wK31GPoix70fyxFwBByB1ULgkOyyWDoWY+RFoo1tTDORl8Qaq9AqJ5G3u61ggVsqeq4BA3mYYArPu458VnDdQncLfdYx5N93BBwBR2A5CBxC6JPtTTPFNrY3hSVeCi5vONBVHIZZ7PyhnKu5zveSedFz7oReuO2uFLecZ8CP6gg4Ao7AuUDgEEKPqm7a4pTCMUEcJlrqSGKH0ltfZVujm73bBZknImmawqU+2GOdO6HvM3Kc0M/FI+UX4Qg4Ao7AchA4QkG3NUgxDfURkt+4xUx2lqRFq5xEHok+qsKNgnBZ0d3uhO6EvpzB7kd1BBwBR+ACI1CUXB0rT2OJGn5uobEKs9j5wy1JTbpVS9hUm92i0pOEnkMKE3+FNo+hewx9hYajn4oj4Ag4AnNEgNKsIROdWem0zGPi2257V93sUctd4+v4fGal4zQ0jO6EfrQb4i73o+Hkn3IEHAFHwBE4OgLRMo9JcYPgaqdkK63x2LuceyyWpcVua0yG0+YsISlu75FDDxF0NF+lzS10t9BXaTz6uTgCjoAjMDMCkdBVLIaWN0qcmfgWVd9opXOji50kH0ViYnnb3uz2yVNyQt9zk9xCn3nc+g4cAUfAEbiwCNCNTnImIWsjFWSnFwla8Dv/Tqt8F+VobTRY4e97hWHG257lMfP9oHVCd0K/sI+dX7gj4Ag4AvNHoCi/qrHvoOrGI5FyB2ikwjj5NoRiukG+tZgcl8u0OqHPfHfcQp8ZQt+BI+AIOAIXFoFomZOOaZmzzlwT3yAaQ6EYuthbsM5bSIDTrPVKRZJKWS36qCJ3nsDzGLrH0M/TePZrcQQcgQuEQIx5s86cWxkudhI1M9iZ+LYDQo8d0tRqLzRDiQlz5wkuJ3Qn9PM0nv1aHAFH4AIhEGvGWW5WLEnbbm5rEhzlXS22DqYHmdOKV8ucv7ImbTjuas+hW63s9aPeUid0J/SjjhX/nCPgCDgCK4UAXeeq+lYxMRg2Vdna2pJWaKxC4uYGGh9rj5qVte3H5ytWjnZU0J3QndCPOlb8c46AI+AIrBwCtLRpiTOTnYTOJDjWnUehGBJ9P7Q8zSVdTUBmsp/5/u3Jz4bF7oR+xgm9uMBc6s1cucfcT+gsI7Cf4eRj/Czf1fmfOy1tutFbrV3IuO5Iv9NVmVZzxfdplxuxJzZyRiB2vqfEDVlXrVMvbEVC39u63Egd3v1sO7y8bf7XfNAel/p8eJb7bDeb42qIAW0b3E6FgVYKozHe4MkJkn/GcNZvlkIDAh3w+46IiRXqxP5nuxL/9kkQ0LuHGYivmL6m7AK61Pah7G+jbMZajTraOE7jecVxmo/r8csqj/JxqFeFcbjUSewkN+5cfWdfn/WRrpJ8ql3QgsZqlF3leIjv23sm/kIS5vskab42UVd+69ZNzWYnUVeQFcepyeRep58bSZhzJccYP6ulbtm4ysdXrgNvzwo/kwztmSqH+W9AadkVGoBLPRUn9CON+X0/FAldyTkMyEjqRyF0lTcskPmxCD2elR3cVgL+ujwc9H5Mkjonn/CIh/Ghk5SS+qoQug2k7DTDuOIkmU+0PNdx62jPxOXjbznPXzbueH/ifTrqK+8qrWRazgXypbAbCZ4/LC+D+7xI+j3Ulnc7KEtDp7RWB9nsnbYMuj1Y4WWpwOPax5xWQrIbxxB/zwk8Evk4oecTrJG1jkX8TxeZajAVCT0QO/+OvzihF+jJCX0+hM69RMtlcqKLBtnkhBmPHAl9f8v84HPEksAGPQnDXxeLg1oNRQt10iKJPpiid8UIPU8KWoXYoE2YNpHm52MTsb7JKw3eBhuPNuead8LH3RKfv5kJHRZ1bG0aY9rBYmccvMS/FXqYs8VpC1Z5q9kRtj4dwnJn/Fyt5gqy2fE6IKEHl/pBNkaRyOMAjMsSLjX2Ln5tzcS5tjivuoUekHRCn43QbRJEm78ZCL24ALBpM06fR3vlOdB1xUHur4vFwRZytGLCYiobTvFOqg9mYpBF8jTrI3c1zj4WT7YHc3vmpx7P194sxjSnuRO1rnjGhaSP2xnGLZ9/jsMTvNpagAtS2um5g1wXarTMQdQVCMHw/micPCS9Ub5VO6TR9Y7YeDEmzjI0jZtzryD4YR+u+n2ch/b8xJE37skKp6ZXxQWFbWGhkH3PrP9V2pZ6Ok7osw+FONT23shpMdWJGLmScCCEcCr7P5hYOGSxp/HEED6KtBQ17uWvC8PBCM9yJ3RiyfIp9kYP93pgbOQsdQLgJJ65NI3IswWGnnBuCWWTb+Ea42SqrtEZXO4+bmd4bgMRH9cQ0HHHuWLA3imITWMkZp3NAoHS+mYNeZeudWSu71CLHaROOVctVdPacmSws65cXfPjCwslfKXh6QuOjMr1UQgLyYKHKHqxNJ8jrCyL/dXHxuvsU/lc9rDU59kJffZ7OC9CP8zxanPm3kWCjvP9az1mv0Dfw4EIZDHyiYk1sGP23b30vTqEHi3kbIKMYYTC5GrXE8ffZGjhZIPkpGGmkx3tnH/rJAuqsIDTJDfcUsa+eY+NqE2atdNpSbPdQtIbhGL6PUuIC0Qe+5wPWIuOsUJLOsF/HE8lrPYo/1opmYU/zYNYXADna8LxmTA34GnQMFTF+0jvQIyrV1Zq+nNCP+Nla5m/ck/28vQJZHISo0VUJIVipnxxDzbgxyfSPEv0nE9WK3x5+S3BhMYJMhD7OAGGC+C9jtcSB8KSF4hxvDoAACAASURBVGOTsfziWJyEvZihP8/Td2KfwwA/QQ6NOpXUQwhLfWjlZKwwYyZ7v9/VZLdmc0c6va50u1B9YxY7dNhpnZPM6YYvlyv6+UjokbjZ/jwSucbgQfCTr0Umjl6umL2uiITnJXO4MyteJ0gn9Kkjxi30eTxIYYqegdDjWcRdjJe/5eeoE1/R5ckxr8+jxWL9dfE45Hen4DIMeRVq7YytwaILG5+dJyPOYRjnY3CvjZGVtIWxp7ZR+HeSOY1OEsU1Z6yP25OO22Ji/fFxzIdNruIWFd8o3Xrr1i2427tWU57d+1C+ln0ZFnJIotO4esiWL2bFHzQ89yvZtVBWzOOwxTI3NWLwUBUXokteE49dnlvoZ9xCzy0aG3KTbnHWb1oDAxNR4Io26zSE95lJyhUuN7PfLCbL54IPSBLxKWYU29C2b4SR7oR+/AltLkTC/s8UtgzEVoaLMWsPCZcj7xNLd3RssNvUKMXf4ZZE8hD7Qidp0MacIykfd1fjVnkcx7YXXksfMVP9NzW5gyoYf09Yi4xLtDHohD6X8XSshXmR0Kfn0HCa4IIMs8rYa8y1Mbc5fnQOGmqHNMbLb+3e0tdKFRY4/xIIfW8M2/6+35Y1bwlkv4foMdnR0uexdTGB09DnAv+lSRXjy3KMoucrllPGRabaOPOJAB33sZn6eSf0c07ompmpqkk26alqUiR3uK+6o54pK2GCVylEDl58voJJX7sRDQpZ0Tqr2u/RnRWTmGbMS/IS9hPmdfV6HU0cSpKU7JctxEaIR2KqwltsKRkmXhzD0o9S/N8ydK2H9PJmpL0u9hintPlqsr81x3Esc+KYTZEFrcPyhPj592bKJ7QkWOLPezXllYvIEhPYODb1hjJ7PVgMtKzLJFKWrg1kp9WU7Ztb6JTWwrhFPDxF/Juu+BC3tvGgs08gMxoUB2f/kJwjiRdlXqMlz7/X63UsFhGvR790Ov4rVSx6caA+at3TUk0tdT1OWOzEUCMH3RIfHSf0AcipDBLbrd6Uzz3+MWk1tjFADksHm8vC6fR2ssd1Op64lrUIZHmIuqYwkXNBSnrHirQz7GjKOq0dTvVqaXOfYTd8zwg8czplE61ZRXRHWY3wSfJi/Hsnx403olauaqYwiY5rL80Upqsd97aMyXKIBdtImEyktKefHWEsVEpYAECIw8p/lkPoPGyx7M4m7tydqeEcTP7aLYvJTn1cD405eJnUeoJzgQsas0xPjqOP21kWRLS89/++djNjjFu1DOn2y8vK1BWYYHQiiz22Ou20m/DImFeRHhnLXbctz3XI3zOiPdgujcpyxXp3nf/4M8Ax1IUOP1e5jx8OMDseSZ1/T4asb3dCP5TEPIZ+KESHf+AQQlcyxhil6zwj81AqwkFarVbhcsKDhR+dYEnrOrMG1aSCgtOkFKJ+bHSwy+vwC/BPzIJAmRMk7x8kL0uwdJgBPCoPpIeF2kCwWKvQJw2XdWgvSXNn0Kc3xrw1SuXLJHRMljZ7xizi8bp0EvlIxyZVwKp0hOJSKjLooVwJNcYVXHO8hOMS8yy4+3cjAoeTaSTS7BtR6hUc2enuym5rR6VbaS1rCZsuNEfSHfQypbdxvItGi7EvF4Y0OiZfOa/FfD1a3/H3Kjxacex0B23pliFSk4LQ8bwwO56L3AoWjqW+eQFI6tw0JS6UscXxtkpjwV3u58RCz6ysidIyDkZaYRycHNlDTIQJ4qwUbCh1K1LrbMruEx158vHrmoTSblJGEUMfkz4X0JpFGrZpcSxqG2dL2lUa2RfgXIYIIA8SWKhwF6ZwG65vbMj6lU3ZuLoml640pHYpkZ3udUxAbRnC+tAMYu0nCSLX+xa2lSP03KVKAse8LukglbRcl6Rfle0bu3L9sRvS3EJ3rUfhngXB51nKVpN/lN8vwBBZwCXuLWUtHjR6CGOb0+j2ZtyaPzu7N3V+ij/2d+q4MyRkc9Ae8ZY4xxXc7fsROkOH/Bj/TkJX9zm8tPW0JqPaSG571qZUryZSWS9LO9mVdgmiNSnd/DinHsreyrUDCH0VhJnGb7ET+jkndFrctOBI4rS8SdS0ypn00b4+kFtfhB13fQgy35EeYkaan0LrDS4y1nBawgifMVOCs3/GGkz77JL4YAGT1WofYgRCL9VgjeO/PpPcaD+kJVm7XJPbn3lFrty5LrVNWPAJOlCV22Z5KKdzcRcs4wkt/0VfcTGpkx6gXMwjjK0+Fp3lNTgaatK91Zfr/31LnvwyyRy5A70Kfhqwnk7uJfKxO+sdP5jQszVjaKjC35n41ul0UIrWlf6AWeya3QOvEbPUGWYB8cLjVNZuaJPnt194aHoUn14ck4XnAtai/Ho87H9YxZNTb8raU6ty9emXpXYtkU4Vde+CRi9YADPUwxCVWehGlRqNZIJwVoe+WiFbJ/QzTuiMXwfGtZcJC32S0DlAa5Wa7G7vyiNffEJufAHmT7PK4CtWo3BD0c3EeDssOFrnUbyhWOFczDT1CXHWCfHk31eDmwkRNEFgdQwwFNqjtvQqHaleKkn1Skme/5JnSbKOUVLra74E45M01UtYrKnVxETIk5/CzN+M4yeWP3JFGS2yMoi6NKhIQ9ald2skj33xSXn0rx6X/vZQqmV4IJJ1jE8G2vefVCfbY06esI/fmW/hoTsodlKjW51EHsk8JbGizWnIzEW4HYszLuxYN85JaeLeTh+rVnEzTROOFR1MsIt/t2oflr4xKx8LC1jkvWpbNu6syx133S7Va2XZli3E0gdSa1Slz6YvDEQ6oR96n8Vj6IdjdOgndGDq2nHso8WBTys7RcxIJ8g+3EuYJB/70hPyZ3/4V9IY3i5JF24lfDshmTMpDlY8n4FKhfH1YKGHPNa9+SdHW6Efeh3+gWMjwHBHivvFHAjehRKsc05EHUFMMGlLqdqVu1/ybFm/DSGWq4hJllt6P0sMo4Q4Je300yf0WCkxLVwfSuo0hh5KmBQJLCiHqdRlQwY7Itf/ekf++58/Kr2toWyklzSW3mp1pALX6VFd7PtLFx8bev/CPghMWyBZlQ1K0pD81mmjUxqyyUnY8PllJZZHXVhpchrHSXzV89if0DXBt7BplU/YkIWBTHqR3d6WDBsDufqsS3L1ORhbl0fSTCBogwUw27HS7V+CR6toncf4+d4s+6PMh6dn1Z/+s3zA0HdCn8O8EAZssS6SIy/e2BKySHUSx0o1HYG426n0b4j810//Nyl1UK4xZFlGoRZ5Xxd6XAHP4Zx9F3NCIBe/gCk7VqtrbkG45CsDeeE33iWjp+1Iv4a6XtSh92Clj+DOZEa8VjbM4WymKbzZmIxu9LwXgB3OJjU4V8O/MREqoVszDYYEEhB62rsk7ccH8qef/qJUumuSwgVPV0SJCxJ22cIVcDtJlvscLvvC7WJPVRBCPcVyMJK0lr+GxLcEzVNojbebLSVydSjhHtNzGEtpjpdcNm6Jq3BS4eZjicDBgzFUdMHnt2ly4UBS1/pzjKVBrStPveeqrD0zlc4aCB2LYq4Wc0LHmSPcmOchx97o+RIh95DG8t5oaAWXfTbe7TuHld0dd4DN41k+7jGzzzuhnxi67IuxDpSD2sa23VJab0ONdXOCZGAchD6oS3m3Jlt/05a/+8PHYJlXMV6tHMO3s4iAOt3DzEDXYME6YPUBXZeYsJ7z0jul/nxYRrUdqeE/al8zaZcuembJz7aZdWQTJSa/kGwXm8Vo56yCdgHHmo62bMzZ+ev3sSjR7oH6eUz5g5pUOxty/YtN+dIfPS6Vdk0qIHnNmk6ZSIXJmMTg43e2W3iMb08SOqtnNKwR9CpKodVpJE5qsdPN3usi2RaGRST7qGA4e7cyG7+T5sZeT2JhnBWudxAawGhXNoSlLj0X8fS7N6S9saWEzm9xTJtwFvufhwUqni/+jeHJfPa0BawN6EjoeYKnDvs9hH4M8I/wUSf0Mx5DHyP0IMHKkRcJfUQrhnMerpOEnjTr8oX/9HfS/JueEvoIRO8T4hGelJX8yOGEzjr0K8+uy9P/B1i66S2pl+ranYqEPmR98EyEXtS0NktbF5QFguW4G18yRDEQ0y6IMfyyNubom7RmYANa6JXOOsbr38jOl0DezYpUUbqmhA7PA/tej/C7j9/lDU5tfkItAxUxovaBEfwQjVRI4CxH078zTk6eM0GEoEbJkrLZKeh4Fv44Vmw+TS9CH4l6QxB66SldeebL75TuJprBIL6ubVjptUS40lzuccxbrpEtJYoG0aTLfZzQ7ejx8yHEdNR4wxFu8+xoHuEg+33ELfQZwAtfjRKK5trMXTgJBBFooQ8hm5mkZc2Crg4bsHguyR/81h9JuoXsYCf02W/AUvewH6EHr0uw0EtXOvLC136F7JZvqIUeCZ0WutkZJ932IfS4u2DV8Fdzo+fKXtHVqHFU1T+wyW2oVrrtgIReh8v9Mx/9z1LZ2UDyZiINlK4xVDAsgzBU0sgJ/aR3bx7fM1LDvBN0DkjmzGLvobEKXe2Zvjos4aLsalSmnJXQJy3xSW6cWvYWLlznS+VkVv/QQu/KbuOm3PPNz5POpR1pIT2OCneq6x4qKWKlj5LyHjdAkdiLpF0k8SLqTujjY5CKWLHsBvFh1eFFUhDdHdVB7oRRaVPWs55DpbgYPtqP0FkCQgu9j8SpKjBq9K/IJ3/9M3Kpc02T4SyG6dvZRCASOrN2TLfdtjyMUkr60qrekFd81/OV0KsjJDpi0u3TtY2JbDZC55wWSxinWSkFayX73DjSdEGOLylCjFKtIo7Xy/KxX/uMbA6eIqNdZLyXGkrk/XC9LL+co4FzNofBEs9aR2CwurUDGmq3LYsdZZLURGerU24sryl8Vt/aW5N27Cvh+Cla6HEsRZd+0Kfbs1/LMWH+CM6P5XHwIAxqPblZeVxecv/z4XLflmZpGzkngdCZZ1Qo3aXVrmJIEKShypxZ3dE7lVvtccETrXJbuOZbrsB57Euf+oVZluczn4Fb6DNDGPJBilnENrFGC12z3zG6e5DNrMmarPWvysd/9fdks3cbCD11Qp/9Fix5D5wwpxE6a7PNjd2sPglCv0dalZtK6JpZwaYUePqRMznnLU5YMckt7j4eKCwA7Kw5Uu0DY256vgGraNAAoW/Kb3/wU3JF7pBSq4bEzoYSQQ8WOnkk4YJ17tcwZ0jO8e4qwcVO97qWoqHMi0SupWiFTYk1JMvx7WIp20nhiV4fhnXYNa1I5tmYKJTxZsMEf4yjlGmh8Xy6KZrC4Fl58aueL821G9KpNFWvg/uKSnHZkvnYhM6LZpnoJKHP16ByQj/zMfQ863Kayz0SOnNW0mFd6t3LaqFvdK7Ci7Gm1ppvZxmBSUIPE4RK8jK2iVpbuBFf9h13QTRjByWLppEdLfTZYugk4piUZ+NoshtWJOviRGPyHmFiCxUWxWxf26UlxdW6lzBef082+rfh32sw9Mz7QN1tFb3TCXIybnmW7+dqnvukZRnPkmRXrC0vJr6pShyIfbIpSvw96zNxwkvOCd2SKtV7riVmtsNYR2G/gcRpQOvYCloHDAlReItKmngm2uVtaa9vyz33fiVc79e1Pj0KZ5kiZlG1zn4f87rrL5Ggx13u2qYVlnwMLbHKngEjHLnwnRMCUfiaE/q5IfQYQzfVrGihm8vdGqhU+nVJ22vyqd/4j7LWvIwaXyf02R+hZe9hCqGrtRsmHFSl9zd25EXf9mxVxYJhizKdihI6deNmdbmPK73lhG4UG8vqcjXB8bBj7q7fU76DBYmWrbUb8un/8DlZb29Krb8BjQSbNKnkBflDFQnx7fQR2I/QaZEzZq7WOSxzbkUCJ2VN63I2rzPOcjM4KvaQuZF33MzNHrTYlY1tcUv1zBRu911BaeeVptz9Tc+TnfqTMmogUY7d4tRCt+dJm7dkycf2nOXSTJNknh1ZPQhqoeOp4zlloVKMc600mtPmhD5HMOd0T461Gw6UuOo0C306oTOZOemNx9ArvXpWu3ysg/qHVwiBgwmdLvd2/bq8/HW5ha42bShbm8Xlrt2oWNITJrpYoqaJQ2FRQS3tbrcvVagTqjIdJ1BUXnRAAmmV/0YDGWxZT4CM8SGG009lbbiBGPqn5VL3iiTtKuSI66ryVUrZvAOZ71QW821uCExazaVC7LsYK4/Jbttbt/TYk/HwzAMztzObvqMoWsPeFL12R+q1mi4wKFxjjacsp0rPMZjumbtd50vrQskeF6WNoTwxekRe/i0vgoV+Qy10aynNxUIkdDZuMQ13jnvikKbMz0LSX3Df9xHeTKuQKsYiJ+YQ2II1z1jKc5/MczCvbY67Ov4peQz9+JhNfiMndHP/REsnt9AxIGHJ7CX026XSYx26uytnvwvL3MMRCL12U17+ehL6LXW5z5PQE6gO6mSprSdNzCaTbmV2MBaYJGASepT8pKQmvUbdQQcEz/r5GKMMnoXgukwGVUkhfvSp3/h9JMVdkyp020uw2ns9pMVVgueJBrrXoZ94AB7m9k4Yb2a7RmwxS53kFbXYNTt8SthuUYROvfcEhNzcbcnaGjyOOLcE8m8kdUpXZyFFrfjgRQRyD4gNsWBJ0duArXlLjaHcTB6Xlz3wQtmpXpcWytbSkNSnZcD4LpUYLaxkXicoLiMMBG8XFHNU+50llZpkB48o+qqb1yJ4qLgADgtdI/SguTDHJBAn9DNvoeduTif0E89rZ/iL+xF6VP8bmIV+SoSektBDTHuQWE/p6ObkJJigTrzXhDWOPgF1WC2ccKnMxQY/uz1oulYs4FnSntMgf7VyLE5Ol/v6EDH0D/+elLerUkPOR1paxySJCRQd5qjRjUp1T4qbYfTul5w2zcWu9eVofUeybLfRMwCvlEZd5jboddVCLsMTRAVEDcdgImw0GmjNmi8uddEZ4ufZ+bJSAnruFfZBaKNtKtqntqDV8NJXvVA6iKVTQrmk3WK4MLXv99noKBAwO7dJbyS1lAtUtoKFeA7+q6+hV0Z7V5vMJCkXvHn2O8e5haLMYo+tWOeFoRP6uSB0DodCHToGWi4ss5+Ffg0Wurvc5/UgLW8/RyT0132VdGCpV6hPwAShObncxy10EnqInmvtLtQJ0e50rbou3V1YTCR+lSFmC0ueA60Za8BRgiQtX2PWMedK1v72bw3kjz/9X0R20IMAHdfYkIXTNnMA1PVJy8rzOucy/KKlrQIxIfZM65yWJwVjVMK1tavWeSbvumTsayBMWudpvQbeRGIbYvpl9KBowzKmF0j7Fuy3IUmtB732Kgh91MM1VofSbXTk7lc8R0YbXe2Nzoo0S4xjeRwsdCxa6YXSjfHv7gitWKGNUOpKpw8lxkYize6W1NexOMVnez2WtUWQ2PQqJMFNJJPO5Qba0mF5m7vcZ8d+qrDMgYS+iazhz2kdegWTrTvcZ78Hy93DNEIvtEeFBWIx9GmEjsl6Bne1JQtZcyAKwqiQEWeUYF0rAcOqfv1r/pFcSa9q4F7bYuK/Hlu5ZiVnsM7DRMd9RVckraLNZEN2t3bxehkJfaAZDFiO2Z663NWZeSD8Dz300HJvz4ofPRZ7adlXqCfnKcfGKZG4ma1Oq7zVaqllTpJn3Jou92Vu/U5X1tfXQaLwHGC81Orr8rZ3vUuSmgkQsVy3KFcbudVc3ggMUBK7hB4XXXOp7wxvSoqOaztyC+2GYf1DuIgla9HlPsQCdABth0jokDpCoibHPtr5oo69PbwhP/PzPwHr/iYWFVsgeLJsN5C6ueoj7Wp4tJDAOg8cndDPvIXOAgiOkSla7pwcKck4FkMnoVNYBjF0J/R5PENL3scEoWtSJCeK4AqdSuiUfkVzFkxgsxK6KXGZtawVZToUkdBGHXbEvKudhnzfdz+EabEOK51JbHXFi5ZfDQlMZmHn8sO6jxCr1GxgxMuTXkkupZgZEW5nLggvEdxuFv54ufOee+GEfvDwjIS+V6A3eFpgmWv/8nZTLfTYfTErPVu2hV5JpQ0xG2aKk5wHsMjf8d73SgsEn4BNB1ghxjLIrJwtO2d4HWj8ICxUxTjC+gRxc7jOKy3poDMhG7OlQyRiIpdD3evYBlQoDF4odZ2D0BknH5R2Jal3pIRKknc//EOydg3PQ+kWFhkIK2XiM8S0qLuQKyfOaxJxQndCn9dY8v0sBYHlEXpYRyoBGwkbCSSwtmmdp711aaB2/A2v+140VgGll9e0jzknQP5UKlYDbJMlrD3ahfgnLSBOnCR01gczb44WlIY8MYFD0F2aiG9S4avCJhmhpGga/E7ohxO6udhzZlbXOyxyvpLAtSwNTVa0hCt0UaOrROu3VQwg34oZ24cl3M3jcWHrYBaD1dY3ZKvVBAPX5cfe/W6a6khUM5IPFep6OMtYt3c4ZnvaTKaMTn5sbsB18EjJfAj3ewJGT9pcnKZZP3QVZNI8EX4fISSUUSZVjM0UUrewzkno7/upt0m63pGdHhpgQR+etaJE10rsuOC2BSx/LXFFOseYkRP6uSd0iyXlWe7ucp/HRLI6+wg1rDGupzMN34sT7SgvW9MYuja4DBb67EpxcS7qxy5UjGuD0KsoOUv7Dam3N+T7/+FDWk+eoPXpsAsRZmQVs79Ar9/VxLbcoxAy8LGvAVhcE4aQQVxBQh1j/4xlMoO4D/cwpk9NhtJWqk7oJx6OmkireuV4ZZUCGJllhcSdhH7rlpWlRenWeCBNFuOdGxcWyCoc5qEEd5SL0hJGEG+HsW7E0VuoKX/3+96P8ZNKE96fchLDivacZL0Dgmepi1BRFYvEBDF01qOXa2j3Clf7qAJLHL/XID/M5EzkYGbCNIyJx4ULxWMHrC3H53ulLSnVtuQDP/suxN9Rx46yN6TZhZi7SdTSc6alxepBYwU7CX1+YQsn9PNE6JngAVaNOmAxZIKWOzM/E7jYGz1quYcYuifFHWXOOFufiWWIhdhcu46yNdah166j/ajpxw1Rv033djKDUqBZOzaF9NVysaxdWkAVkHoNugf1zqZ87+vfBEvnEpoDoX0vpWdp/bH8J/RdsCxiuh/NconZyNaCNRJHNHHy28G/x/rg/W7Smx/6gbN1/459tpOiJBPSokWrmvvOarLtQGx/qmVp7HOBXZVgcfex0GojVs6Y+X6u9fm1Pz32BU98IYjFwNUO5XiMwaq8890Pg9Cr+J3FcyBqdvzLegkEgZfgkMhCDkFZkTtnnDxTPNRxaeVmudJcPAWrRych9xHaksquDNIn5Kf+7TukW3kCVnsT602zzi12bveKme5x3A7V7TS/uIUT+nkg9DAgouCBPqhcaTOuTmEEepOc0GedOVbz+xmBR+32IIUaBIZoqbdhNbz89eggNY3Q+fETTihZUhwmKpJ5H6tITlBG6GVY6RAygsLbG7/zLZK2QOiDdQq6attTdkuDWDunT53otKMVJ08t6zF3Zix/y7QSqLQVu3uFZL4JA3HPPbrohB4BySxmrRGIJVyEGGWEdC2T/EDsjJMzi32geuz54mByiKwGodOtEOvLI6HX5e3veRjrwip8OCRyjM3CWNIxxXGUaarn+RuBbfVFrzyov0yOsZj4SWvfDCdqwyMxLt0BoT9uhJ5+GeEhlLGxe2CB0LM4fhjnXrZWfGTVGgiD7sJ2W2PShw0ZJ/TV5NxTPatVIHTGvbVGl4Ruz2S00NfgcjdC38R7G2rRkycoRDOiHzMQOs3yWB5keMVxHWp1A4h5Fy17g/HTg7aLQ+jT61UmiXwSqxIIPca6I5nzFZaAEn22IJgwIleF0EmqzL0Y4VzNQjdCp4WOAjYdH0boHFIRI9rl4YKCiNEkLjHZM1rVxb+b65yWOQhdF8RK50ro/aoRer/yZRmphT5J6LaAZUknNyf0IrJO6OoOckI/Vcpc7Z0vndCt/KfPrHN6hDTsQws9QZY7ugV0CoQOC50WDfKYVFjG4uexlIcGUV7SE0G3sR3K4Th1h3k4uhad0CPpHlyAymoX5bRCaRp/h7ZZZpXH/uX6uXADVtvlbnefV05C75YgwQrL/B0kdLz2GE4oEjqplONHx+jBeBWXidxH3lc9HjHE5I3dVVBmmO4aof/8j2Jx+yhi6CB0Fs8pmMHdrseNPQ7smZnn5i53d7nPczz5vhaNwJIJPU50dENajNHiikxiYwy9gW5pb3w9LHRY6pVA6GqhMxnLZtcMseLcFt2ckdBzWCcn4otuoR8+4DRrnfclZqiTgihRSuU3KK3Rxc54ucqm0v0e5E5jVrsS/Hx55/CTPtIn8uUcy9W6iC1GQu9FCz1zuRvxat5HaI6i2SSFsI9dZyTq4glY0mDRMo/142pQ4aMsATVCfwwW+o/BQiehI6auzVhiCIn7d0Lf/9a6he4W+pEe/HP8oSUSuk2ARrBaB6yEzvwNWOggdGa5Nzog9O9kUtwmYugNs6gCJ3MtPUkUyhuB43OFLT1C4SYW/+2EfqTRHQhdySWUo5HAWzvbGbkXoN+zy9UkdEvq5JgrEvrbf/xheIxooTMDHT4INdpsUDE738rWLNxDQrcwUbSg7dLHf88XnWPxdM1WD0mhHPuV4HL/eRL6I0roTEo2nYaihR73b3lO89zcQncLfZ7jyfe1aARWgNA5p9FWypuyoD4cGu8pk+JA6G/4rjehDn1DUljolG5XQtdyqZzQI5Hb695Jzt6KnQVD7LEw8e4H+/mPoY9f+d7lzbhHg2Qe+5ezvrwPaVLGyotlZpmsK28Q611XeFNCZ+kYvApmoVckJ3T8roSuFB0I3dzu1mXQtBNIqpOhnLFyvH3VFG2hYEsDs9AHExa6EboVqHFcxwVwnuU+X3Cd0J3Q5zuifG+LRWCphM7kIssyZmd1I3TrI8AfEnqtuy7/NBB6MlwDoVNMhh9DUREFTdiUhd/X2l4TqClulv1uE7K5PaNHwF69bO1wQo8a7epiD5nsdLEzZl6vpfpedMFPkvucDci5PxvTCJ0x9B5kfxmAngAAIABJREFU3wYYawOQfMxK58FJ5FFYhr8zmVPDP9m65eDYul1AMaZuY5JJcVJBzDx9MsTQHy9Y6BOETo+ASh1bmGqe25x3d7xTcy334+E17dOeFDc7hmd6DytE6ObWNOIloVNhK+3U5Hu+6wdk0ExkHXrubKfKmG2tbjrgZRXaYFKTuT5VdU6XBRbPTNC0pQKri/2quRCwFpVo39lHUw30uy4dMiOedwudLuRpsXHajFEwRomjQOS00JnGVcxin3wGVp3I4/lW4V1ottqytnlZtjGu+lCGe8fD7wO5oi86r5sLSBptwTVOQrc4OjY2CwLha4oBq9eIJToBakMV/DvFYsfan+5BJywu4e0YtKW6lqLTWhev0LuXR+UDP/dOyMDelN3+kxA/soWuWug6rq0/uxP6VDbzsjUn9DNNx7Of/IoQOqVbbdKKhE5Shw52rypvfN2b8dc1mEPIQu5YOVS1BqU4NNaoojEGN7o+817qFtOkolZ3py+NCiRjK3XotpsZxXaXVIsjaR1mob/pLW+dHeMV3gN7gUfrmqeZk7RZmuzVzVh57EXPfytxqeSpfXfq1LranvbslCtQDhxAEa6D66yurQuGl7zr4Yex4GNMG2TK0ruCyFK0ztXrg/fRKgBkbhoONgZRxpdC/hWkzo6AmS8+HDEmzRk7ozwTC4DuAGpwmk3flF5yXd7/0z8q9SsIZaRo1oKkQy4moq6CEjrvU/A6uYVeHH2eFOdJcSs82S7k1JZM6HmyWkwQslglE+M4+TWg3/6aV3+HXE6fis5VaNcLAqmjGQaq1qWD1pUQidXPa6c27Y9lGyU1uSC4XL4mrSasIHbEgrQdtbtppdOa19aeh3Rbe8tbf3Aht2FZByGhm8vc6skjoUcij1rsPfbqBpkrmRTqy5d13vM6Ljudsdva1m4TcsLw2NTr8kM/8iOSNtZAolC9o9Z7iKFHr0Mm7qIZnBXFowNLG4r10h405dJta7LT2VHxI47LYhgoCwFFYSN8i33Ya3UsWNFutd1/XH7xgx/A97+MRWcTpF7NFro2rk1MKa/jPzip87g4ucvdY+jHHTP++VVCYEUJnbF1TlqD9lBu27wTndYw1aBFWrcL+Q91QfZN0x2Uzi1vemFlPYk2xIB8562RfP4zfwSXPfptgNTpdodBBo3uPKP+oNvBblvnesukXXOLm25iej/4SrJXwofcbpHMYzz9rJM7F3SdPrv3oKqiVpXdVkc2b7tNbtzcQl909teN/dBz4jQxMvt9gE5tlSoS6uAsLzdgSdcGcs/L7tJe6FJDYEJbn+Zx9aiVwJCSEjT6ZBDLFsTkIR+PnupoMQtXO+PpaQOeJA3SU0TG6ted0A96Gt1Cdwv9XM/WR7i4JRO65vhSf12bwRRETkJGLwl7AK9jGU0uGrUNtVGY+dvr7kgNzVX4N3KuWtzarY0BdWhdoyFGtV+XjdIV+Z0PfVx66ELZSCBMg/9I6OzF3YdllBwiEEIr7Txv1s7GNhJ3lsEOQqdFXg5CMhTxUQs+uECim57Nbs7yxmviWCB572zTSoebnbkWHFsYG2zeMunWzgndRJDKcCc1B8hQr3eRTNeRl/+9l+C1hYx12OwlxNP1GTOco0SxxcBBz1RFRM37AMmdmhiHz69tlkHq1zE+e/gEQkoZofMb1kXQLfRpo84J3Qn9LM9G8zj3ZRN6JIg9hG6uxZTEyzmsjwmP7k/MriksohLcmbTQR2g/yU2FOdS9CeLB5Jiin3oFdeyVVl0+9ZHPgtwb6I2e6oQKZ7xO4IwLVw8hJKp8necN6QRqIapVzjanwEST3hBT5lYkdI2dhzK06J63XISzu8VrZyplrVaTKtqn7u7uqhu90WhIu9uZuLiCta2rIC50BM1UkPUPEu/WmvI1r3yJtFP8O2minhzNVbRZiyXTaaImxjCTO5XgqZKIXVbTS7Lb5IKijzaqOD5eeW4JpGihAcs7ERYE1l3NCd0JfepT50lxZ3cymsuZrwihx0krWjMjNl/BxEWCqVXrsGLWQOjBysHkOBjCAgLxMDau9k/o1KYkhMlS+6mDxNP2mnz6I5+Tdbki0sZCAJY7LTC6OgcDLAoOMTDPO6GXEDsv1pWzciDWkRuh24orWuQk9EjmfC02YFF+O2MGO700JG5eNxc0vKYa2qHSO8FqClZCBCbVl0jnUdEwRWinj3axo/pAmskOCH1XXvrKF6Oh0Y60SoijVyHeWoYbKWwcm2W4263cEovQETLrsVBt1K9IF8xeSdHaF+6kWsO0Gfpoy8pngy2FTXLWuqvFHiSagT/Hbam3z8vWZr+TTuizY3im97BkQrcpcm/rU5I5s9Z1A/nSSuckW6lUEUNnpjvjutY7XSda9kDXxDirLedEW+01ZH14VX7rg5+Q+uAy3oPFXmroRE0LPU1h9SMGWnQ7T97Lc03ouPe9dkeJrN9F/+6Q9FYUiSkSuhI8rcwJPfciZmeN0ONihRY5FzZ0vw+ARVpFfgaSJ6eXnVmIh6SMkYZMd4whxM935aZ06015ySvvkW6jKc0yu6chDyE8Y4qdVl9YGZy2foG7XkMdUEbk2O6jl3qitXFYzGLQV0rTLHQusuLSwgk9H3/ucneX+5lm4zmc/JIJPe8zzYkpb3+atbXEu+MSrsxfD5rabOkLa0cbaGj7VXO5c0uRTERCr0Np7pO/8ftS719DeBKLAcQrNaGL3a5ZehWSk+aA5FJ2EcvOph1cS8pCfXQsL4vCL0riiJO3kN1tlt9STn8FDjreRkUJvgBGzIm0t0yT3RY2QapYP89wD8IWSQcthm/CQr9Hmqgj7yKezg6C/Arb9tqR8jqM8WDFxHngQOqmn1ghjdTXHuPxeiZzxdAt9Dm7POZ6d46wM7fQjwDSef7IqhG66sCGqS/MLnmWMIk8CmxwkqRwjNUJ92jpqJVupVUVEHoN3drq3Q355Ic+Kw0QunTqkkKjWztbKaGjVCtY+Gf1Fhen86LlHAm8h8QqWprxb7QGozuZlugQYYeLS+a5UqDxZr4gNGIvjAr8EsWKjNAtvGDJmEzERCwccXQj9OcroXdS9IXn8MQ3K/iHibyGEAa/G3QXDh57gfZj6KOQMa9LjH1lZU82op3QndBPNnL8W6uBwCoSesGOsYnVJsHYBCNOOqYoR3udFrqJy5DQOb+yuQuz3Otov/rJ3wCh98xCT5FkdJ4IPca7aakrVhNCL0OUm0VCLwrE0EK37miWrHVRt1wTPYuOjxN5AZhopRd7uXNsRuLvBQv9JfeC0BvXpaMWutnTFcbN6UnXRUPowQ7umIr9tFLJiQ+Oe7bmd/ec0J3Q5zeafE+LR2CphG7uyqKlEdtJhjfNntEJ0F7jZBq/oy53tZRI6Hy1uHsVzV2qaL86aaEzJknZ0hGTi+AOPesu90jo0VIvErolr+VZ7FHtTbPY2TVM5XfOdpb6rA/MNEKfts89ju1AurFDIL/DTHda6JHQW9WW9AM/0JNkkrE2PhkmyjTgs2cwHiW8FondCf0It9pj6B5DP8IwOdcfWTKhH4Rt7mq3jlN5IpB9i+TOCZmkP2Dfai1bM4tzktA1ht6FlCwJXXt5nw9C3w8/Jg7GLHTNYo/Jb5HMY4c0ZLn7liNgo6m4FePV+fuxnWmsEaf+Sx9lay0S+n13y07jBlzuIHTgbC2B2UiIhM6eA1zIhjI0JfjiospCSMUOb7Z4XcxdcgvdLfTFjDQ/yukgsIKEPt4xrSB8Eiz02AOaU2KMqSuhh9lIXe6IjRct9PrgKlzuqE0/x4RebLLCVEFVIGu1siz2yRIz/fwFt9AnH6pI6OMEOu7FyA1nS+IkOfMTPcTMW7XrgdBvSruK7mn4WyR0DRExIRPjeJzQuaiKVBpT58atdSf0o0x/bqG7hX6UcXKeP7NkQo+EHOPkFl8MFnhW0ma/W+1v7qZXyyX0VtOJM3yPiUIVTLRVJMXVemuaFDeN0JnlHhPwzsMtJkHTMo+Kb9EyVxc7kuEsw53eCfs5qPzsPOBxlGsYz2LPe6mMW6p5nHzSmrYQkYV9qA7XQjLcS+79KljoJHSox2WEzrpzCMVQSnfCQmdN+WQ9eW6QTxD7ZF3gnJneLXS30I/y3PhnVhWBFSJ0LciJ56OLbYs77s3kNcpXgg+4clLlj5UWsfUqf6yf+ic+jLI11KGXOmilijp05o3R5X4eCD12PMuT40z1LfYrp5KZWuaMmRcIPVrzk1b7qg7T0zqvSULncfI8jVyK2Hg0p9kY2uEnNHddXe600C2GvsOkuBBD59+YpGkxdCs7iy1Z89g8LXceI/cGjOfGBRe9E/oBQ8EtdLfQT2umOCv7XUVC5zlpL3NOgJB37Q6hpLWOOHBbyamKjljM0rae3Ab0SJu0WPyR8yJjlpUBYuYoVfv4h39P6kMIywzrcJGiDh2qYPWG9VVfda12ZqgzGz0SL0k564gGkh6gLI2/VxhyKLQ5pVAMvxOlWyNRFJMKlT6WapIt/yEZQBSGSnHbkHul9Ctlgbn4IXb89zipWo5GRrrqLiL+VC4Eoaeo66/clK959QultbYlW6NttFCFMiH14pGkSUs89g5gAif6s2pb31azg25r6Inea9l4xin0UU5Yr1dVXCaKL5lOQ9E1T8nD+QbXlzocXClu9gfC69Bnx/BM72HJhJ7Acoka7NRjZya7WUkWn0wh1QrxLCX2SqkCdTdKtw7RQ5qKWogAM6mLbk96yqI+tgrOkNQraLt6TT766x+XYRPfHa1jHzVVR8M8qy1DzVLaX5xj2W7pomt8ss5cM9VZFsVuaEG6VAVjYKHTMte/Z6puEdfx0XrRCX3IBj1YNLEZC4mVzVnYM4Ca7tSpHxJHQlYgTiuf5HsMY/DvHIPIX4eF3qvuyIu+6aukdwnu9xLyF3R5CdU51UzgbmyMm53Oxao1hxHqJ6B/+ggLhLSeIPdhG5rulJ7FZ/SZCBZ6UJmL3df0bs6R1J3Q3eV+pvnswp/8qhI6yJjSmtIuy+2XnirtW200DAGtl1PVd+eMSulWnUxp7IyouW3TkbrpaehgEm3f7MkffvZPZNSq4ispdLrXVCGtnMDlDrKDtMyBhD5Z173o8aJWdshIj1nrxXNKsajRpipYpNDjEKVKo0t9MunNLfTxO5iiEJ/W+cbmpnTQmpd66o31DTRlQZ0+PUTsaZpttijiIigSOi189RqlCOWk8Bit9eQ5L36GjDahkQ/Z14F2SsOCgYROLkdWO/NFNI5OwRmMSS7KWt0m1gQYl/jObuemrF3CeMYY7Q/QHGasrI0LUI7u6Ox3Qs/vj7vc3eW+6Bl61Y63ZEIvJsUNypzsmPiW9zNfk035B69+UDZSuMxhXfM/s1fQxxo9qKP7E33ZMismCniQ2DfKm9LchaWTbMoQH2fjjSGspBK14jXj+GAL/a1vfetS71hRV90WLpbMFn9GcM2ydzlj5hqGmPg7VkFj5++EPn47aTHT6wM7XUm8BjL/P/7lv5RLV29XN3qPHf4mzNbiIqmseu+wtVE90ek30Rd9RzBUpY1+5q0RBhzGLEvbmNNhGR7sURAS48LqYAQ7vraG/UANvt27Kb/wS/8aXqsW/n2Lwfec0HUAcC8cs7Gt73zd7m6hu4W+1AnPDz4jAitA6Ka2xUnOVLQox5poP3OUmXXX5Pte/31wTjak16RUK8kswQSI1pbtJtyVMYhuFrpNvrR9rOlKrw3rCXHKteol6bYQaWeHMM3yhjMUX0VU80AL/aGHHpoR4Nm+TutcXeoFos6IHe+1m8ikhoudlrnGfQPZq4zphGrcbGdyPr9NQtfWsRhXJPMuRs67fvy9cHfTDAfRqzKPZbFzi4vFiIZmuPO7SU0XAMMK7kPSkk6CBRblhUHoJXb/Q2jJGttg0YUxzhJLTZaDed7p7kiCrmylKoRp0ODl4ff/mKQb+C5c+IMSvFEqlhSS5TSs5IQ+fTS6he4W+vmcp45+VStK6MxQZ3OVpFWT7/uHb0aW+jos9Lq2Ru33jLha3RZi4ZHQGRQP/4b1HSfBVIPMiNNjQuXfq3Cx9hBvRnN0tcx6NGAPiKEvm9CnWeUkblrjQ2azg9CZxDVpmVPyNbrrjz4YLtYnVZgIpJrAazNKKrKNkEUbMfP3/dS/ARlXZAdhjLS6BuKlTW5jKya1sQSNcXBdQMJtziRM3ZjtXkIsHWQ8ws5HWJyyZa8mxal6u7ncSejqdudCDa2Cu8NbsraJBdrohvzML/wrCNLcwLBFP/VRE9Z63n7VyByk7hb6lMHqhO6EfrHmsL1XuyKEHt3tOidiEowlZxujq/KPH/wnkjSrUpU1TZQjAdMyp/FE97luBVLWuZVWDYhdM8JB2t0OaoBhcTGRjlMxIs/aE72vs+r+SXHLJvTJpDhNCEQOAX8GIHWY52r5xc+RRKyUbbyv+d4bn1XtX9gnQAWIMAZaLbjGU3h4qnCbw23ztne+G33MG1JGNUUXi0cj80joBpf2I8ez08HCkOOq1IFbnQSuYRzcG+i6l+jKh5h7gla+FXqWNJGO3ijE1tVCxxiGt4lDtAlXe6XekebwUfmFX/4JaQ2fgA78LVjuHMfdQjWCE/r+A9YJ3Qn9wk5n4cJXgNDpIu+rbKtNkkboSGDrrUu9vS5veN33o6/5phJ6n8ZK4CJSOTumGaFbnW/cRvq+uVPrmJiZucxybG7qpgfhdbvoi452qgf1PF92DF0XONRkx+uA8XK4FDodqr+xlK2PZjO47pDRzs9yfWJx93F1Myf0vQiY+9zM9D7d6uhH3kYI5j3v+0kQ60g6ML8nx4d9xwidIaI+8j60h3oLbndmq/N9WOE97Ikla7TQyxzPY4ROl7tlgoyoNIdFQFKDlV66CeP7hvzfP/t2GaZbUqq3g4UeXe4x38Nd7tOnbSd0J3Qn9ECIjM3FsjHWgfN3bkgWqm3Jy1//PDSeuI6JSaOzmMwwiWFeYebuSctmVGgjZBz1MVNSiz2WBFG6tcbmKp1NeeN3vknS1iXos8NqQvKbtgDFRKr5bBpfpAANrB1MjlGExkp9ogZ8fpNjM46Y2GRiNPtvb37oB+Y6QjIN8IguZUNDjFwXGzGCEGqhufhQ5TckbHV7bXgaYN2h9lzr7dnPfb5lyHO91tXfmUbAg3IbQjkYWwO01337ex6GhV01kuf9iSqEmrAZyv/GNN8LXh4dd1Helf+0VLhcHCnWshs69j7PAVZ4inyI9Lr81L99B6zzx2Sk0rHUW+A2XrY21lRmjoPAk+I8KW71n1s/w/0RWKKFrtrWWftTkBYKddktzbTYEe9GUlyjTUJ/SyD0dUxrEFqhFYS4o9buZvKwbE9ptevcjDhjmVGwVnHAcoh15sR/8OA4bUJnvXiWsc54ashKt05pEIvpddXLQDK3uLl5JIrf8eF9UgRobltNOMxpEDrGFtrrktBHIHYUkek4onxr7vGwrHJ1ues2kVQZnif9q+kU78mS1yHIBShTMvER9ibAEhWEvgNCf1wJvZt+GafUxrEROskIPW+3qiWdPCv1as1vVeeE7oR+0qfJv7cKCKwCoWMW0W5VSugU7UAZULDQ19obgdA38d6GWvSqZMoSN3UPBNENukdVKjZa3JxITb4jk5PFb7FsK05ci7bQJ2/5COdddJHHs2cMnFu7iY5dzGLvdcbU4ibL2VZhKJ29cwgWOokbi6ciodNChwacygkboZOgI4kzuS2QaFYTPn71HGc27vZ6gCyRDu/j7+bhUjpXQu9XjdD7lS8j144W+iSh2z6d0KeNNne5u8v97M1C8z3jpRM6jRjEMJngFsrXyMOxucpap0DoyHSnRUPBjxHc82w0kstiRvfluI2Rk7raMytH6OVyRYma8XCVcGW7TVjq3S7c60x+Q6a1lp8VLPc4ALzByqyPgi3n1EkO3Lslc7m/gy53vPa0i1qB0OOCsOB63+8MijTOfRjB89PxiPYJCzlRHokW+q4R+s//KBa3j5rLXevW4/c4xgOhh1BV7Dw4KxLx+26hu4U+r7Hk+1kGAksm9DjRcbKzLlQmLMO6XcbQG91L8sbXw+UOS70SCF0tdCZ/mVxXhtpYUlx4OxJ6Du1ksthiY+iTtzjRjHSz9qISnCm/WdtT6rNrF7VCbL34+WUMmfNzzNw/M8DCqouM80jovWihZy53I15rsGJd/zSbpBD20XsYPETjAj6W4V60zKNAjHVro4eKFjoJ/TFY6D8GC52Ejpi69kuPISQn9IPHnlvobqGfn9npZFeyREK3CTDGuU28w3pHW3eqtN+QRgeEjqS4BLF0S4rDNBpD4vRaToQPLR5qUMSWrPZbkciL/14uofNiqCVO0qZrnfKt/BlqUw7bYt9yLYkKFx+btFz0bmknG/T5t9ifnGOuSOhv//GH4TGihU5dN+t3HgdVifr4mulu4R4SuoWJYtKa7Xv893zROaY6p/Xk9rc+x34luNx/noT+iBL6KGTTZ/3TY1JeSLZzC704ApzQndBnnRHO+vdXgNA5p8We0jYZWneqlElxIPQ3fNebpAILPYWFjv4VRuhanpUTeiRye92bJJRZVGFujXH1OPHudxvnlRRHq27aFnuT0xKnRU4Z1zE99mjqFUrTMpIvWPdnfRgu6/yV0CnIikWVWegVyQkdv2cd13LC5i1h6IeEbpUZRvJ6X8KFxOoN/XVfnQNbKIR6DMtyn7DQjdDVN6DjOsuyD/ucd3Mdd7m7y31Zz6Ifdx4ILJXQmVxkWcZsf2qTEzulsZEFCtRA6Oxn/k8DoSfDNRA6VN+U0K25ipaq8fva8CLUshdw0XI2nWwtQ9jK2WLCUm5JLYvQaZ1Th73ZbCqhU6Oe1ndmjfOaaBWy9Clkvuv5a9zdGrf4dnIEphE6Y+g91pZjrA1A8jErnUfRlr5qodsWJVzzNeT0hdv4GRZj6jYmmRQn0H8fpE+GGPrjBQt9gtBpiCJp1Mbxya992jfnvLvjnZy3Tz0eXlNvoJZV2PIyxi914GKkaJISS2monsmWlP2qNHpX5JO//jm51LkmlV59LIN49rPxPSwcgRUidJsmjXhJ6BSXSTs1+Z7v+gEZNBNZT6+q9Ctd0rU6FgAo4SoHQZno+uQYjpF1bfICWc4KE8+o+IU5kwTKDPJOn60pq4X+0tORP4qFbsps4RkqxMNNEMYm+Gm66vz77jZKlWCdRy12flYz2AORx2z2OVYmLXyIrfIBq1gQNaEUt7Z5WaVf+xDqecfD7wO5os0uCZMLSBM80MuwFqghdx3ji4TPW845UufKCrvfWSJjWkszb8s4BjGmDkGlQVuqa+iFjgTI6hqkfOVR+cDPvVOS+k3Z7T8JeWJb6KqFzrFB2UMn9H2GlLvc3eW+yrPNIs5tRQidPaNt0oqETlKvYtFYlTe+7s346xrMIWQhQ8KVVmm1Bk12uKer7GaFja5PisyYxWIxTTbF6O70pYGWqWzQMuob6VKshb2u4+cOgvlNbzm429pBCWqR0GOcO1rYlsXezVzs0dqOZF4k9HhuTuin8zBQrnWAbmkddFaprq1DHU7kXQ8/jAUfY9og09CcJZaf5UpxXKVhDJJfoQMf3e8jlJmVUqjMgdRLjA9NtLfLyyrJzijPxAKgO2iF8jh4aZLr8v6f/lGpX4GKYQq9OegQWC27ZccrofMpCV4nt9CL48IJ3Qn9dOaJs7PXJRN6nqwWE4TMhay9ozFhNspr8ppXf4dcTp8KHS94hECG9RI7qyGBbNgB0fPf2AtjmSzxCcjDBtIFweXyNWk1YQWx6xWk7SgBSyud7nkSqTns99/e8tYfPPDv+xF6MWY+1ikN3gG61ulm177uhdh40aUeY+vRQj87A+psnekIXp719XXZ2m1KAj33EmSCf+hHfkTSBpuyoKVp1j41F3WJiyuNk4PMucDswNJGbYK0B025dNua7HR2VPyI4zKGeXTBFkNAIQbO1qm94QAeJyxY0amt3X9cfvGDH8D3v6yyr2WcU1zo6veV0PPyS/UezHFzl/ucAZ3jvTnSrrRswl3uR8LqXH5oRQld+1uBnQdof3rb5p3S3cVU00OtcBfyH+qChFAnJlO0xNDbMlDp2Fzzmg0xSOj9WyP5/Gf+CC579EIHqdPtDoMMGt15Rv1B93Uw2Qx74sNFd3vxTyT0SMrFLPYudNgZMqCb3VYieQJfkbzjdz1GfrpPHRd0HVYUgLzTWlV2Wx3ZvO02uXFzS8oVDBKEa2zLidNU4uz3QQ9a7lUk1MFZXm5gLq0N5J6X3SUDkLPU2FWtu4fQY56IEjTqEXmvWx2k36FhYBktVFtwtTOenjbgSdIgPVXhiha6E/r0UeEWulvopztfrP7el0zomuMLawV2c2HSVPNcM3pJ2AMYsuUhMt5rG5wCtZSnhx7SNXazMo+kWdywhkj1nADL2k+9LhulK/I7H/q49HZEGgmEafAfCZ0NNfqwjGI7zP1uFK20gza6W9VKx77iNi12PkRjlViSxni51pbDU1C00CeP48Ixp//48D5wLJC8d7ZppVPoB4Y3xxbGGZX8Jt3aOaFbPXoZ7qTmABnqdYRR0Db15X/vJXhtIWOdDVcQT9dnzHIpzEKn0hsXCrC3qYqImvcBkjs1MQ6fX9tEB7j+dYxPdAQUhJQyQuc3NLKfefLdQi+OESd0J/TTnzNW+wjLJvRgoO4ldHMtpiRezmFoQ0l3+QizawqLiD2kaaGPWMBLSykQOr1N1HNP0U+9gjr2Sqsun/rIZ0HuDbRAR5tLxtZB6pzA6fKusiH2AdtBndj0azD1i4ROizoSerSyeZxO27LYi+53/ffeCjub+LVj2vRkutUeUGfr7HgPNCERC8FarSbVtC67u7vqRm80GtJGR77xLc9it3QNavGjPS9017sg8W6tKV/zypdIO8W/2c+8gnuOWnUVQtKEOlZwUKbYLH/VH8Auq+kl2UWlQ5JCt3+I4+NVu7BBW5791vOfzG2FAAAgAElEQVTmLKEtcBg3TuhO6GPj013uZ2sCmvvZrgihx0krWjMjNl9BghHJsIY+1ZVkDYQerBxMjoMhLCBMxIyNq/0TOrUpx2KyrKDkjcI0aXtNPv2Rz8m6XIEwOluNslubuTrZjjQ9JGh4GKEzWcmImVK0UZedJwSSCL3Ltb4cUq5afhYInwIllixX+E7h5jqhz32kT90hvTQkblZM8D4R9xranjIkQo8KKyGMeY1BI53HiqAUoZ3+CORbH0gz2QGh78pLX/lidCjckVYJcfQqxFvL7PlrG8dmGRUcVm4Jr9IImfVYqDbqV6QLZq+kQyTCwfvUMG2Gfo+xISxEadGriiIJPW8O44TuhD4+sOPSMRuqMflDq3t15aqJnixbQ8Zxo3dNfvfXPyPr3ds1AzlmFU9rQrD3CTpKjeZiHmQ/CiepvJVjCZOMTjgBmEhknLhaKKF5xbd/Fdqn3uQUo6lnIySm8d6XSWYnBjNKaHIHedcq64sOy4ZWNycvWMF9THac+GiVU/K1jB9NamM/6eByZxzd3JFw1A+qUu2tycbgqvzWBz8h9cFlWO2w2LEA6HR6cHfD0odbVUVc1FO330XsIwkTFkK09vmMqPXFnbDlJibdIWKrJIWdnZ1M6W3sCFHuLhD6JIG7u/3Eg+rYX4wLLY6FKsYXib0K1ztDIlHkJ+40plREdbh0UEemOwh7rSQ7cku6jR152Te/QDp4JcEzlm4VGCZpbKQOQocSohJzYgu/IRI2K+jH3keipybNY1Sx532CpFBzuYc1BRa5tqyYbzJcvL6TP8vHhn3vF7wOfXYQ86zgOLmOd6vipERX1ACDq9KpyhoI/ZO/8Vm0s9yU9fKmZmjqWvKQ5CE7U4p/hH+F8iJd+EYrcfbL8T0cAwGVvKTVyNwfuqJBmuw3XqaYBiaRLqyHXhmZtpcRF3zgbulUbkqyUZJmp4nSHEw02DQb/RjHHP9ojCvqNJeNIRsjXDTYRGh1uCaiUVR2i/XAGjmnOAdj6OpyB1nDokl7lI7dkN/90GdB6FcRnoRLFTFJdYUjFjmCuz2qecckPCsNKmxaZ4zkpjC+tQc5LXGMey5sYnOVElyvXPiW8HnWIbfgPmUmu8bJ42Rc2G0mAHdy8E6Mun+xiEAUHho3NiZvy7T1Hj+TQNGQQ6OHB6EDN3sbi96XvfL50qnewg/d7pjztAIjNmUxKh4PtXDcWv5HzCnhohR1c/xkOFlE2DXpM2wjeA4yY2x+d3Spw9EJfbYbmQ1SXT1y6Fj9rg0+y37XzzCWg0mSWtrrg2vy27/ye3i9XYZtxIPChKVTsn54vyGRk7lqIIePZYQe2gnGtoL+SnawhLHTemXHMtIS3cDaxpFrM0xQJCUwNvSlkdBTb8HSuCHf9JqXSReTVB+JPj3GBJldTq/NjBa6jWCOP4spxoVhvvCzMZi3QM27VMWYpJE5T2e8/WoVzV3qnU1dgNb7V0DodbjoUY+O0jFUgssQVrqNdU7qplpnr4V5k9Iw6qyy2LjGy7nQ4D4KLnSOfe1bHurLh1gIxxi6PhUTjOCEPtvcNb9v5z6p4j6neWzybmn2SY4V62dOLXaUroHAO1USunmzSPDsIjig8p/pGQa3eRwPlgyq1juT3cI8rOMROSBZzTr0FTQExbQ5LlpB9iOWa+L5y9q4zgkQJ/QzXLZ2FEJnxkePqlpoVlAfwuKBUtxv/8qnZFPukH4LQy/z/OR1mjq2pukXB0u8aMxHV28sy/DXuJJfzOsQLjyWgam3WL15JHOQK6zXXgKRjEZbtgdPyCsf/FrpccIq7UqpBrckPqtluEqA+/qrD5lm4sKOkxQWEkp8NMej1WSx8bGJVkMD1vdcRT6YIU9PA3/gvjTXpinNmXTsJfkECX1AQodQjRI6iR/lRNiBiara5Jxb6QVC17JO/YR5DAKh64QerlvL60LMlXFXEns5ZLFnojJO6HOinPntJs5D6iTcZ7fFhdheJyToGOOGnqE+268iw90IHd4sEDoz3jUEHhaN6lEKC0YznODSp8cIHGKEjuoHHSex33mYA+hmx+Kaf7dmLHxGuACev9vdCf0ME7rybhjInMxyC53vc+UYrGok+NShtJVgdDLJ6DO//cci25gsS+twxcf4ow2F/AGYPtjsoYiTNAZyiN3O7zH1PR0XgbwdZCBLTBS0ePsJSq1K21K9NpCvRVywX2tDSQv1X1WUkuG+qQscU9JJCd0cOnRHRle6SWLmlgk1q3MPhXniMdnpOLPxxc9HQo9ud76XUjqWiXG9nNBH3SqS4MxCZ32w9VOPnoHc/W9Rc9u/OkK5AAhTPr+TJb9x8QDyZsyVRM5XErh1R7Pv7Sfd6hb6cUfp/D+va8dDdnswwZmLnM8BJBKkl44TOglePUdcNHKhjI0eLRu/Fu7pwROmQ1zdY0VCZ2Z72JTQjfDNU8WdBiGm/cokTgiXE/qZJ3RzBcWeP3GijISuzlWMn4TX2SlJvbchf/1fHpG//tPHZaOCuCR8SkU5wzyWHibcImEXYuVjLvcTDj7/2uwIUOt8hGQzjT2H5h+c5HqYXHpJW3ZGN+R5L36mPPPua8jY5QSFWlvVk7bYoXZ/OuGkEifT2JQl61iVrTKZbBZclRihZpHbNefdrawkiBNnjKXz7+zWVoHbsorxSgu91r+K2iLqujdCDB3SnLS8mXVc8CbZ/nNC52dI0nqtIYtdY+qwyIdY6LKmrosMdrrarcwICw78TDZPOSFEs99g38OBCBwp9UcJeP/dMNPcCD243O+Fyx2Wehe/03PEv3Mcq+eoSOh4o8eEOY2Nm46BLVpp1ptLXcem5pGYhrtufK8gNnPS52/aFTmhn0NC11KcYJHQxUNCV0UkZGY2Spuy+1hX/uRzX5Q+1LuQJofEEJRVhNGRTY6ZBTVpqdugzAjdio44RfvronFgTSy7nIV5gtYnbxuKxWA5gNBhYVQ2BvLCr7tL0suYUGCBYBBAchXWLUVTo6jKDKQRZS3zGHloRTmRKBkn1CznIjumTYRDEm8YhByDlWChV7ub8vEPfwYx9GsgdFjslICl3CqWJZbcFsfn4e7LGEOPfcuZ/MbyNM0JiU1ZClgUVeSc0GcYJEv9aj4vmaCMbdFbxHmLpE2XO2Pmndp1eem95nJnbTrkE4IXIHifmLOixE4Pl/UfYHUGqtHzq1R3uiXF5Z6ckDin82okdB35J15QO6GjDrYMdtvF6utzj39MWo1tjX+c5S0ma0QL3Yh1L6F32y2pJw3oaMPN3qzIo399U/72vz0u5VYN8UomcISBHgZcOcyuh7msbECebvKX738ffHViiKIVmFAwe4DG1R1NlSu4Y+SZdz1Fnvbca7DWd0HmzAxHiQ6aTgzQ6ITlZMyGP3EsT1d1YbxFK0QTJmPWb/HJKppI5uaMmy0ObcyacAc7tbF0rS41JMV94sO/Dwv9mpSRFEeXexkz8GgEQod1ZO51W1DadD3+PJfgno9u89iznNZ47I5G9z1K2seEYMa02wvSrmd5njiP526NVmwByQUht1j1kF9vTuixF3kcJTrngXQ5/rrIOelAtrUNQmcMvVW/Dosd+u7McFfvke0nhqjM82SKcVa9EZUOuc9A2mOg52FKO9GoYOiEnsOk9afRjQGBCl1pmWujSh9eeMT5PgphVNjiohE65Qi1O1W3KTUQeplZ0MgeToeX5I8/8+ey+2VoaiNWmcc0bUJUS12zMA/aMqdrmEjdUl+sp0KFrrR8q8yMb7j+esM2ksvQl3sNRLU+lJd+/QuQGIfsbVTZliB60es3pd6oImbcApHhmZklOUfdkBbDthI1jDa+Fstz9I+WuFaMudvbOcmr0pxKalr5WwUTJbPca711+fhElnuZinO0lNQLYHXoMXFpUkiGhM6lgorE4Jpb0PruqXQrRGSBGcvY1CUfLPSova5xd9bJn/EF/3kk8nhNZikXsoh0kDH5MSzqgpfRCBd/C16jLOyj1RnmbexmFvpNs9DV5Y5QDNV91e3Ooxqha3iLYx9jlBLFOneGEk2O8txbNQ19m1fzeYLndVgmwNHvorvcz/oDa4HQsHiJhDpuoWcrS7V+qFpUlTJUuKqYLB/5k5uy/fiubG8hWQpbwhpmTGQkdO1q1dtnsEWrPLOI8lipTd3++2njQALtweLW5mW4H10op9ECb1ypy1O/4qpcuXNTqutI10ksdk4JS03csUIym1QKspRHnzbsk5zUSMC80ya+QVWtaDHbopAL6WGoj6fmNom02d7VscVmFgO4/21JboRu/aqR4U6hDoSCqv0N+diHfleqw8v4WQfRI9Mde+12drFQzXXadUFAGVfWnTO0TlU6uNNZAUAi73VgbSHpTRepsOZgt2vnNxWTmbLNcY49Lqz++SMioLeOWefUEKB2u4q4V6TV7qID2yX0KGepWNQ/yHcak0DpJi+P0MmvnsoOFnlNdEfrNW7JN776ZdKu3pB2mWVrGCsMYXJMqWGIkROau3DhCY+7Ccr0uzgHNmNBRRH2N8C+VccAAjf2rEThJSP0LLZufzziFR/+MSf0c03oFudhVNVcRZz3w6oSbvYESlzro8ty64kdufHEDVXFau3SikEyCGLuasXk0fWcBLIsdw4wZmue7bDF4Y/Jan6CFvmI2bOY2SroNLV+qS5Xbr8sm9fWpXoZ9w59IdolSJYyzqc3P/Ri1rEQ3PjBZX6SKySh0z3OxQHjiFFIxuYoJhJhQdguyeW1q7J7C/2hSdSVhpI5vQrdHkRvUFpn0xlGWhhHrKknsScYq6NWWf7T7/8JLiSV3i4IGNrv2qUNx6vC80T3uTreGYNnPoFeGSx87J9k3tq+hfAC6vHRl9oy2HEcfhb7J6lr3sGUWXCOc+xJoPXvHAmBkayhXerW1pa2Tq1Cb3Wn2ZKNK1fl5q1ta6eadVuzHVpo0pJBET2HpC/11zEesbocpqBhSL9+9SueB+scBk6NbnSQM3Ud4hyHZ0iDO8HrxBmS44p6ECUMXBxSnrj5iKxdwrxYoeeHz+gUQg/XZ2Vs89uc0M8NoVtShrqbdPAVu0xx6jLXpA5ELZlgFyAmVXFyw6ALzabQ9sKmV+yHKlpZm8jgVopCKZmja2q8aH4D1Pe0PwKcC6rIVqeymoqgsFEJJhVa4uwSxf7OJHsrvYmWgkWbZ8luj2fE41tVhLkZjdCNzCnpWkG3tPXksjz4La+XK5VrqNhdR5vJNj4PYqdsq1o6hdhiGGMaRgv16PXKmmzfaMpaFRUZIHiN+Oshqd3dRgc3TMRK6Gj+QsublpRa+ebU/Eff+XqcIyZhKMPpddMDFeL1k124fKydNQRG0sFCjW1TmeDZhkVebVyS//OHf1hq65tK5l1ovBfvcwzRRmKvIgzZx2fQO5WdzWW3d0PWrqXSGt5EEimqy3scUHAlxWYsNtryECVc9dSCL1XwWVj4/dEt+eVf/X+kPbqO5NObOAc8g1gExDyRvMrDxr1ruRfHnMfQgx+I9BpjidFizleVRuamZGSsz8+g3AljlRnRbB9I8jbvIzNAQA4hhsj38y2PkWdZ7tkCM08+8az3xeQS0JIddVnFgN7h8LvT5diHLnUf9zrBZFSqYrIBkRmBcVIKgi7BjrUxM5uFEMvEcuvcFoyVPt3l6FCxXZHv+8cPQdRoXerlDWntoKEKzpfu9+6AXiAePy5Cw0ijHzNoXlMDvgJXQxn1vpr8RK7Hx+ht78PyVmsbv+OKYWWxixtc7Jifu62uutrf+v1vlJQtLjXKHtppjiWNnjUS8/ONCKjOBlMpMRhKCLf0ML5579/zr94PvYWStOFGr9XXJjwwQSI7xMEH8Ph0O/D2VCGFjLHTQ7LlKEXRJ8iZY3Skhg/j5Fg46yLRFqHRm9Rji1ZY4nyWhsiKL8HC/4mfehus/S0sCLZh4UO9KyP0/HHTWLzuaVoC3cnvsVvo58RCp1vViDQQeoiNchDmhG7uH00cUYuNxUs2rFQRiz/4WwUPRyzZyXJObCWA78fYOL8e9eMXQ2C+UNiLs94n1smy+1Oos4btigkJme6UtsSkZHTGiYmTEuJ3mk/O0jVa1PMhdOuWZhMRXeUUhalBi31jdFW+93Vvls5WX9bKl+H6LqMPurm8EdXB+XFSjpZ+JHRa/NbcRfuOw4/JSZdjUz1GmHRraMFqnd1YdgTFLmBA65wTOjRipNOCtYRY/f/6z9/KdFh1xtOqZ/vWmFE/0tapeR/0k0+j/s3lIIBlKqzzXdzrLuau6tol9C8oydve/h5JGmtIAq1LC4NMM0Yi06kRaHMehz49Rd0uXOX4LNtaaFgez8agjFCVhn7Y/hQegGALqf9SvVBBJRElEiT0dmdby0JH1R35yX/zo0hEhXVeR0yeQk6UftX5ls+pnYipFPKZmW+40gl9zoAufGCHpLhphG69o7lFC52Ezgxhizdq4hv+bZZPjC3l7SA1y5eZS8EtmscaCyRQyByN+Xn+aivx08fBSJSW+QjxaiY0luGPLsHlPgDpsb0oXZGUqBTkTHCxZ4lqjKEzYYiT0mwTSmzfa01YaC8FQkdCGzPUZasib/2f/rlU2nC4J5dAsoYNCZ1NZXR+4yQ7JmDE982j1EGMnIQ+wiKhXmNP9TChIuGNx+wxTs/yO7y9i6/stkfSYg9sCMYkwOB/+WcPIZkOXiiQOmU+ldD183HR6oS+8Dlrbge0XuiVKsIuXCDCmwhqlh97z3slqW/IVhOdz9CYimNcZ7fIyiFrQ3+Hl4id0soldkWzcE4CrQbmdnDfkOLaMzZ1MaDPDo4JD1mKJLge2gGXah2IN23JB37undKRv4PFDrd9gtwN9k5QA4vhMTOh7IyK/THmA4oT+owT2nxuwwx72YfQSzHug5HOCd5c7sh0LhC6HjVIXSaIxcZez9YOcIrlFqw5s4w4HkkGNoQWQ2B+nHGc8wlBBVY0lo58CSTLJbAaqNNPl7spVwULXScjlnyB9Hj7NfRyQlLXsrWgxc5JS6UtLbudGepmoV+TN/yDN0qpjTI09BKgUgcXiezyp+72mKiH6ou8hpx+dWszmVRr4GaEDagcxzglCLtaxXUi7slcJdXgxhW1MbybMM938cN90yeRYv//81u/F2X3IHdM3CR0tZLUTZ/XARcT3T2uPsNctOCv0sqt0jvDGnB6bxDK6SdVeds73w2ruY7qDmqt81Mmc5zNaBmxYxRoEwQs8KB7wOdFpbDRU6CMsUxCZ/vTmH+iFnXZNNk5j3IxWxlSihjjCd/pyBa88zflX/+/75R+5TEl9xE+bwtdhrxo6Ufdh5A/MqOHbBJyJ/STTmYLHrz7Hi4j9JhgZPFII3T+2+LrFOFQKz7U7MZ6Xa27pYWHEZ+72U10hDGkvJ9weBxoiWUnkxO6NitQd5a/LhQHthAlL+qMBY+LJsDRxYeJhKSpb5hqlYlhcAlGQjcLfQiin4XQmeWudbr0CmAhwbI1KzszQmdzlTd8+xulMdyUpE85TMT7Qej0HmgaOqxnWxzy/DCpxlk3ED0vqAu3KWvmWTfebg1kfQ0TMIYyXeysqtzpDGCNdREzZatLW5iC8UHiHfkX/+ytmHTb+AnZyRqvpyod+55jnFMut6Ag5oS+KhPb4eehoSMs1MqUMcaYauH+Dyo1ee/7PyC7+Dffo43NsjMdYpn5EWcwEi3GKz026HNRq2HBiLGkOUWB9LlQyIRidMFKwyj2NMccCUJnnkd9rSrb/RvIrbspP/mz/xccYo9hcXFDS0b1saOHLMTi7cqc0PfeYU+Km8Akxlg5eifWalmtepg/Qza7TfDH26ZFXaPr1V+tbe2icIh3LpK1MbbF58a3cSvcstw5oRWTHo83DngYtuXVJYRay5HQEU4coJEKkuLW2hvyxu98i6StTbwHmWE6K5muwa/BrUlLSL0KzAHQ+H4IAZHrg1uTxrRqauuUnGutM15+A+VwHbjju/8/e28eLNt+lYf9unvv3d1nuMN7ehoQCEnMWAhJOAkJCHnAFVKpcsmmYsCJASEx6BGjAahKqvJPXMZmEBrs6CEsY4QhQcJ/uFLBlbhSLmNLcZKKDGhATBIGhKY33Xumnod837d+a+/dfc6995zTfW+fc+5vPx31PX127977t9de3xq+tRYOqBYyKkvjuOAJIgLj8NY3vj60YTxkajBjHBGWuKm2+JiCP9v1p703vQI2LU3kXhhyaJGFjohFeOe734PfC7Q/Jq/Cx0kbiIqhXvnqtfy6GcQelm96K+CoR71u3BzqugbkKFR8D43EvIefZ8I/+bW3wUP/NIJiGFes/DmP7REyO491VJmctPpn1eVrvYNpHvpalzMdLK3AA10BkYoIzvhWAvoUBsIEoUd7P8OkNAD6cCd872tBTBugyQ0AnWVuxr208jon5QnMaSDUAF2VFuzkRoVNnah8O/KkZLGPJuFoOA49RAiGTIXileQ4AnoLJ5CB7U9A/9Efer1eC7aKpfInPS4B+gOVk/v3ZVa5wI2APmLpYrMT3vHEe2BcoupDhEkHdNvPAd2jMpSZE6MyAPfKBDYCnX4veUkGzHqL8smwfQYiZvFMeN8HfjqMCgA6CHIySgXoSDdpxLB55jadreaArWmREqBf9pD7mgQhHSatwFlXoPLQ6Z0T1Am+Vo7D8adttG7tEND/2vfXAJ3DZAjmGFWKEPqEJZSxgREBvane6VVLTrVkZemk+ADiuoEohx+Q63ogzI0KdMjDiUyZQyXbHyRAFekhlJ8D1H/sjW8QoOf4MQ8dvRUc0KH9rApkOZpx1pVI+29iBRRyj7yIGdIsLF0koL8dgD6Fp847bpEYg2aNl5ZsKUcVQ+nmYfu2MGPA3yxz7hWI2/FoMhh5k/LHsjUD9OihFz01nKERORegcwhWJB/H6WzrXrcE6AnQ1y1T6XgPyQoYoFMhEsyh1GIuncDM0twCpWud4TYA/Q0R0MEYxny/OajqbFFLdvoU5XRs28rOcAxlsmWrmBkkb6oJDAGdoVAD8sOegTn4SmqYM8pQd09DArvxeGSwN2Ew5PDIM4D6jwPQCeYF+QRR+RPQvVxIfeVOyiE9JPfwMl8moZq9GKxSgtCKkDt4P+989z9SyH0UyY9VaZgDusmawC8OJ3IRqGcqHdydBOw92suoEmQn17Q+eugMuRPQn4qA/hl56IRzpbXIVVE3RAf0+yN0CdAToF/mZzqd+wZXQGHIWIbjIXe2siQgZ0D3NkhwneEWcujuoQPQwfSds+QMHrqNP7WOhfLEY9mb/CASleDBU+2hTBiEN7RxRS16H/F18JZMOaonBye/0+NnbtyadNQB/Uff+AMItw/hrVekOBUdxec+AfoGBWjFrzYP3ULec6Ri5KEjQuM5dIbgWc0gvmiMxlgePQL6AqZWUOi9Oo4Dup+wtQu21sdspR0D6AuAbiH3KfspiIjJKg4aHlUEyt44Z4XJHdYuAXoC9BUfq/Txh3UFBOhijNNLivOhqbME6PDF6aGPtgHob0Ad+i5AtQtyGmqG1e6NXeLMw1dnQnGSqCVZV27ZRc2pxutBfwbPnOQ31rrj8wTvslySx2Ku3UKrGn0qzwmla/DQBejw0FW6xvImEefcPyMFL3nol1l+NUkPFzCPOXQCO3PoRooj0JJXYaBp1ScRzO2dqqriGLguJ2KiGbAQfreGTrQ6lRnP0ZAmf9I89Pyz1imO5qbkLZZJOqAr/WMG6Dq3BOgJ0NcpT+lYD9kKlDlMhbGjz0FCEcefov1rZ7gbvvvbCehkuQPQGSKl9iN2Q7saUY2BSSg2NgYxfFcXOZSfm2eO6Vl9TLMiwLP2XPtQi0YPybrFVd/PkZoZogA5mO1v/aHvF5hnLGOLzGUBADvsReMjhdwvr9CWfTVQc04PnWWL9NAn8NRJVGMOfarm/7Y5S93HqS6OOuXoXlkHkgzbN77nefiaV+/heR5D/egyDLUqAOjvfzvK5z4Hpxysd8i2RQgcuI0U50DuLWTXdQcSoCdAX5cspeM8dCsQO2ZRB0b2uFSgGst4+9ft8N3w0Fsgx2WzLfwYy13KlVPiCOZks9PDZytW5sUB5Bhbjpz5PByhvty6tcIXQwieswcmAGhqXk5ta6J+mH22y/Coe+gAc5aqveWNAHR66wB0K1SzjQZApeAfuht3ZS6YgC5jTnwMNJIBoP+DJ57AKxv+RpY7b7VAmkK37JVXQfj6otjQITcAKlCvjD8dNPZeYJQAQguW+zS/FX7p/T+L959CyP1ILHer7IQBKWshAfqdhS/VoV+ZBzNdyGVcAQudczPij3s2nLYW55mj/et3vvZ7wlbAtLQRmsNgPzbiABbH0Dzz6Oy0RQ+7xflwKEebhl4Pnbcw6WqMBiHsFof/YY46vo/lcex8COU4Hg3CDkLwLc0miJvmC6CxMdx89gl78w/+ADOr+N2MDxHvmCIol3ujPs1lvOkX6pzZOElDiRhxgVdOY/A9//gXQm8IAw5CQ7BfbpxUgTLltY1e8JPQ6cAARd8jthYeYYKbRcgRQYqGnzc8km0pYYvShO6F7MaoroWNg9BE7fnP/9JPo5ji6dDewbHQ67iKAlh1h22Ree+GxppWdaPSnOrQ13QX02HSCmxkBU4C9EgWEgMe/dcxMvW13/Yd4XrzMYTS4YFDYWo0LwBcyhFxdLbORBFbGKIm7QhUdtaXT8myQ759u3MzHN7uq1Mc98swA13tZaFISa7L0KrTiVFKZkZVy3w5f978+ON4tT7uVVa0DuobVYEbuWtX6UuHmMSzs7ODqA3SM+hNUGxvh7/zEz8Rrt18DO2A0egoci2qdJBdvUAd8pgX2/ocOxyy5HI06YXODoibyA0Nx30YA5RxMwT9c5KY6MFPRSSJvIxGHzyPp8Ov/8v/GbyPz8OYwIAX7zjHD2nqmnvo1Tjjdd6PjUpzAvR13sp0rLQCD3oFonLyjnPR25DugndML30C7+fm9nND70gfJuIAACAASURBVDZY7QD4rc62WrOOxofWVKadYSLWACH2HryqHpQr5rgj1N5Cb/f2fCuM9+fhUx//kzDvNZATb0MRFxjwggpjHIPKuon2nuaBVdPe2DRE3dpxemS883ej0VV+uZceObnuQa9c+r7VV4CecgfDV/p9AC8QO9/qIEUzCN3da+BdDOGtgxxZoNd6DeXcO/e3xmOM4MX0vwnmXIA9idat8/AVX/fS0NpuhD4mpWUFwuroaFjFdJxEGYl2lDE2tIFr38KMgRaY7vtHT8JTh3FRIKEk0pxXYNAOiPlzlcvRsDBS57q2BOgph74uWUrHeehWwL2NGHKXN2QscwI6A+Ft9NaeDfEOxqa2MNc8w/M2AcFtPOmHrJuFIzDQ9weH4bC/Bw+dAXcCMfadkFSHTnPT6+G3P/jx0DjMwnZjFxH+AseC8kbjEJHnlEO1hWdXOW4+HpO17YwGWJcvr/+1BrLaX4p0oyrwoZOYdV4w73OO+ztCgyEN3WEeB7n0EZoU5G2USOL3ISI+J3rnhqaQI0SL2iiHnByGIXPgxSh8/X/2sjDdGob+DGVnZK6zCVL01MvQe+zxnrE7oSwGVliAADdHNKkdiZ4kw6EFMpsZeZlkNdjKytgSoNclIuXQ1/l8pGOlFTjHCkSvNzbokCfD4RUsSyOFrY/BKADyne5NKVfmGzN4RHMQ2yZQgLduH4QevKSePHZOuiIII585BqCPtkJnvBt+6zc+jsY0HYTvr2vASxPee97CNC0Q3TDkEkDunnf91YDchhNVm0YFL5QeneOS00cuxArwXk7G49Alx6LAXPRBX2UQzRw8DaRixvgb31+4/4bjNOfMqGPKJp+HAf4bo7PbED+vfM3Lw7gzCKO8j5GsA3joNqXSOhh67putimEmojxzBsuyg4T5DCmgWYChyrw6uhROkQdoNrpliaW1JYyck1iXXu8rv45F3ah5mkLu67iF6RhpBTa5AvUQooW+DdDpNc1Dt9sGwW0AcEeoHCN5OcGPSq0Pr3x//3bog8XOorVZBkXHvu38PJRkPitCd7IbuqOd8JEP/W4o0HGOveHDkLQ6ht45EINjYgnQUUlCYVo+3cuCqtIjrpD748Zpih77+qKdm7wJD+13t7M8DAYDVTywj4H6EIDINkLNY3cLo3fJkovgTQOgDng2OwD5chiEowx9DvKj0Mv3w8u+6WvDADXkky4iSQR0zRyw5AwbKVH2GEWiV97CLPbhCGWRHN2KyMActM4W5F8VGA3IfH1cavlceEQrGp1rvHsJ0FPIfY3ilA718K2AA3oc1xtJP8bm5SQ1DHLF7PJ2gbK1HKxj5Bq/8PQXoHD7CJX21LudRGK2dJ8jRs7Z1mwMX0w7GLm6E1pH7fBxAHpngpK3cREyeOg569WZu4ROnar1ZvS2YkmShVi9H5jlMAXoCr/bdC7/jPL9CdQvpdjaUBQre6ShKMMQgkEw5U2mbGSkq0dDz++zV4Trd+Rr2G99hpz3IDsKw+1B+Lpv/lp46kcIvyMPj3nmHAtsI6kJ5GhTDC4IX5mymbATHHM7EDqeg0YXY6SrNTjC74gmyYwQmLPvO+oxtdlI43VvCdAvO6A746OmlWRNnqEcotrfPZuTxWzBw4m7bFSA1v00XInj1QqyFmRgMbhXik2tNnuly48kHzsGQZPukPxtEdjo3xz2+vKmbu3dQhkay9cwEQ1e1RQKcEIGMPWbOscgRw7wbo+QQx/fCB/94MdCGy1k81FHU9w4w3yM0iKGUzXopQTo6tqVNVdK34dvGBN5gdyUwHylW77pD/N+Kk+O8DY3ygMNRspYt9sNcxiSai8cDba64aYCS3noaBkLHsccefT9+e0wuTYIXw9Ap6c+aqHkDOF4pmis1asDOl/RsRDvjzGTICua4eioh+9EGggynbEEE1EmAnqT+XOeHKNIAnQvW0uAflx+HvYcOqTMgZugXCpRrYvnemzZlgHeyRmqyS33vwugi6lphCPzgAzKFcZKHs5mdVt5AyqSmsKD9CoUGiSYG9PW2p76PST7m55DHQjvcClLBqIbcnMdH3CtPLYdhyQhVoHztZmTBDcO/dE+iG9HULY9dIAjvJMkh+lTAHN5OvS2OVIV58JwZo6ytS7axm6hw9zHPvh7od3fBUkOYXc0rKGqZIMZDnBhJzDbjC1cD7k7g926y1f72bmrCWyV39zsHUzffh9WwAlsdzo05YCyxmdihJKIIRjqw2IvfP1rvgqvt5FDh4euCYL+vER9xycqMu3YLMbC8YwUmfzxeWsiZURjknpXuhaePiTc+B7qm8AZBizdXK/y3KiDlXLoK0pxCegUGoR5IE3OxjSw9RxNPVfDRgslz7fmtUTFXMrX8R7D8nDuoNijCWv1maZV0+v9Xoe6+ETSThlKZvtV3X9BuykRhigFmtYnXUBsUH9vQTzpvlP+6FELTDmEwkKNGpzC3CSavtAL7w3BYj96Bm1cMSqN3ylmMMrN2FwrNnoxQDf5FXsZHk4XHvnW4Hr42L/9AwA65qkD0BXuJI9+jhpfXlYcvuHzrV1BxllaFbvYG3mU+VQzAFLZ2r1v/cXeo95StTrTk8C8noox/cheBQbWExiGwwJ15ADyV3zLV4Zh+zYAvh8NTY2BEWDT+FXwSXpS894ioNsYVX+/OTWehzbqZqWgHNAZNSLgJ0BflK2H3UPnasTYqb2YwC3qeWo9a+Jhe0TiUvy9VOgUvlIg60eojmffcSf178dNrwaq938dzMCigeb3y6wxE4V4zwXsfJN12uZN8MeZ3gwJKj+4+GSd7rcI6CrXAQmOXjpDnPTaZ1P01gYJ7ujoCN45fgZ7gPuh8oyqHcc+DaB4Hk9+gs/S2CCoG6BjWhvC7t3htfDRD30i5AD0NvLo7BHP70BgtZrWpn7bkeQWPR5fm7JcqJR3+4fvX59/fbqLTntdlBVwufdU4EnnVY8eVs9J9byw4RDlbsLeCCTGCdC/QoA+xu/oLBx1Zix/VI8Dc5Y4yW3C8b/kZmguOio7ItDbFMI6SRQeOv5elkoqv3TcaVp1bc/1HK/6pf755KGvZyUXgjY1QJeFGKXYQj/2fXXBVqS09hmfRuRnxpri5QdBYHAsR3//AexBAeVl+Z7jgF6Xp3pUxrxR86QZGvSOVZQPktkAkucRxej9k21OD52MczWNQe6ydzQJPZSs9XrwyhU5Qp5TnbLiF+F7M4QkM/baxCYPncaGBrYYoOeY1tbFcJePfOj3ULa2g/dAkoOhwCj7ZA42Mc6afdwZhahac9rT4N8T1W8Z2PSvT4B+nht+sT7De3yvgPXd5dp6JtCoQ5uEMEaIvQ7oBHgEigTomqqGjQN+LP9urtBY0/9oRFOO64Aex6XyQyUhjoDuJFIa0jGKucZlPddzvK7vT4C++kqWjQrioeq5cgu3UrsRzCtrsAy4R4+7Oova4IKyrMcBvXp0SqGUgHv4KYakPDSVXrnwfJrv26vXxlYgyTx5dc/tjnuEhcqLwBvLeATs2IPzyNmH/TwbvpiAyVx2A0zgGY7N2l927uodjdH1DS1cAdgN1OW2JCioGkcduhjqCLvTjGghh06DUlOxqKCjjsunqDUXoF8LH/ng78NDv26ADjISPXQOaGF5kHWBu7NaPx5SPzlEe57LT5/Z/Aoc97pPPqe78XwYxTFAjyH31yDkrhw6pqdBHvl36lKR6OqAjjfGTGGRBS9A9+gY3XoLqYvLpIhYjasiR6vuwd/LLDn9OidAv8Qs98XQqSmqeuMDB3NhelSWLhqm5qPXXvO2vT2mh2lt/6qtptvErnhbMG83KkSnl/Urt6cBOrkTTlewXHkJ6uUVWxhbKRUn7xDopVi8deo5lkfhfig79lUHSW0wOEKufB/tN9Fxi/qL+UV2imGUh+VFblyA2S5SEc6/Re9eUSCbjOUynMMTZ925Qu4gxdn4VXrobbHcp/DQm/F6HNCXkk13uKAE6Oe405f4I1Xk0KMyFfDyb2ZIMuTOnPmw/SxIcRZyH2UDjGF1jWeATk9c9et6zii37AMfjWVfJYXTjcXukaOS2yRd64BuunWdrOKN6uLkoa/2nNwJ0OshyHKsZAR1iVDtri+TRyqDwABgcbOhFmm7KCvgIXSGqS0EaESdWLJVu+dURt5Yg7XYXgVRr1ioX1XpM9zFtaEam8PTHqNsaDg6RIj9IAxAgOOQFYK5WOw8F7jk/CFeq4yIP6g/Z/0vR6jyuwjo9LW50UgswGZvj9uYp26NZaqQe05+PITYWO6WkzQVvSCb4gVU8luBvgmwrRU/dQpC4EW53ek8FlbA5NmMVTdi/b5WO1aArjarcbOwOQUBtEyIxAhG5rBAvzgAOnPo/c6z8NjRPY5DWxjIivlw1GzoO51sSk6HVf9wv3h8B+2Fs/XvjgZlWeaZAL1apoecFOeALueLNZIlq9mUNzcjQlFh1hTXMY+8EraS1HGHKNAyiciU6IMhgaXvWVxnAXNdacT7ynvk95yfqFJ1rJ+1UkevgJAMla1Tq4OdDtBNkR4cHuLnWYB6D5FEeDDxpBha59CMJhrBMMTOt8mCV8xdpTxszEHPnXfWSEKU22YE9AIh9w46xH2EpDjl0LcUcjdAB6ueOyudZNx2EeDiGni6QUkBHjOG5RdL2RKgX2YbwTzlyqCzvgO19GLteahHHN0GVHcEipAA3T302+ahK+SO9q/WFiE6QXzemCIyQOewIbYhlhMUyaY0Fe/eWpgyyhN1Q8Mti/XciY36W8lDX+0mUhmTSMStDuiV183OWxiSgZColCdbE0KYcrCXWDrEkiLmPll5xM/Li6KyR5iU/wmqlxyYJQiJhkIC9AfBal82aHivMgwxYftKbiSnzRjCVqMssncBrrj3I3jQ9Jab6JE+HwH8EA4v0BmdI0wnM0yqQn7b5z7zOCo9o9JiaJtTpNh5S7JgDHk1isG/R5hrfuv2Ho4/1rCVGfLazRbkiXlFHAPpcnR1Q7MP9bRuh5xtX1GDPhz28W8O0oCP3kKeXVrIQpTWvAMtOeChF5M8bM2uhQ//xkfDfL8I1wqMYEWyUx4Zcu9tNPIYY/Sl6uvLqIRBufVHAA8Z11HPsydAX03nXKRPS8+RdY5oTzPPNRedzMz+YBS2t3fVklVya+qv3Ly0UQOEUP5YdPJwCN3Ym6NHQnc/fONffkUYFLfCoMmyNTwD3r+BWSJGleTpUw4B6njcMgxSpy5Vz4XpUMfjjAG1pEVfedPP3rHQAL3Mrdsf17asCdAvcw6dSjx6V2yQQKtRPYYjyJOIQbAez4ZSwvyZo5RIQMA6YSjXjGMooZhnTHpSmULpy6OipRtDUnVpWwD00utPYcu1PZFnOhBapDa2BdAEcpHTMmOUg56G/5gDRPibeIypUnMA6xxJwSLrgmGea0pVK6dRaO0z6xsB3VtqCpwjmBPcCfQkvh2gJK2HgRjstMXBFCS9NdGgQ61cld4H2WjUDNd3HgtHB1S8OF9MX8toMOL4A7R/bWQA9RLQY+QAH83wJkGd41P/6Hf+NCAGihK3bphitCrlfIKRq5yNTlklmNNLr8umAvgkMOHcNAtdZCZ2rlOwtRZyl8o/06qnnS/KCswxjrcT9vb2IMcFug921Y1w58bNcHv/QO81IB/1zVMsFt3CU4KoUisH1wMG7ywHDLePwtf8+ZfCOz/EaF9GrwDOfIA8qkkZj/wTii0dHz4bSh9B9vGV4enbnwtbu/hezFSf47m0CNkSoMeTqlJG61nTBOiXHNC9LeEdAR2tC/sjG17QphU7hCAjVNSBx9Qc5+iRfTMcPNMPTz/9TDg4QCevHko3MG96As9H3nyTLGhsS2VqFnq3xgxJIa7nYTzrUWjM9ThyFNPLtqHYbtzcCddvbIXt6/C/b+Sh2EFLysltKCqSGuHJwphjuDrDPWWdLAdX0IMXoBPmmNuuxfAVsaEeosceh15wHwL4wcGBhqtM4ZV79yvPj9N7aQCMwwyktvw54bX/5X8TtosvgqzshnEf4InvzhEdaOh7bbCK9TdQzDT+C4NXcFI7xW44vN0P7dYODBfzzm3ONIwRGrPI15sEmpfutb0k27FK+M2Pv1HEO4F7TA15Ox1+zhRgAvSzyt7F2B9zAtACOG8DuOGZs6qi6O6Gn/ipnwrt7WsCc5ZQLnKGYkQz3vOi1YV3DYu42ZUJfDS+FbYeyTE69baeqzFG9Xppp8kLJa02dQ0OEaOgJIaO4eFP5vvhn/9vvxIGc6SgcIwGWsNW5ZpVKWlVNrmQNFt5WROgXwFApxRwWIAyM9FDr5qITKCAMaSADT1InBqgYQeEt0BZxXivGZ75ZC8cPTuBcsbsX4wStFImOnQABMycHmNqEU1MU7VLm3JJrhAr8knKdT+YFASHRrR2MG1qivKaMSc9cfrYVN7BY19yIzz6wmshu44BZQGhxMYA4M0IDGCOIyPhPWeYVMVhKAq318DcAZx+B0GdsuNAPhwOFUqkh94fosYc38f7rY5xkQzEiGQT8tVAznva3w4/9Pr/PsyHN+FhX8dsdNSfK5muILsJVcxj8lXKlyFSKFcqT4X8GU+SLOo0MeQFUSeE+Ano7JStELw6dlkOnZ9rIWyRQdH+7R96A/q/Ixx6AqDTc7JQbAL0lZFkAwdQZ0wS1JC+aSDqM8a953C1d//8Pw5D3NwBwujtztYSkTd2c4t58OkEKakh+rYVW1J9Yxio85yjfXs2bGXOFq3MkzMdZGan5D06OGMO+4EnzmqTGVjxDXj4733f22BE78EgOICxy5GuVf+FKn9vhqxFjNYH6gnQLzGgSx96Dv0EQKfnxHA78zj0zFDpA2JRJ+w0t0Pv1jA89ce38dMLswGnVyFcJFYy9mNoFg9E5uEq5tVd7ZVhdiPbldZvVTtlOaH0+31fByq00WQopjh5ERwKwb7pk0Y/NLdn8NIb4atf9VI4yiN1wWKJjWafACSVR8872J9eeKVQmIck/7xko5NwFvkXqi9HSdoQ4W4CrYBf+oioyBQNkdXMPkYAmvOtUMweDd//uh8LB08h3A5AzxpboY2w+wThduW5WQdPpnFUagbopiA9t9hCHp4mJfRzqfvGaCPLNDw/qeYgkVRHa4Dil0Ex8+etj/8AzgG5fRgIiIhGNr2F3BOgbwCF1/qVkHt450f9XhhBbout3TDCTX3bO94dWt0tzDnvhL4M3ZqeEpHaoJRykiNqORpB92Ffcj7MvkTKCmNTaZi25h28AfmLNp+eFIXQY38OprIA6IPhAQ6GZ6w4DL/wyz8bGl145x0Y0nOE7tn6Ncqn94A3kiYjZ+sD83hqa13hMx0skeLOtFwn7myT0ozUJpKGWJ7W5pOAztwOJxLNYIk2kD/dbV7DnIAifO5Tnw9/+nufDS2UBTUic5jkDgoclTUNUebcSWKqNlPWdRanyo02ahauvoaX+QgMP8+gtJjCNkXFgSVQLBgHSSB/4Vc/Fh79EtzznTmIP3uW52POkAQi3Lh6mNrIcOaxa54zyW/4nR45W7iyvnwMA0KheOWs6RDHuE2sGfMyIpqALQB671YW/tsf+B9CQE/2duMm6MT0dEiYGyEFBMIcO3BpItpScxtNpaJBSsCm583e8FCw2J0xAda1F0wXMOWgcLvn0Pm9gHf+HcbsWx5/PTx0A3e+b4F3n8CWQu6XWfYp6yT6ZphJTjtyzLG6IQ9vf/fPhVZnJ+whfdhqW2tWabGaM6Lr5u8cDsRUDgxNYiw4cIpyNVGtwWM3SB7VAKK4xVSjd9Acg9ORgwQ3Brm00cazgeEuv/ir70JU7DPw2BG2b42gh2n8snMcZD92nLMzssEv69zWfLiznVoC9LOt18l7Vyz3OqCz2YEY8Gx6wDArWgkjYx62wRre+8xB+PTv/1nYf7Iftls3INQUtCgKLGuCss7YMIRKO5YYmdNt4aYFVmZZgrGOa0nHOOsKEHB578iLyFgaBqVGI45h9kHzKGSPNsOLv+6F4foLuuFoZoCetaFO4MlbXtymojmQy4jDxrwgDTt2fhOg9w/1b5kMMTxvBoCdcSk/bBbDHDoNzOk2vPLnhL/1X/1tjIF+FNF55DXB28j5nWDGM1zP/L1JsAaix8uHFxUBnex8lr6xN/ycLH3IIdn8DSlJm33N0jkaBD6QhTZGDgDPAeg/xpD7HD3kI6B7WZOBegL0s8rbRdqfZlxB3cYacMjbFGnCCVIzb3vX/wSvGaNMIRtgT5gRx1R4CcrupEAKVPoIGYJ8yX9BOoqVGk141QT0VhMh+9LYJEnOerKrCoRRzFlHz88MnxmGPUTnb4d/+s/eFSbZkwL3OfYXzwna1zz9Woe4ZV26hsVNgL7mkMca7skZD1EBOj9IUOdmbTRjTSTMTpb7dMCIbh4V4U8/8dnw5KeeCVuNa2GO9zMoSik6KnjmIKEglZdUMxB/DJbBPOaJ3TOLkQGPEKRXi5Tc73XgvWZlAolmQDopF1WAMR+IMPut8TPhy1/5ovDol4NUBo+dyopENiorhhtVmhYbbjiYD2H9aagKQuxkwhNAnRRHMHeDTiF2ujSG8nrRryzLoWGIYSqtyaPhv/72Hw47jS8FCRM5dDjUGB9tnAxwADhPmuS+ckhMTNWo3pf7UCahDDWmFWkFhkXpWbECbgKjQMNgWExEsI8Ut9MAOjPz3FJjmTOqmwu0u+IySBmpegeG3wCpwlmrHd79C78YemP8G0JSB/Tq1CtAZxaePRJY/dEumE+3Sg12IaQoUu7KdBCNyDiTwEdOszcCSXXFdgeEumfArdsL7/1f3gaG/JMwLm7BqGCqC98cWywzGmrbCc7RGtY2AfolB3RPV7ssGOnCbysEXnqevF7Wr7XD7vRG+L//j3+PcZRoozmhdYl96iGluwnVsc5x1c6aPqT8VHp9UOtQkbmMDBZhUoAn1jfvB2pj++1b4c//1a8O/ewW7g9CjMyTAxxNVKwtq4ARaEwAJ5gfolnMYIR6cYC++zZVeLAa2FPKH8PmxProB/H9FgF9/Eh43Xf9ONKLXwxAZ3rHUgP0hmbwwscIbcpTrqWMnCrkas8S51XYs8yBxrAl92NpkXlikHQR4uohd3roLDeCkSD5tLC72Pgxl7oGXZoO8YBXQIAe/Y0ZIlNIqsA4LMI7n3gPXsFwh0zwPpfdMmPumx+qGm+ZYyJHqCxNszJH27wDoTlH5KHw8/6Mk4xMDogaGLP3e/50+MUPvB1Bz08rnz6RN09h5zhVm49u8m1k0pRDrwuNACRaW2Aj8sZNYEVRaxQckxODeXyfVv4U+WAyfY/QBejDT/2b0O8e2GJf4k0tP6NUu0fIy2FzDubRzQNjiBJhdeQvt6ePANB/K3SP0Bt7grreOFTgEi/BQ33qLr0GUEa0EWpGxjklf9jZD6/661+GZhnPoBc6Q9yUDWt5KWY8yHSEVYbWWdOrCWkk2gHMSbITsJamvz1vZaid38fojLPMdXQqWpzRtAtAfzR833f8eMjGAPQRQu4R0Bn6n7IPtiJJRmSzZjBx3Gu8q971TtcT+SKujG00jDGINRc9hlf5/omAztCsriMB+lV5aCh5lh8HoAPACejvePd7EPIGyMrItMYwvqkpTAT0+pApRZUk2Et44D099B32fJns23Ogvh8yFSFT7P1ePBXe94G3oW2sATpNa0WO0ENB0U/hVQR0Gd7nHIx0hxuYPPQrDui878uA/u/+998UoBcIF929TeFVeeyv7nXcC9DpaAzae+EVf/3FGjiRx5ryOWrRJ8x3ww4YoPyMIE5AZ1maJqThfeWnFeO+C6DLkWGEwDx051i0EAUgoDfHN8Prv/PHAOwvQP78Ot5jJQV0I0KRKotT7pueSyT1LUWBRB2KIOxKVHo1GrFKDdUAnQYMvZ8M510gvv/WN8YcOn6P1KgI/CnkflWeCskHxpgioQRAb8ND/znl08cibtoAIYvMeOshMzqF32U002vE4xPlAL+wSE4KrgDdmxXNmEdHq9hpboA+IqC3CeiMCtGLj6Q4GRQ2JdAiaQnQqyVOHrqIGXfz0OuAzkYy3TFD7uahJ0C//CqtAvTqX5WHDp0BZD7Ib4VX/TUC+rNgmlsIkmxgkokmyJcfHO6pUYxKF+GVMyfJgStiELM27A6AXoJwBHRvNkSwZYlYE2HGDID+OgH685VDt97XBHSUBWkCm5WtlWBdekD2jkcCPELAenJtDvwx1WBemKUdGC5lqVqGOk0Cuv2bjWoqRn6pSJ3oeflF4aG9AqVaBODsnAlAB8vdfldHAsmQQ7kbdVZ2xtB55H7UPPP6CGqZqy6Ex1bYPHalcAjo8NCn8tB/GoD+mdAo9hUBVQ5egB49dEUIEqAfF9gE6KcCdHpCHnLfQme45KFfRd13MqCD4ROO8mfDK1/7kjDcuh06ZMHDA++DQMQuW0cH+ypFI3gLJyPRvOoOZ2u1HHL3FbTwt3nodaBVDh0eejZiDv0tAPbnIx+G8rkS0EcCdLgx8bNEeesV75sBul2XhVX1zsL3VMNZDNBtbnUd0K0OPUNdn1rAlkdgiZMfs/rOqygZV/mavJ8AAZxhb3rmpwH0aC6eOJhooUyNIlILxwv+a+BvJcIR0HOMDY4e+iT7jELurOLQRxKgn0IME6CfCtCVW485dHroDujt2XbKoZ9CzC7HLpEzsuC5Um2h7zpC7a/89i/D4InbADYMR0Fb330MsOghxD7GoBR1mYkbZcUZ7TaE5eSQu++v1r8xh74A6CijUw59cgMe+lsw2/y5APQdee3CUbbEpMdMRRfz4wbmPq3K56NRhdbzmjVQJ9BLw9Z6s+NYXofODnFvfpweOkPwFaDXJ3JZyikB+uWQ8eNnuQjolAeG3J8Au7zKodcNQ8vUxPvt3KPSsHN5WpQHn0x4jDynz1lrWZnDSCNNiyfD+97/9jCBhz4HwLNJk1JCAvSYKXIPXfK7Xg5XyqGveUEf9INxmpB7RKTnYwAAIABJREFUHdA7o+sC9K0eGn0kQH/Qt2v937dAgIuEOH5L9CII6IPOHgD9JaGXPYNe/ta29XCIulkQ3jiIb6rhKlb+46VrrPGW6rujhoikoDh5ykhptpkC5GhJ5tAB6N/1JgF6A4Auti8VG0rW6KFXc9nJBjbCkjaFOen5sxFNnE4lYHdl7OBfW9IYGmVonSF25tHf/Pj3W9c4lmAy8Ork5WgkJA7J+kXyQR7RCJGs6EDNOSs1GiDFAdDZs4C/O1FS5ZblVrHjvcazHEUdG3JV5Df7kIklng+R4IzEabkjRJrwysD6HCH3WfY0AP2dIOV9HoCOtJJ4IrUIVnWw+7JMCdAToN8XwUoHfUArUHrkMQ9depxGBGLIetC9Fb4eIfe9+WfDUB3f+hgeoV5XqGGnXqpavXqoXWqSk/g8xH3scgxYffJU6WlEIGZdeUMe+rXwur/5Ixjz+gjcGLTjVB0uAN8BXUdh2JLh9ipSYOFzzLKaFgBhNP2Ax18ykQ3x4+fs8+7FiynPzGns5f4jj/+ggJ0tRqqcv13Murt0PaA7nr5maQWUI0dqSXlsRCLfBZY7f4dUV6Q4SUmsoIjPjCoqII9e4smObjPIJccOUx75b5NN+0IzPq1pEjdjzHPAAMcWYyfm0JHe+qVf/QeoQX8av5P4qUr3KiVlH6zIIW7ArumuJkC/4oCu8Cn7d0PgWpNCpLgP/YsPh93hI8hron/xEqt4TXKVDvOAVgB6SyFytq9UgF0uqHWPIxhneTsc5s+EL371tXDY/AI6YbFVKjqw8oMQjEbJ/i5d11OC3fEwdcVGZ7qbINxGp7gb4W+89nvD9a0XhlEPTYww3YpM+nYHufwxWnPSoqDS4wx11vjGjR4+GfFbLUxbe7YXHtl+Lia1YcIax/vC22K9vKausU1xzejwjLvlyyfhTT/8xgjw5tEf158bVYEPSEqu7tdYt0BOWkOvgQ5KwwDoP/OOd6nPAv8NqkgpHTRu6/efkZ+80VV1R2e3HfpTNFPCjIDtR7bC4QiENrRQxrjJJR0Za9YjLregP/v9IwxEuobnDYby9Mnwy+9/IuTdfjga3tYIV0aZjL1R3+qcl8Vnb5W7tVFpTq1fV7l19tl7hdwToK++xhf6CORHaAA526ISwq1hBbv/8f2jPrq+dW6FF73mWugD2NlyVVWwUHhs69YAIJpqOS+g25CT4yFKKE96Pxj8c3Pn+RiBijw2+mVzXgCb1nS6ucB8HsdbEsxVraFac+TBAeYtGATjvXn4w4/9Ech16CMxACcedcYEde90N2UL2dIKMCPDZl1Hw0Zh9qpMyTvD+dWat7VRNXihxeuin1yO4SgE5J1r18EJ6YeD/iDsXruhGQBDjFNVn/cFDkatLkQeOio60NK4tYXxpwTw7ix81dd/OcrGITPFXFMKNbNc5DdWbsRyR6WV8NTAYuigXzx5KQhDoXd8LxwOngzXHi1wXihbE1nURwNHK8DTSVrcWpppDYu9UUlOgL76HUyAvvoaXuYjeLhcuebonQvYNV9nHvYOD0Kvczu85C89irK1WwqvsyMcO2mRAc9eql6Te551KOt4od3KXv8xBE6wxGR2zF2H4hu3oPi2FU2YgqDGDnaT4QgT/TB0hWpNbTUj016ADu8ejY+2wo3w73/jN0Ojn2lSYAEWM0PwGpzBCEMZYasMEh9xadfjvpH/vZaDl1JOgH6e+35RPkPjbabJRJhlUBSSixFGPhddRB8Zggd3wpsJLZ8zDT31S0SqZ4Se65x/MO9Owytf/fIwLoZoS4zWx5i6xhC8h97rgK60EozWdr6lNBZnJEwwL6GFwUjTGacSYgBRsSuD0YyKOkfEW8BWUwXXsaYJ0FPIfR1ylI6xoRUQQIstjlA08FkDJuC1DhGeZmh7AsDuo7/0S7/1OWGIVwf0CVulMn9+Yhj6lBcTPY3SQy8Vn3nIMjYxd525xzZC/2MoWo577XTa8s4ZNifkc6PSLEcBY/980gaRDuNXMQ3ww7/xW2ELg122GyDVsdi4Hu1XDbtvsSwtdpTT9ZVkqHoEojpAAvRT3usLuhvlrNPphGdv3w5bW1sA0bFexwB2N/pk1pV5cL8QqwlXpj2DNx/Y5W0Qes398B//xW8IB+F26DcO4bkzmkXiGz9HmTYP3chxLfAz2pBjRLkwDKbB/gv5CD0cMHkN8lzAwBgNLXpWVlOIJ+I5dR4jAXolWqlsLYXcL6iieVCn1WLcD+HFOTu1AdxnaKYyhmcwRKh9BBZ7E0MrCOhf9lcI6PsCdCo3TginkuIwFWtHubydopxGWs4AVSHzCOiVV4wIZhtKFoaFhlopOsB90dCG41MzjKzEUAwBOobGOCmOSjMDoBfj7dABoP/2v/k4AH1XVRnjI4Q1EXJnAxxxB0pmm+XInQfvr8vsZrvKWkYzeegPSlTvy/doIloc9aspkWj56oZsE8LdpJVb26oceiTIcTwvduk1jiCsk3AEQP9P/tKrAOxotNQdIyt+JEA3GefcC0SFSkDnICvEg4DRHYxr3d9HWWhOPggiUJRz9UTgPHU8I+IqEbwj8TOG4lPIfeHupF7uKeR+X/TEpTiocW6tX/8MHsMQNeXD0RE8hqGVepGlDj3S24qAjsYyDDOSkb4uQNeUNELkAqBXyzdGeRxTARrHixq5AjlNeunMdxLsmSuvA7oNvQBgY5BQAQ+9M7wWPvJvfyd0xrvobAjlOIBPDyOF18zcZyN2snMwr9z3OHF6oVzJzqsavKHfLsW9Tid58gpQxgnqRdFB++LD0EY+W8OHYOy120U58peflokaSxvN4eaESQA02hoO5kdhvjMNB/Pb4VWveZmAfb4FL5+15azIqDHjbd6AGbwjGKZNyGCLqSOmr2DU5nlL0afREDNFsusmYwJypgYi54PPjUJI6yPEbVyaUw599cc0Afrqa3hZjyCVAiUyhwIbj+ZQIgPkD3tqBkPPhJ7LBCNV3UMfbN8Wq5059Alyjsx/W/68HoK+02oc99jZEtNLeOhdL1ZMyBWX4mPokUqWY1lnTO7j+1vwpMhWbyCEzgyjSoWgOElAYo48H3floee9bXjoH4PzdD105iDVTUCWkwEzkzLlcdRnIaYO6v3aTX8z5Fmdu8F3VY+eStcuq/TH8xaPQj4zwBuGLP7V6SDUDUAl0LfzKiVTx07NAGDAndOBYGhOUGI27w5Dv3UYXvHql4Veaw/tW/vozz6+A6DbMKR5hmcPcjjGuNY2GO2aXIiDi9iJNrRTtNs2U4JDw+Dpc566BJPndYoo2Blvz0bN0wToZ7xbJ+yeAH31NbysR9BgCLDERwhpD5AzZwmXZjkzjg4gZ6/2FrzZHkLuL/krj4YBPXQAuk0lXD+gVzW7BubWWYvd5mxEa9HGRCxOewMA5wB5pgXa+I/XoTGqeN9mo6O8DSH3NkB9G62Kf/s3ficU/W10fON8dc4DZkQA1wZiHUcDm1df8QF8YIa940oz1g5HMK+z3ROoX9YnwMpxIV4KtZMcl8GIJeu923VPveK4LzrDbujhOYBIkRTH/PkILPVv+AsvD0O0bR21emFMoFcFBp1pI1G6IUt5xQBgySEJmvMpQ+1g3aNxUwfRJ/wKCWRnxGUPPfZNiHXt61z9BOiJFLdOeUrHOuMK0NusmrlUJC4R3WjI09qv7cN/l78DzA9u75nPKQC1TnEMKbdiaBEB79Df2g9f+p8/J9BDJ6Br8hTHrRL4T8yfn+4ibNypqRAfEFSCY3xfHHJeixrHWJtVH4naQLOYYmo5zgkORjA3QIeCnmYA9E7YGlwPH/nQ7wHQd0IbneZU3x5HAhOrbWwsm35UXrqdfTwvAXrdQ3fwt6iE4hMb1YKnW+u018krUBlstb8v9dZwIK+6BEpiTErwLNBJn2QgkgK8h8VBeMW3fA1GDQPQc+bPEVWCTFrHQptnToOTw4doSFJercOhtbHRkeNI1XK+gWSsXp5W56ys10vfqCgnD331xzR56Kuv4SaPsPw4V6xskmpYVW4kGn/f8uUIX8MrH6Hmlm6ADAIW4Cj0vAjoBPqj7f3wJd8GUhxD7vDcPdzohsEqeTybRGXGxwIw3gvQoVDZB57AzQ1k+BMAvQ1AvxY++kECOqcDohc8x68S0MFLNoOkPga13jjGVZv3hDeanOIGcUhLAvRNSv76vtu95/pgn+WjH09VGynOmrYhfQOmO73xvgM65h8Q0CetcTREmfO2joX8HGVX3Q0ZXxJYW8c4z61bSL2CV9WyS+Die/q96nC4rtVIgJ489HXJUjrOOVagHIRywmcNvFlvbV45gZxhdeYHCehj1HHnmZkEmwN0O3Hzut3zsJB72f+67OLC+c8WdfC/cz47FduY3jZBXUZJQA165aEL0Hs3QputZNEKVmsBNr+OEzf9s9Tapijr3bnkycVyNn7EYf54B69z3MT0kQ2vAI1UyMRdCGbH/GDKJ+VAwAwwh8vNnDk985d/y1ejZ8PtMMZwFYK82sDCYCa3w1q/AtCjqJctj9VDgcZ3hNTlHLkDua/Umslw5WE3eSeSh7766icPffU13OQR6oC+HHo3r9yGpvBvBHIOViG7m7+3aIzGSWmbBHQH8wWdpXyj5dGthzo9mQr0zauynusEWs4zZ+hTUQYS6dDKliH37f51eOh/EHJ46O3JNhQpGsswDoGBK3DXdes8uB5NC4d4OUNlW5m6Y6RmIlEj+9jXTQpB+u5zr4AbZvUDnKYI0/G0xRbJQPUJQufDHFyUNkLur/4aAfooR9gdoXiRNVWeaSRPNY5zIqn3QSjbFsuylNwbGTOaEgnQT3GPUx16qkM/hZhcll08b87zZX25h9nplU/QxlJeOcDcJ6ORxT6LrU83Bei+thq7KtCMnbmYa6Rqs8LzyIZfbhPLtrM+AMMAnaDfgqt+J0DPYsh9NgejOXrozcg3MHS3KAA3A/QYwViIRdZZ/Yt1ypdFVtJ5mnddVWm4bC2adb5Ox1JbCu6g2gKyphw6XG4C+hBeOXPowwKAjvD7GCF39UhQxCeWq8notPTWcab6Un7cQT0at2VFSfLQTxDhBOgJ0K+IZnNP3UGc6oPvsfRG+fIBQn9xxKnASt3hOLSU88M3F3KvAN2866p0zdjqzgy2XHcFrmQOq9TMJkmrNl7heLwynJmDLNdGLXoXdegf/eDvixRXwEPPOH1NpLgRAJ2KdTlryBa0lVDUwf24qvcowhURoofsMhzQvarB7/tyVEbQvVDubSF6iQlr0QXoSGVlSGUR0F/9tQDzfYTc6aGzDp3Gqjo+2HFobGvSGsly5oUr5K8vsohTmR+XQVvJvhFXF05mrXct5dBTDn2tApUOdvYVcM+coXV65g7k9MyZJ2eofQpg1981nQxqgT2q8cOGLXcCdJHHoD/uJynO0ZNKkUx3IwjhXCNRTp21NBudSs1rggn81vLSnGycJxUmL00sYgK6tX/tolPcRz/0u5hMCUCfWiMahtyhfhHB4CEsvHlMRZb5fPtLVaZWGRX87H3UrWcXhPSJM61ACejKg0dfXcZt5a0vt3w1QLa0joGrlVFi1IAIcGMQ4V75zV+HcDu888hyn/KZjLPV3SgsJW6OOvPIfldEiI1jQJDTXAIBPqetxRC8Sbq+1+kfZQ7+TFd+550ToCdAX5MopcOcdwWWAZ1ALq8cQE5A56YmLCpfgwICkHuby3Ja2RLLHRCqzz0oQOd3CdS9/SvLeAiYZAUj791Az2vrKueKdFQ2kSEjmICuaVaRecyyuwLjftujLsrWPhFawy2A/JaOQWVqgG6hfCtdss/7ZsdhkDRGAmqIX28HmwD9vFK7+c8ZoNsmaqW8aOdiLMqDnqEoA2WrY6WJvKER2iHDS59k/fCqb8JwFgD6hPPNmT9X2RqPZ88UqyQqDgYBmzOMrV/7HPXss1ZfrzRsK0Cn7DN2QA+ebHg7b0sJra90LQF6AvTNP5lX+Aw8lM5LLMvEatfLVtME8AZ6StMDJ1iT+FaG2MvWpbHG9YRo3SZD7u5haxwLtYlaXFrIUeF2dMrq5jdC/wAdvPLdMMUgiwwNZoajA3WQg8YU4YjhTJtXbddZlrT1GuGTH/3j0Ht2Erbz62FGBwgo3MJkK7a6ZeMcfjE/6x3h5A/FHGcW573z98orklqOd+EkCtUVFsgrdmnsrD5FKSanq/UHMIDxfGQY1oK31CUR7dpqV+w9CAxKaQZMwMXI8dl9zDRvdTBDoNsIX/6yl4Rih13gcDwYjjIUa2Vo4mzEsPoEh2mjicwAo315rPYOvP0ZwvWNW5j+Zi2Z7cFwQPfyNpPBBOh1gUw59JRDv4QKyj1yATynPXGoBL0LKAp2uTo6OlIHOJLemCe37eIBunlI5r0wm28ecpUjZJi927oZ/uq3fWd4ZPdFYTrEQJVJA9OwoHzHh5oKV7TQSUvejwZZatOwSQFwM1xvXw+HT/cxk21HBsFoaDPfM7TrHGGqVZNjYKP3ZOlNMpGpKrF+OMabf/gHQ07ugY7n4O2KlB/wfOclFKR0yppHTjDf2z8EMKP3/8618Hf//k+ivzq4FgUmoSFVZbzzmHqJIXcrV8O9Ry8DzkzvgXTKHkVDyNTWNQw0msJDn/dwHB99anLmfRfE/aCnjbLRA3aG23oEk94w/xwtYz/wz98bbvc/HVoFn2HKtwM6S1DZy92NywToiyKcAD0B+iVSanUW+zL5jRPTSIAjoDPczo3tLOec9VzbFrtdRajfECnOvWDlsJFLtJBkZXgwzN4Y7YQ3/K23YFLa88Oox/w33lNuHyBdsF0mQp74FA2CKhxvoUkpXQy4wCR1GAaYK43v0MhV7EpbB5Ov9Un37qlwFRXAEVtztAFFeuItb/x+jLiEARABXSH6Gvs9AfoleoBOOFW2XNUQItz1PseYFt3wxD96bzgkQLMda4uh8Bhuj7wKpWIE6BxeBFDF5xsBaSHwU8Z43mbouT7BnDW2UeYkNpMry4Vb4xiTz3kT3ntrgO8dhp3dx8LR4HZobR+F9/7ST+IVHRzBmh8xZHAM0CnblldPHnr9piZAT4B+wfXRSWH2ejc4kuCG6PhGIGfo3SdFyVNljrgswrILvXiAToODHjoAvSS9Wd15a4qZ5rNHw/d8x5vC7OiR0Gk8GgoMyxj0mNsfoLe7cQLs8+bhV+FMy31nVNiNjuaqw94REY6jKVmyNmUtOrwkMwi8Mxc70FFho3c84vNvFaCPAeiWt1T0tFSkXOTkoV/wR+iep8dQ+41HHg17h/2Qbe2Ev/vTPwvvGA2I8o5C8MZ+tztfkeL8fUxkQ90ayabsCQ/8xyx1pnQgUXnDRv8qbM4hKxWJkibEDHnyeWMQGgVBHlGnCTrL5U+GX/5nbw/zzhfC4fCp0MZYVWO5Uz6Th373m5kAPQH6PR/3i7VDHczZ43yK2eUc5kBApwdPb8MaycADwO/1/U+6EvM0DNAefOtXI51xm83blscmB50hbwF6N0wPuuEHvvu/C63xFwFYr6lDJrMIGEwFxQkw9zJwznMXa516k8hrockGLo4zp6cYygL/CKMprR/XhPX3yNcT3LnJIIgEIwI6vfN8NgKgvwGvEdA9qK8SI65XTBksGU0XS2LS2dxtBXKEaziEaAJ5owk4BPi++73/BK0GEW5H1IudDrwc0ngdJl9mGNso4Sn2yzPsP8LQIAxaGcG7b2GK2pRygyiZ9VIwroZ1JOQP5ROgjvJJyt0Y8tm5lmHIy2fDL3zg74dZ+7Nh1ICXjlQSwZwRLLVlRlZeoXqQRXUGa+ZwJVLcmhf0QT9+qVPcg17x1b6v3sKVLkHvEGwx9mKvN0chQMUOcBcd0E2x0dPmVCknIFktOQF9q/Hc8D1/4y2hMfwi/GyFCdrPY1x06HSRr8TI1xnZb/zcMtkvlrWRLEhAn6Hnu5QVPjujIQRFmmMONVvjlh6+vp9KFwoa3rsDOih4YMi7ajdmsYX4HdBXu6fp05tbAU44a8HKG4Kdlnd34CWH8I6f+/kwy5AXB9+iCU+dFRT1zUfsSug4SQ1AzXnmHEFcFAjRa0ohjUakdyR1Dug1Pnps9ZoD8McwBGA+otscwL34bPi5X/kfQ/vGUyC4o44dnBEZ2/i7ydvYOCIC9Lu3qz3PqiZAT4B+HrlJnznjCri3zZA6c+XMBc/wOkX+jYQ4euXc6G0YuFtp2p03Q0DrYb05D10KkaeJfLl56HSAmMNmNBsh9/HN8J2v/eHQmb4odAHuhGVi8Gw+wBXCGAAoU+FxklWdeQ6fR8pWxEBS3KAAGRLl+nFtGBplmHQ+5oAM885tUMYSoD/+ffDWCe5jkeLkEYlEVwF6Kl07ozBfkN1VC85xwHidcRwwvOwpgPnvvf2doQVw5+9DcTQscuSzBsqpaGzMhKEsJKDOIV9ky7NqgsY05YtyZs9i5aGbgLP0LNaTa0Qqyis7zXA4Rvqn+/nw3vf/ndDY+rPQmz2F42wLzBcAXREsEl59sMuyNXv+BU6AngD9/NKTPnnqFdAIUSgIKo3RiDlzNowZgLkNNi7zfNFLn4N16z3cl732xS+7QIDuCs/D/nGUKXPo2fhG+L7v+jE0iXlhmPW2odo6ZrhM9kK7m4OE5N22OPyiVlUsD8iG0YBKDIOnIG/QetijFKmBevfJGJ43lCkV41QVAxbGVEDdQ+4AdAu5V4CuxiM1Dz0B+qnF+ELtaCYcIjiQhyGeq2kzDwPc1/f8wvvCPghySKSL8GYllZWxSd6EhdwpUDYXgfLVbJgXTZkzULfKk5LUVuaErH6dcpbjuKMhP9+Ghz4OE4Taf+V//ZkwbH4SjWoO8P0FjkEZjR56mUoCNyQB+pI8pRx6yqE/YBXjisG/lmBQL0MjyU2qIgI0HW/9Gx1eRmMAeR8MWoTy5nCrydZeFUw2n0OPpWBkuUdANxYwIBOA3oKH/joAejZ6AaLz163JDL13zJnGjCtbRpUDGUO93Nikg5CuZiF8rfsetsZksisSIB4Bm9NYeJQRAgK6keJeLzD3enRT7jXwL3tyP2BBSl+3hhUweqPuKR60EaIuE4D4O9/9HjSJKZBTb0VDr5ItzeBTwyED9KpVsdeL8/16iN5JGiZ/ZnOa/LF0rdlARQobI81Q+56j73vx+fCLv/b30JjmTxFy77HAEoYo8++s8GD6iBUssVNdaSCsYSniIZKHnjz09UnTQ3CkZUAnUDMsXLLZEU92chvfJ+lNI08B5mrhirCclEHZ+W21cNuFAXSE1wW+cUSpFCfea40fAaC/NeQA9EBA53AVXj/abGIcBv4VvWqFIQnOlTK1dpumRKWCY9lR2fGLRgNAndtUdeynA3Qm4p2RT6W8XEnwEIjxlbhEb/0q+cD9HyK6xZD7O554D7xl5MRZtqZ7bSDtfRMM1A2Y7bNxOcoI0TKoLy5XRd4kL8NIcbPZFvL2eL6LzwHQfzICeh9cDxq69MbpoS8B+n24CwnQE6DfB7F6eA7JiDHz3+xepk05XgK2MdTZ8U0tXBFeZ+6c79n+0eJfIsOddeUuCqBXLHdTllSa9NCbAvQfBaA/Xx46e7FrfTjFCh66gFgtXK1kbXHYyrKnVHV7s9Vj6NOH0xhzndvJLHeE3KXapc4XwvNeO3/WtU/7b3YFKPsZo1+UBKRlwE2Xh05AJ7CPZBCyHHKpW1wJ6DQE3etevhb3wk3Oqs3Ng9p7pYeO0lMA+vt+7adQvvYn8tAn+JtxREzuSSK1OnjjcNxthvt5VjcBegL088hN+kxcATa2sNpxllA1QxbJbWPkdznqlICu+vI45tTB3EPy92Kx32uhLwKgi5QnhRXbW0ZvuwUPPRvdEKC3xs8HuF8DoCOfKEBHz2tCOvKWDJxad7io8/RaMeZ9DbzUqFJaNrJVY1fLGvgTWO5OiouAbiqa3ltiud9Lvi7y3wXoEVenILORP34nQJdIxehRjPcYoCoF41fpIO2CGI3zssPgYjDegN5IlhPkyefo/T5pA9A/YIAeMLmNYX8S4hpINTmgmxwnUtxx2Uo59JRD37DGadELEKBbDTkBWiNP+z0LsZPUxcc+evB1z/w0deb3urxNA7qHwQ3QnXhk4XOWrZEU97rvejPY7s9HyH1XXrtC7k2ru58B0KlU66VE1jvbc5aew7QCospbqjwkpkEsK2p7HCtbqwG6OA/af6O+zL1ua/r7KVZgoVEQCCmMwRDY304PHTR1euzkVThoe6i8YrlLWhQdcga8hd8X02CVoemd4kzS7DMWIZqR4MZhLsihvw8h92n2aaTNe5IzhdxnNGT5KZLp+DEDeBs5vFrarb5UG5XqX/+X/2o+RZ7RKQqnuIeLuyRAT4B+ZqFZ7wfIXncgV64cIM7uUhOUo9XnlxPQ3SvnGXjo3cqwzr9tHtC9Dpy9rmMpWCS5Wcj9Rnj9d70ptCaPheZoF4oNgE4CXAvEQDGISRiy/HhdQVZq1VWUKV4Bel0Blu6VcZ6VRRcpzpjtbP1astxjqDUB+vnl7eJ9MpIm2WAmAvo7nngCnjqIapBHn+JnREhCqofSWQvOfgke+jbZ8hSO5LG8WMoew1DsQmjkuYpUZ2Wb/C4COAH9l97/Nnjon5aHzsoM8+Kt7tzGp+IdfK8iWzFltK51TYCeQu7rkqUrfZzKg1y8TGe4E5g9xM5X977ZotQeaTZfqRrIXBVSnEZEYlPJWKwl18hUzoiedRFqv4aytR8JGQA9TADoAHkpNo6k5IS5qFAJ0ho/qRrfen7SPXPz+g3Q+XcqRihWtuWUejXF7oDuvdzf9Dhav4rlbpXqviUP/Wo8rsJZxncE6IBLAPm73v2EStgomR69WQ6rezdDGpjWy8Hkz0agTvH5OqBHUGYkSShsVRmSxpiDn+EY84yA/lT4p7/6dnjonwOgY8gSu8lFDWABfpNvJ39a74T13Ys1HursJ5U89LOv2fInUqe41dfwNEe4E6Dzswqxwyv3kxUPAAAgAElEQVQnkLNJhW/qChdZ2ISl5XC7h+lP8/132mfzHrqXrTnL3JSfzUEHyx0zzL/3b/5wyKY3gf1oDxeHXDQwZ1pGjzwXqUboSalg/aZZ6vhba0qGMI8VS9tqkLzIinffy7wwEuMI6m96/If0qmlr8dgxM7rKsqfPXqAVEFMdgE5QJTmOgM7fVSmuRkIcr8sTrgw6GX4sHYWcEvTnMEynAvIJvHv8m6RNgbsod5JpySU/IzCviHYWcsd3MOqU3Qagvwss+6fRSx78GW9MUyoFDmapDNbU+rUuSCnknkLua1AsJ01B0+OPhxG9JRY8aw+vyxtHeL1/hEkjJ211L1MAtYYTPeEQmwV0es2Lme1KAZoX0gIZSLXn8NYdzLkYc0y0isnL6KH4AqENJ5SsmtKoMc12+O1/97HQGhbwtGEgwKPHUdkgTANaGKZXqL5ew871ZuZSBgNfLZO5uLlHv1rK4/7c1XTU06yAl615IJ3gqB+ZbgbmEs+abLi0+nNjhiSaFAHIpyBqTrJheOU3vUKvE5ZWQk75dy/HtJy7gzmjRVWESvnwZh/A3sf76ITIKBRD8bXolfdoOM31nWef5KGnkPt55ObKfqbOOreGMKDWxDpzXjRD68yVn+SRLyzKQwDoBPMqdMjwoylHU3I22crHRBrL1/Odvo+x1GU8OWkQb5AJn006oQCYt5F3/8iHPgFA74b2tGMGAkuBIqDP8H1qDhLHopaGU+wG5r8vAzpDndxSDfrlfZQd0A2cPUJjIWy/v6UnHQWt3EufMWOQ3jjBewJS2whh81d988vDKO/jPfxkBHWk0ChjHipnyF3LVgG6V1kYyc3lm84AU0wVv8RJnVU8ab3rnwA9Afp6JeoSHm0ZxHkJHmIngDugE8hZT666cnjo/L21YfnZpIduIW9TIdagwzzmet2uAT7DHNaTXTlPz4HXyohMEVqenKH2YtxFu9hu6A53BOj5oBuKCOgZjkUuIWv9rdOXefdlw48I1XVRLHOoJ3jyl1Bk0ynHFZAvzvkH/hx6xCj+7rluXzA38Jy5Tvlhvpwe+TjrhyFqx1/xzS8ToBuo4zlHS9cFQKcki7tR32IDm/IZMC3icl/tyebvHsZnFMtTTuu5pQnQN6yQV72NKYe+6goa41yA4P3U2S88NoaxUabzcqCKN4gpSW/3KZR+2qu6OIAeG7wsRCaOt9MU8PPi4n4eFi9D5/wTlFw2aYc2QN0A/XdDPoTHTkCH9y7/CB36qkf3pLC5+1CVwWE3uVLEyTs/rZRd5P3u9ADafTfgrt3zpd0J+JY3HwPMCeiHAnQC+4h15QB65tbLwS7RQGUu/aStIt+5IVsDfsk8Ad0Gu+gxWMrHr7rSCdAToK8qQ5f78yDPGDnLJyvZ5Tigl2A+7MsrJwGuXnMe61I2tgYXC9CrELp5J9YBzjcpO3owVGfRG8/RFYZeFpWqhUB5L1rwzjmpjSH3nfCxD/4uQu6dGHI3QJ8hia5KgXh8V5u8j8Lt+Fw7mz2F2Dcmovfti43hXslSRMj6S/zuk2GOYJpPyZCfwDsfhiE8cvfQCe4jeOwjhtyZRrKjGgDD4LTpgAwTEezd665xZSTsi+Q5A3H7TFnJkQC9Jh+JFJdIcSuqizJU5wARvXWG3Ancg8HAgByd35ZrxuuAsuJpnPvjmwR0nrTlyL3kzC9jEcyrml3+3UDfa8YzsdgZ9gTDGOxiATqIbyTEMYfeGV4DoP8OQu5bqCdnDh2MdwF6HC/LmnZ97WJZmr1jSphbHdBT+dq5xe1CffBEQNctN/7G4nY8a01wzhQ6R8kpAb04EqC//NXmoTMEPwZzfday0jMbIMRyTCvLlIwR0FmdEb1uRX3KNJPVqztH3l4tkmWjfPUErXVNk4eePPS1CtRlO5hKVqKHXm/2MptYlzcCurxyDF2pt21lEtdC9Rt9hBRS3Nw89Prddu88KqhImDPiUsxzxzC7eVUG+iS4qewHeUp6SgxtErQVch8ZoH/8gx8HoMNbR8hdBgBZ7mqij7pjTWOz1rH2PSez2f1MY98wRWQE9Klr3GV7ZJfO1+St7FGw9Nd6ZLwkYNonYhUGPg+ZG8lDJ6Aj5P7qrw2D9mHMoWMqIImX+g7z0FVOqYeOE/446Y2yh8mB8NSrkjTKt8mlcTtiVUWNvGm8k/Uu/5oPd7aTS3XoZ1uvk/ZOOfTV1tCnpLHjmw1UQYMKgDlZ7CS/cZqaWruiqrUO6FQjqjO3VlAb2y4KoHuOsV6va4rWlJqCo3cBdOYwGbpk2F2ADg+d+fOtwfXwUZDiir6z3Anosb4f6z9toIe2zCr3xx3UPS5Q3Zq6J+8enJU3mYJf9qXS74u+5cVbDwfy2j2GMFiJmU3+8/tq9d58juv5dAIzUm4E9HwAQD8Ig84+AP3P6d8kxbGUjVEjJ1waCZQNZqzzm48MVge4ZUDnHjqf+BqNiPL3BOhLejOF3FPI/R5Q6oC9XGtePlQoS8uQRydYswnMaIgmMSPLl5vnvjGsPtUXXxRAv+PJ0gtf6o3tXol7PFSoE4Q1lUeXEZAhfw5CHPLnW73d8Pv/3x+F7DBH+1iAtwwsTJkujPswl2L1trDxLE6oSy/PLxoVFcs5/iW2n/U2tOnVPNcLvQ4nCJ1gW7jA8jU7f/UrgNDRKOcrN+qFDHMEQh/pHcjSUet2mF8fhdutJ8M3/IWXhYNwC20ToAPE7YiGg44ZDUV3hZ0nUjLXF0/Kn097tRGufrx1e+e6rlNpjfu0U/LQV1/Y5KHfew2P1ZYTCPiQ4iFEVTMeejSWQFjdm8U48e3eR978Hhce0O+yRAT0VsxhjjID9CkuiO1gMwx26cBD3+lfD5/8zT8O/c+Pwk52zbp7MdQO48vKBquhMJu/G+kMLtoKONfCWy3XdUET6ZscnQwZGTrK9kKvsxfmNwfha77xy8OodYTxq2gQEy0/8/gNMm3kauxoGL3wi3LdCdBTDv2iyOJ9O4+TAJ3vkclOlvoUIXaG1/njYO4K4L6d1JoOfNkBPZuy9SZISfDQ1XIzhklzzE1nDr3d3wpPf/J2ePpTt8NuczfMh81QcIY6IpyMqDTR9OfCh1HWdK/TYc6+Ah6Zcx1QL1GF9YgqMvAxIEKz7UE4aD0bdl/UCc/9ykfDvA1dgHB7vbzsGKDH0P5FiuIlQE+Afvan5BJ9YjnkXgdqAnrv8EiATiD3Maj1y1t1Xvn9XqqrAegoK1ctsHnp3NQtjkx3dIgbPjUJn//Ek6HZQ259iPfQfatotMN0jHsGz969pfu91un4l28FlEqL44397Oug3gRnZhhAfO1CB2wPAeY3wvbz2qo/n1O2aDnKCzcPXWWQteYxVRvYi7E2CdAToF8MSbxPZ2HEtUiYwr/rjWLY1pWATga7W/L8OzdvMpMA/T7dGBzWQu7WKcvD7QboRmZqwUvvzrdCOMjCk5+8FfY/fRg6kx147t2w27oW+n30zc6s01fa0grcaQXqXnrdU6ch2OzMwuH4Ntjtg3D9hdvhuV/2SMhvNPHeAWTLO7oZuVMkuOiOLzaauThrnwA9AfrFkcb7cCYnPczMldvM8oHy5wy7O+g7k91B/T6c0loPedk9dHo4TmDyjlzePtamrQHUw3YYPTsLn/uDp8Ls2UaY3A7hevMGJtvBQMucpb7WZU0HuyIr4Dn0ZUOdemHWHIbD8GxoXguh+2gnvODLHgv5dXSOK6bhaLwfWgVSO/LQjcxWB3Tvp5A89JqgJFLc6k9NIsUtrmFVlHLca+PDzdC658tJqspajKNVc8r12MbmMqvfnft/hMsM6FwdNaap1et6kxoyrKlDqU/bTZSwzXbCwZPDcPQZlBc9jTcP2RSko79vmNt7/29y+oaVVsDTbHz+64b7vI0IXfFM2HlBJ9x4wY1w7bHt0A89heBnfLCsd4y2eg94Y6e7fllvY5iVLnTTT0IC9FVvHwWNs359OIXVX3Jj4wMNy2DpFUkfDG+i7Kc7vhE+9C8+HHaHj2A0ZScOt1j9PC7KEU4CdD7QGqwCz7xsFIN1UY8xIMIyAc7D7ZcB3C87oHv5oJWwGalYYc04NIMZkMFgFDrNrbDduhGme5B3gPnT/+FWmPSnGF9L4lLa0gqcvAJ149zBPMuy0O12QwvZnOe8eCc0tkGu7GRh2MTgpRnkKcfA024RekjpZCRdLgE6wbwqOUuAXq58AvTVH8OHHdD9cfJhKQ7CDJXxvbyVlV65Rp5OrIWrd4XbdC/2VSXgMgN6fSALG3XQCLWcOvtdx3aw6h6Ht2CoWgc5dovDDzrJ8d4z5z5X2820pRU46wpQzqyZEcslOb/cZgpYWas3qFkE9MXIn9eln/Wb79f+KYeecuj3S7YeyHHZ4a3ewc0ZrfTsRIibWI25jzxlqVN9u0glJ+dZsMsO6M5qz8BqZ9eujKVE0qDwgtjfXbXpeI01wK0Z9kP9MOei895xlnUC9PNITvoM5Ycyx83asNpwIHV11b+N3Z4A/ZSykjz0Uy7UXXZ72D10a9mKcO3SCFTv1U0mNAGdpWl1gpxIMfDUnSyz+p3YzBEuO6Cz5SsVawbyG5UrvXBTogT0COaqTzevifly/p0NaSpCUmK5b0b6Lve3VrPSy7ZvZSjd+777Fbo+8dbGxzoNXpClSB568tAviCie7zRasSzNR5p6Wdp4aFPSGGZX7szrSSP4X5aytHutymUH9MpDt77aNtHK22ta5zj30utKloas73vRmMb3umfp75djBRblbZEElwD9hHuYPPTVBfth99A9h+4eOsGbQO6ATs+87sEf6yu+2e7HKwvAZQZ0K/2JPQJi+ZoPv7AwqA11sTpz27fsq01fXcCPnPuyO7XyqqYDPDQrUE7pMVImN9cpXnO+OMHPp7vFUT8XLGeXPPTkoV/uZxcA3gITlZ45Q+sMscsrn2CcoVDBWOweWmfozAl0Yr9f8OEr97o5lxvQbS50XY3efWBF3FfDN6hm2Yef07LutUrp72kFTl4Bkx0OYYpVFgu7mXLQkJdyS4B+R1lKHvrqj9nD7qEzh86NZWmqLx9YzlyWNkDex2r6SicPHSRCgWFLho54BRvyMjQrvURjeuIVGckHX2r+NAeyqFa9mnst4jvOm2S5+zG1avUnMx3hoq+AmOwxQmdzzk2+ou9dayl8vExN/RME9hfLI9iobZsAfQ0i7wqxJlh1GUMhBurQoSmpFFF3vjW5Fv6vX/9w2EY9uurQ73AKy9Oh13Cmaz8Ez5GgzdryQc9GntpMcyPJMfzeUi9n9mkn6x31pYjIOJCJEY/JXbYtX/Fl+H15SS1EXY0lDWGMkq7ezl546bc+Lwy39qG0LHIxm4MljgYF6oS1IaVUB/RFdjEUKLtz4TxPAvQqShrLjRY8qLWLWTrgFV2BOXSBz0xT6wMBOstj2M+jmqh2Ut15AvQThCIB+upPilmYZl1K0cW8o9f4KlwEnd0K7dDGqMD2YCd8+F9/BLOmr4Xe3ii0W50FhjiVPDcei726TLAFAdEiXf2cyyPQKhY73QYfnNTQpWwMgW5ugt2aQdzEZw8O9gTcGtRR69m+cJb1uc53Ov3LOA9bC2Kg3AoAaswJ53jRORjgc3RXmxfN0GsehsHW7fDyb/3S0M+fDZMG0hG4r7N5F8YQW1vicxsC9Pr9rHvZljtfLBeigBxv4WElRmlLK3DeFTjmD8VOR57KOu9xN/W5jT4OCdBXu+1uXRqg8yfmFlG3WzbtYJc46EeWBdEjJ6B/6rf/ONz6s0NAPGYBY3wgrVIv6aKGrHdXMoC3mkxZqlSrJ3lE5wFEHLHeEMa7hi2wSxkWnlbDVTJ43PzMeMj55cMwGmJARyxBkyFSK2Hj7+V1rbbUF/PTXHMC+mwUWgDmHPeohdGiU7DFx/gZoNxrvIWZzjeH4Sv+o+eGYX47TDOU76FT1gyNWdisJTRGGwX0i7mw6azSClzOFUiAfolJcRWgx9Ckt84EK5jNNgTqMDUVRsLc6QJdtpqDbtj7s4PwiQ//ftjNHwlNtINtoEmHb16b6cA4FZhGt5gs4zI0vSzw5wtRN2rlZM5g9l7JJXkN3nkJ1ARzlqP10aYROfNlktvCvOPL+Uye+qw1ylGDI5gRH6uVrc2aAUEwK8KsPQv7zdvh5ou3w/O+ajtM2tanusGhExhNqvWlZ586rZ16zdOOaQUu8gokQL/0gC6/NIbc41QglfcYoCtsTpZ3gIcOr6w1wBzpw0b46P/78TDBazHbta5bkSRlk8dMZOG717z15fDmOoYTAIi8D30kt/nDoq5NBBycD1nsvAZ1fAODfYga89nEDA0nxS0PVKk3kbnID+Cq5yZyG9aoifXiWs5hDeHOA9CxXgVY//lR+OKXPS9svwBcgs4gHGAsZCtnqRdz6GSUbTbkvur1p8+nFUgrUK1AAvQrAejGFpa/hvyp2maqsxYBPZZtAdA5irI5xuu4CJ/9D18In/nkFwDwOxraQkAnwUx+Nr08dlFzkF94Yjz8vvpjpA5hCBEDuXWevonQFn9xD54sdpajjQYYezod6dxamJTmwF0Prdf/fZkmp519RemT52L4A64Dh06w5S2q8DEzqhcGyJ/ffPGN8IKvfDRMukdhVmBa2eQwZEVLRpvub2zicvbvTp9IK5BW4KKtQAL0yw7otcYcBHW2xORmTTgsBi/CGULnGDiJEHsbw4TgpQ+m4U9/78lw8GnkUAcGCvSEW2I+W5ieAD8bHy/LmCOk3xDxih3YYk79HK/qpYz/5igG94lx3pdd/ZRZQ45zYWidTHbmzBlBUMTBS66Wnqh6jbnWYcnzv2gP4CrnwzvjERhyHabTcRjB2JkhT97axT3cmYUX/bkvCu3nZGF//GwYZ0PcrlHI2zmiHbjvKgcraAauchrps2kF0gpckBVIgH7FAZ3ATpAcTyciTM0nDcyXRi4dDTkGT83CrU/B672F0qZDq98mkGsaGVnF9NhP8OAYDtd+JRvZWclnfWVEwTx0bvKmI43dZxfbUBWcI17F5mZteezbXme1lzXVEcQ9536lAR0W0aiJUj3wFhlhmSKXTu883w7h+vPbYfuxIuw+bysMW5jyPD3SIJNmhhQGlnwy7ovlHjAUBSy5C6KO0mmkFUgrsMoKJEC/xIBeZ583oJTNIbfhFd4mcwogZ4iVgJ61QJRC7llM6NFU86W7o+th/wu98PRTT4WD/aMwhCc8GmKCFTx2gkQ1XvTkyvSKkX4eUpwTrGOJUsynE5gYMaAXeXh4GBq1WrWyBrnmeZ80nKU0EFZ5Oi74ZxXVyMBkZ44E97+91Q3Xb14L2zfz0LmJ6Mf2LAwb/TCYD0KzAPGRNffkVhD2x4PQaSNSM2E3lwToF/xWp9NLK3CqFUiAfgUB3e+8scWr2b56P3bcsn/bdCu+GlBGUl2sa/f6djueenPVXu3dCtCX/26/qxEZHW/VSyMNoHpyO04TAMOmL2rkwHIzeN8E8sGwJyDv9XrRG/ewv/G66xsCy6cS9Ku4k1IWWFPlwUFyg++tNMusNYQ33scPXjnjWbeCfzfgNoYC1528hYd3/a6iTKRrerhXIAH6pQZ0y5U7GNur3dKyx7ezyPWnxb5wYpLX5N8JUmXp2imbZNfrx70Rjb9a81V2qUHuGx3rVFoVc/pThtARAmYHN8YDRqNB6KF1K/uxszRtRs+z3GIteu2d2GrmoX2CubIZyYv0sGdtgDnWltiNMPysiXw5AFtcBEZawJsQsz2OJoXpBHlAM54NNpV5aG9cuvC0AvdpBRKgX3JAryYBLXpa6vHuQlMq7VqDmNgopi5XFZB7l67TeW/3AnSG0B3gW1xvhn4B8NM58vqIBI/hpY9G43B0dBiO+j0Dc3n1/v2VIUI298KmXP59ejou+GG5Fqoj15ASeuBxLQDU8wbL0eJa4W8EfLSOw31gIyH2wU2AfsFvbzq9tAJnXoGNqsLUKe7M9+v0H1j2rt1Tl5L3Nq4Ojtb/W058JMGtq5xpoRMc4u/+u9jscBzHYGX3UFd+dHQU+uj6xpC8vEYZJBaKX9zsnKvWjKczOk6/cJdoTwA3+/rq1mnqmK8Fw+kR0NVBkGmVtjUQYvUC73/yzi/RjU6nmlbgdCuQAP2Se+glSSzeSZ8vrXIyAXTtFh8D9eNjAStAX3KEy8PcaZzL6QTO91K7VkD2PrzyPoer4GdGj70J0IntaidoelJ56YvHr3rMn+17r9ze7DdgdzpeGta1iWoF1fVbZIReuRHf6MmTGMc3aQyw7DC+f+UWJl1QWoGHbwUSoF9iQHdWO8XWGslYTl3FY2W5mXWRW9j0BsPvZwV035+fXRqecYdnh4BMohs3/pu17vydefI+yG8E9CmnnsXGMvwGlaCVBoodOKV676ScbLBNtcVwusLxFb9CDYc8JM97D9DXupIUmYhxD5/mT1d8JVcgAfoVAnTmkkV0i06YsdYd0OuzwQ3hT+K8LXj0NZE3vl3FNnd2+b0EaLm3OmvH6Y2TwU5AH05QD92KVHh8xYT5XaG/da5briNPwL6kh5iaKGWYYF6rCCgrF2IpIz7q8uGNfHj/0ppeSd2eLuohXIF76eP7uiQph77a8i576A7o1VGtDM1BevFmm0dfbkvorrQslX18Lfers+YFBncRIUYNgDGtzJrBDNEcpodc+SF+SHyjV05PUd4ia+eVD7bxrSLO8buXOr0l8KnLTAyhc538NsQF8nUSN6LWHEis92j08UhkKqQ1Xe05TJ9OK3BRViAB+iX20KWQo0NWhqiXJOs0N1ih96WOcHcE9Hh8P64oVgyZ40QYTtdscobYAeBFG81ukBBn73WG2A/hlY/gnQ8B5mJgq2EMSXDLHeYuyuNxRc7jBIKkv5XA/Irc43QZaQWiA7axhUge+saWvvzixTz6Xc7nBMDX3vTACeQcr8LucgByDgnhsBV64WoUw17sCK8z1O75dDriaknLxjJpSyuQViCtQFqBlVfgNA7cyl9ypwMkQL9vS3vqA3vG9byCoEEusV5cPeDZV5zhdUxGY578sH9Yeu0K4cc2rvycfh7iqrNT36S0Y1qBtAJpBU6xAufV46c49L13SYB+7zW633usCuiaU87xnXht5cZo97atnPxFYGf4XRPSItirZA3gLwMA+fW0pRVIK5BWIK3A6iuQAP2S59BXF4EVjwCPe6LZ6WSoTxRW39/fF5DTWGA4nvlygjj3U2MZ7Mz36yVtK55F+nhagbQCaQUe+hVIgJ4A/dwPgarZ2UseoM7xpgcHByK/sa6c2zQ2hqF3zncUYmcNdAzTa9563PfcJ5E+mFYgrUBagbQCWoEE6A85oN+17lwSstyVpnpyVP4EMB9iFCfD7PzhTHWS4hSKj4z3ZivOVmddOWvlFW5HuRqAnaNc05ZWIK1AWoG0AquvQAL0BOgnStHxwS7HdxNDHhH1W3vPhr29PeXPnSA3ZWhdeXOOSDWvXBvqy63ZTAy/J1bc6k9xOkJagbQCaQWSh35Q67L1cMqDprJFsPWubgqDcyhaOe3MwuXOYvdQOUlvz95+Joym4zjuFLl0Dl1h69a4vx/jTuVx6xoC83DevXTVaQXSCqQVqFYgeegPuYfujWHkPEcw9kYxyn2TiR5Z6pq9jn97L3aWpDHczlpyz4UvA3rZ+nVpFruLYAL0pI7SCqQVSCuwnhVIgP6QA3oLhePKaUeiGpfDa8QpYmwQUwdpNovpoUkMx52S0a5hMN5uNAI/P7fcsnVZXFOnsvU8wOkoaQXSCqQVKB2kTS5FqkPf5Orbd9NDF3Az7O592st8t+XB3VMnkGuoCpnsyJcT7Otg7ldTB/Pj88xtrwTom7/36QzSCqQVuForkDz0h9xDpzjXJ6Kx5IxlaCK0xRD8cDIUiBPM6ZVzTjk3jULliE6R3BY9+/pxr9Yjk64mrUBagbQCF3MFEqA/5IBeb90qIhsg2r1yiiyJbwRyhtg5LY1NYuqkN9SdnSjZdc/+Yop+Oqu0AmkF0gpcrRVIgJ4A3QA6ktbc2yaQM19Oz5xeOclv3DSjnGS5OXxzdoirMeH90aiH2Y/l0k+Y/HW1Hql0NWkF0gqkFdjMCiRAXxOgI0itFHQMPlczp2OdtS90Wb6F9xcWn0DHAzzgV+XH46AUdn3LANBsCEMQ7w2O1P1N7VoZVkfNOf89xZBznj3nnM+mMfcezxuBel0H56DT3/ffF4evV8JedXLnGFXG7Wlc4KsYLdDsbtu3gV9s33qjG5z7qvM/6wYGz5t3Ba/VPPHFB1PniOvClesP1vT2vP3o7Rj1rSl5sc56ulq//vKyrTlPaGBEbVyXhQPoxKvjxlk4trb2AU2tbcyy8tjl346dzb3eiN/jFQwLPQXi3Yrfq8E8/PFxv5zEHkWeM9mPb3ZsP3//+1SHnUE+fIFwJ879DNt3+Hn4d9g9YBfEanZ8vRpjQeRqH66LkipC9GiApRLP1cYE21bd1/PKDteGzxdHF7scHl8vf4YWqknil9fPl88bN66v3yuJSzme2c5dvx8bt3y+a6juLY4tci0Xxo51TG7t3Wrh4u/VNbgsLsrSquqhvGEn/IPrr7XQDT1ZD/izVddjC4da8wkmQD+3MvAH02aJQ8VACJshVyvTaZi2JmGihyNDLxX8bUImOcLZhT0wo8E4tLM2HhAYAi4Q/qCs+RUQrHPkcJQmO7Px4cFbU/RelzKgYiX5DeHz6XiCueVH6vrWH/WjB14pPldGJofLc8zv9fviU8FjtGbxAW5g1CrOY9rItT45O8lhh3ETa4a1bbc6YTIYhjYGwAyH/VDkXVwSZq0jn39uUMfFH1fePB9XxgHfC54AIhWNFgAQDzDUJ1raYuDMfBTyPMc9xXqesznOrGmy4pjQnLcEtLScMMNOynUGzcYzamGn6YhGDv4ONJs2h1gD/HuIv+McdIcaWLMm+Q2m6KkUm1xUyhvWMSsgi/Oh3mvNtpBCmWAqdewAACAASURBVIQGjnHqEbpLSq06f36fKTVGb/jK+0qgxdXhZraUuinwHLRxf4eDEc4HY3aLTmhNcQ5UjDx9XnWUqynWhteQcXEmOPesCCPcawzgDe1OFooZ1mDI621rrc6z8fzV7VAGnBnklAcDYZw7vnqYoSQTr9X7BLW4b7xmAjVPk8dxI4Dv8Vrak0zGh+1D0Kr25YeauN/LRstpr0X3eDoMebsIA6zncDgK7ZCHAs/FGB0bGxlecd+5Pk09Z7g/ulOVsTWHXI+Hg9DBerZ5HDyHA+ipAu/PuO7uogi4eE94BD4FXCeeKXRbfIZPe96+H9d5Dn1TtCkrgzDDQs0a7TCBXBYzKCt+o96jzrTzb8xy/II1i2czxfe3Cjw30GV8LqF5rbU0ntsJnls+v3Zf7VsrJ6EyUFZZ/wzPHCOZIRTQEW1kIKnP6eigY2YBWQd5mHJUN+AWz4dGwUkG7VlX0/ZPgL4SoFfW8RwPEpUYgYhqbNwaCdCH+L9MigyChd8nfB8P23axI1Cl8N7PjW1Y69PNyoeJipfOND10DU9poB87vHLky3uoLx/DAGlEBVX3+Mw7jJGE+M9Vzp9gJH8UikSGThMPLB8PLg7eH+foEz+GYhlneDhxLWEE5Q5FAEXIB6nJKMEKUtyMT5p6zePJNoVnDxgf9NlwjO+jkYHvhNIkx6Boo9RvOoBy4QhYWm2rAEr0tKV0oAxmsPgE6OYtTecwJnCPcmiFDNZgI+tCplAumPfCCIZNt7WL7y+sV34TssR1hJLhVVAeMxgJXJ8xPHpIZZhOeqHT6obmuAsFvh0G057W+TyblCO/syYHNGDNUDOFPMnQAhjyxcE9GaI5HV4HFN8QxkVvNA4drGmTnQRpVEZApzyasYDjjGkqk6AJgMG+vWyK5wfGFGRiJ2+HsZD0nOsfFa150wZQBtw4Rxkks9DPsW44lxy/V/sYoJcyEo9Dw5KnM8Xn+BkCeXeU65gTGQ8EJwf0GIHAcVcBlBzH7I2HeE6gf2D0dKYEWDaBgkOBez6BAcwtU2hjEdD5/gj7bgF4cgDrBOTXAY1Fb9VMsGQEjhKi+xEN3RgV4LrXIxBnl6EmZHELjsMRThCpvWkf17CFb8X5QG65LrwGrqWdBYB8WgE635mqiRXWG3Ld7hRyUtiNcg59S9LuHM+vIlJRZTmgK9AQr+e8669oV+QUNZsd6E+U+PLZpUGBc5qg4VYTa+tRD3tOasYgV3SNYK7jn/0mrO8Tl79sbRnQzbM0QMcNxTOUQUA5uIQPBuaNSTgJRDe6NwSerS7A4g5NV9ax0jQenK1eP55Y7LQmYUnOsM8A59iDZ85zGkNB0CMlcFrDmBgOKw/gnvhqZ+heqBRq9FTH8OC4FVhHAis9uQKeXHsK76GPh3ariXRAH/tn8JDbOPfVrFsPm5Xh1Zq3R2VFz7BJrxKG1wyezwAPabudC1S4dgXX8NynYPJjno8ZEOahm1FBsGwVVJrwQyZEZeqqNoDwKOxcg0cGXsMs7GBPRAqorClHUIB6paGEg8/GCsuEaYbjZXwfXlyxHfoH8MjyDjTiodb+XBuPH3vxu53H4/A6gIPa5gWOjvOhF9Via+DDIRRtDgBqhUPIWQEvUitQ00RyymPlBPxbeYATAPsUxsF8GyAOYy/H/dhGdGE8oEFyzk3GQGFRhVrYn8uU6YSmYYQLoaFX4HqijaEvMw/x+Cv/xud+oiGDkN0x5RlGDacSLtgdtGAQfSIAnV+AcC+3Qg/P7xhroQmGR5RLrjcjDNBBSs3w/Ok5RlTD9zmITWEYbRXw6wFGHKY03WkD0BGVIjgRsPH3OTyRcYx2VykTegME+POfPyY5wGLbCX3I8fYu5JnATqMVCyV5h9w3ec95DTBSVWQLg8WKbfnduC4YIHOc93wCw7udwUDBc4q/9nHelDNoMRkdkkUfEiXD3Z6yFZZez+6Y6UroyqJVIPI0RtQMBhzks437MYMxTj1hUSBJuRmF8RlRZHclh/K43CdAX2lBHdApLWaJE9D5oBK4+QDPqKApeAy702TPacLjZUJQwIOYMdRsCt2F7H68Erz9uJqGprw5Q2pBxDex2El8o9cZpYKKTF6q/04dBMvTQ8T2ajldt4DP8qqQMtZ/hoeVRhA3Anq5jjjjocKxeMDhoTNlkXWhGJkqkGfD0JuF1M63eS7cDRa7drserhciArp4hIwRschhWDCAyb+TC0gLnymWJvOP51gEX2eeu+eRPWJgBg4UAiIBUyiFbr4LcIZ8wbsdw0Nvdyc4pyHWros9CRoxt156TyQ8FPJ2mgDN/vgQr0hhANDlIQ9zeEdQeI0RPglL4VznT4/PDBDeAypYKnnYsjDIzAPtIySMQkeFH3EmoQAQ0+OmJ8hw/wwgH+MhJYeCEdwxFxiyVdBbxn9TfG6CLxkRqARQ1PEwTmBcySA5x/kLGBDCpQxWShdXhFM3g2QWekid8VWArhO1s632N9mvctQ0cuD5yk5phq0p1wcrjN8N0H2tokmAeyw+xLnOHxHAAeSRhg0NCDzjxcjSFE2AG6QHzxPPF+dPOeUtEZjHFAklm14s1raDkyaXhpGTEQ0BpDM60FldyIoiPJyMKCVVgaPWQtGg850/jcEJZNSMZMo60gcA9BnAvJsjgomQP6NKATJqxo+tqUVSeA34buhQJahw/ZwfwWXMGLnRKRH4+RwoaaU754Z7XV/UDZ2z3AfK6ZT6i+YF1lYpLg6lQgojhzOkc5ZwmHOiux91lT3n9llPgdTP6bz/ToC+TkDHXcihoKjUCOgUHqj8kEPaeLNHyElPcZMLhGfm8JB2d3dDb36EfY2EdZ5n+l6fazGPSRCG1U5Pjb/zlcDN8NTTe8+EPhrGkATH571giF6GCK4Bn8tw7h5BWDw/AruF3FYxQEzF2cPJDapHYMocKX+b4nymANMWtOH2te3whf3Pha3rWwL0KcOxMVR6vgfgOKDzOBWg49oQ+msh3MuUhBQJ0yiY9U6A8uiHffedfLa7vc8vsxC1kWs89M3zohwhJN3NwmF/ACV1HcobOVmE3BuQrekUZEUouybvJc1BHKcyEAiGVGSMLISw3UUocrwXOm2WIbKPAEAyu4ZPwVOe9OP3nvP8412zazCwoN2aRUCfIQI1wnWBdQBQHodrCPdnCOnu41kwrz16i+6t0OuPgE7DrglPsYPjMRHRBHjvQemzqdH1oqtIl+BESHX281dqgM8dV0BhfguBtnANbYgj17MPsKTSbuN28P16WL2sDCFnoAzZMyIBngedT+zfRSib3zMErvN9KnKe7jJ34zznz+PnSG1kWMc9rifA+ToAmOuM2458OOQEHiNlS4Ynv9eu1hwI/h33YoI13m3DMES0a2/G+5IjFw9jiqvat54To5Z90kDIwKiSt/OtP4+WQ54px5PJPnQNPe5OAFUmtCDvR31GkyhX0eippYaoLwSgeDbHOP+iKBC6x3MZoyAMe2dI383KlJjxTHj2lYNSPW/nWX9FLrGuOTx08mzabRg/kBMdHyc3ZbRWERIlxLR6ttn6aZOxsRC6qe139n8mQF8DoHPZS1KcAD0S4vTUwIOQULHfuXsqyHftQ0lAuY0aUFD1WN7Z7+FdP1Fv4+qhdwIRAXyAB2B/sC9LnoAlr7M2WEVkoRj61DUuSIs/DBRGksvs72d5rcSbSpQqiOsIVaLcrz0EM5wUQ2dzeB4jELomO3MoKniteMZJ3BGc1Z+VM69fLX+8AKrmIVLxtvMiTMAryBRiJ4RAUXe7UDyIrkSPXQ+mQt1neJW3YSFnhW3i5y10bvlweuMhR647ewQEG3qj+KGymByFrS5Co/y7QqkWiuRm8kZAZxgWKQPsU4yfgUfOfVluCIWZIdSJECGVtxTzWc67dp0itC3cAAd0i77s49ymW1tIJiNXCnBoE4BgpN0eYj3x2obQ0KM32Yren0DaKh2u8R4grN7oHWDN26EPkhfl9wby/5opgM8pPXyO8+d9NLY8DXDKGkmPdhb00CfwUPeQniCvQxGBaHRzX+bE/XmgzDPn3sIbvg899AKh4OsII2eILNGD9mNTvrkvv6kkTJ3j/GV48FwBtrexRlzPDsPNPTxL3d0w6XbCAe84nmFGHYzJbvLOb+d3kyw5gcF8rbOjdR3i9y6MMBwktJB+o9mnfDBFSp+swGcB2M9x/mKkwPjodpBnniCCpEMzrYV8dP5omGWIiIFMac9CTCXpHDxFx7QhDQBEsLrbOE/EqhQhgq7t7eu5nZIDUANNr07RUWKq01JUZ3hu4/4ibWJ9GCUa9vqS9xGeuSmMjOYWni9EkLh2zj/QqXP9YpSj/N3+sZYtAfpaAR0PNoRKCkKhW2Nl0jtGytAEiGzUW6Pw0t2XhMNn8LDDur6fG6123wjufGgZYieLnWVpc+SoeF4NkvaiYqZnroc+grsrgXqIuDpoBBG8cR5PXSE0KVbzBATo8pyYbyKZipnI1oiezTAfdfa7Rwi7MkTPlrQ2AW4lRGdovZQBUxQWWrXQHlmr4N2G0TOfC1/6yHbIenvwKs1LZMqCYeMzA7krEF2x3R+G7Y0wFT0hKDH+PoJS6Dz2ovCHe8j17jxPOesR8oXMGxYIoYMmHL/f5spbONLPvxE6yJMPnv5M+IprcHsOv8DkgQyhgCjRGCHNMod3DoVmJXCVQVQZfGYIjZA+Ge9cC3+83wuzG8+lix0QIFB1AIGDAISEeHn7KpY75AD8gQJrXBzcCi++BoNg72nkT8Gd6MA3gzdUQHFSlrEI5wZ01aZEw1EERDyzHhbPECrvweB+snMTr9sACUst8O+qxqBejs8LI0o0SiwywbVnFcIE4faj8NzBLbz2kVO3sKsBK0mDulsWsj2nQSVfGaFxcl24nqq6GEKGmt0wu/7c8CdY9/HudRkkdSa6G096RQqQ69iGnhpD1logfAZ46c3bT2rd88N9rDUrSSyCJJ5HTWHx/LWtID85eRSzAaJH4BgxLgA5/8P9dug854VhgDSgrbMZUGVKjBE9fSf0K6M7APEWUlBZf0/PKZ9XPreMjpahep0/L8BktpTccwK6LpsRmEjAmzI60r0e/uTZo5A/5wWISkE2YxqgPH89724UWdXAOrcE6CsBuoWtTDiMrWqeZQXoLbCWZ7jpOXJ/LN1pgjHdnXbDO/+Ln9no2q9TiB7ksb7tH752PtkiGGA9wcrX83FeFz3msUoQ5aOGSIo/bjosQO8atO+NybPhO/7yN4bHwlHozkZheHQYdnZQ+kUPohYKPNtaOOtYqt30okKZVl/Pr5/jOm81roWf/z8/Hm5lN8Eah5qC15HDEBxD2TUZRZHn6N55pXSNZDcPN+cH4Qe/9WXhxvRZcDeQ34NROR7jGDxWDZDPdu629yKD2K7HSoyy0IeCewak0F/71/9P+DO4qK2dx8KkByWGZ4CeoQOZYjwy4Cwk7FUPXaD/c8a98J1/8T8NX8Tysd7ToUDJ2gzhGZY1qScCPlyv7z7rNQhYI2nJAN2jG0XYR1riH/6rD4c9hH8ZaVMihMOMIqjX7/v/396bgNl1VWei+8635kFjDSpJtmQbIzzgMMQ2jZGnBssyuA0B8tLdSXcHD6G/971Od8CQhCRghoSk04lxk9ev8/p1JwFDGtvYxBicMBg68ADPs6YqVakGSTUPd779/2vtfe+tkoxV51ypBHcfkK+qdM8++6y99/rXvGhyp6EtxkAu7gdYVzrg5vjg1b9g2mFOdn5guiII6LK36K6i9ysgJ1DBl2uP9QQ9GSsByzu0w24zmk+aL/zD98xxWHcomERBL4kV4G6VT60D4Nx9Kfr6GViGoNPi/HHTn8ib97ztzWYdosebIMDiH2WP6tzVVSUAy78FnD/XKs6AOwBxAoIFI+5LMLlPwhr1+W9iv0faNLNEnqN0qt3nnH8OAiFdl0tzCwYwbtbjfL4X57SjMG3amIGBd6oVQrg+Cq61Zu4aK92qNhCtrEkoR8gcaWk1i9GkOV5uMV949B/NVKLbzHJzYk2cIiQ2RwjkTvHRdM2QCsmK+YZYilW9+Um//LMf5V4FdEnhEFOQBXiRumF6wUHihiozsIOBG+AGzYW2+T/d82nkG/lrtRS46Z5fWlhILDVLFXlhxNVub6sdSxFUTZ8uWpuAbqHKWgoQTZ2fMxvzE+bXrn+j2QTTdTPMg/RJKgjbQxno4fbxtJDYwh6M/HXMRrIAwKyPJTeaP/n7l8x4fANMkQhoIwZZV0jFF2sZdNXCQCEBJkHMc33uqPk/rz7PbCocNWm4WeiWlGJBsi+DMjPV1KrPd6l29P5rLv0CNNuj6W7zXx7+jjmeXA+AJzBCi6GfPAHrAxmrTVOU8CABO741tZ68aSnMmfXQcP/N29+Kz6PQdOfBDCGQ0LWT1ywNzeMP8Q415k8BOAC2aIkA8KOp9eYPv/W0fJbxcxHMmP9+cp3KWZoIejr/Ddlj5t9f9Tr5JMDTOkJAWSZ/cg8H3Dt6G33DEGyg+jPhAzYZAEu7OZ7eYP6fr33bHGvqMvNYB+Q0CPhSo9Y0KmX9TPkiqMZzDD7E7+ACbEJ8xjrM+V+//UqzITONdVgArTF/Crs0MoJCyufoqlCwDXpVgmqxlhk8Pg8hcyyxwfzHR1/CvocAyMqUVsRWYLd55fapDJSUIld4j9b8rJzPX73uDbLXm3Pwy/MOSYtUi5vjzyo4q3AS/KJQwPlhz2D8eQTyjcNV8F+//kMzkdhoFhDIyj2jAo9NV5SzoYpDvcGc43pAr5OGfiKgq68kjjQLErkQRd4yI0UB6G3F1sk/vuEz64JvpMa986bPvX9yITnfBf1U/GrUqsJoCOLjkkhVTZer1mhTCZ7MoA2aVm9uxPz6ta83fblR+TkBbaIazBZsPVQY0cMupl8JMCQDUGuPiAzYMxPJHvPpbx00h1ObBNDJ+IAY4ivXwjxquuV4zk8q8Qx23I3ZUfOhq7aa/tyEaYK/Ud6UQYfWlBmYC4iWKeyJlLIan436xVPm4KefSK83n//698045r4AC4MpI/hKAB0R2AzWZOAS5iouFmqAAhi0kmRNGwSnTUtHza+//Qp8TuDnaTwngyBFfB9OagfolWpdAZbBgYUDWWXOBMmEGU1vMh//zstmDOCIRCQR+hgrowxZ103k9hotlWBHZh3D/DdDCPnoP9lpejLj+IYCYm2KoABKYOuOvqzMl4IRBCTGvSKrHIJUuxlP95q/ePh7Qv/5OIFFaymsBHTG9sTwXnGhJ7+RBYDPmE3ZcfOB6y8H3Y/JOvB91DXGhxAErTBL/hkGRSTeg5sVLjVq3PB7H05tNJ/61qCZSPVUosg1NsdaT7jbLBAzip/CbRz7uS0/jfM5hnN6KT6PmNbcNPLZ1VxPwUc0Y4n5oODG7COWrAqYsun2mrWy5DH/OVhyRnBW/+IbPzFHkn3yM8+vauQqOLj9xv3geE+AbfuKt4RZitDz+HnQ0JcTQTV05XPqc6Mvjr8TQKerCD+3F9qnPrvnU92hCdiAA+y5572TC+mZLvrcldbBczld6otqZvBRY0Tn02IFKkILGUl7bgpgeNjcds3F+BwxnfhZzqdod/Sh15rvVrcozFfmYC4qvJIG5hQHjD2a7jF/8O0jZhAAI2lFvAW/lyxIm07FtCK+R20kNvch33FzdsT8zj/pNwMA9qYMA4yo6li9SoSD1c152bedhiMChXMVcGVgsqbGAkC55+v/iHfoBaAj0AkausAg0zWFuTrfv/oTHaBTWGsHsGwEkN9+/S+anqUjFUCnRonEa7J1MZcHdrkQlmTpHFApXcVKgnSqI02bze88dtCMNBFYqJmLvqexFVbT5u1a4VAFGgI2I7D5731Lo+b3r9xuepfGgFfID5f0Lgcoqt2pLz3EJTEgEBRYmVLWotnMxbrNWFOvuefhH5jx5vVwHcB0XVOrQEFGRZEiNO841wD0pOoRgYbelp+CEDJqbrvuzfg8atphoaKFwQlcy61S+h6Br8o+5+ozLTFuDmG///53hrFn+ipjV6waNoiUFjIKghktfymxCe3ZGTOA83nr1ReZLblh05abtCYwDsO1o5bOB6rrROgvmnJQGwOFG54nkULNdLLLDKX6zD3feNKMpLYgoLLLmtuZSuhcaspjGAQsFjIrwAem34obwxzl0HP4+Qd0RPSCYzhAJ/8RQM92zv/xTXd5k3uAHXTD5989PZee7YizhKnkf2secZBLAN1WqKMGw8sJZE6j4UkloG/NDJrbrr3YbM2CUYBxqGrN50peTZDHW02Bt2uqFPkKK1zJPERg0GEnwNh+97sT5iAAJodCLQhRwhNh/cF3+IdCRxXQ1TddEnDl3WXTlxkBsGzGO4yigAgHVmauDwo498obU9NXJqm+QrV4EPiooY82bTSfgwlyGACjgI40JZr74aNl2iRrCfDela4C+mypGW4GGN5x/ZtM3+KwADzCrzFlAhDiu0mrZZkJq1wGzFeC4ED/OOtHOL5u5z/c1Gc+8thhM9zco4y3RjuPIz+pVusqAFhclofkH2P+/Yuj5hNXbjH9SyNVMNdNhueqhihBdEHxRF6XL4C5x1HARKorNgPAuyCMDJi7IUiNNW0Swaqa1uiCy1RzLALACejlAhPVuKsU0HuxZ24HoPctHjWtRcYAqEapa+W0dD5f3yPw5QRLG1SXR6wRAf13HxszIwLomkHDs85PAjGBsAro1O4RnwFLVXsOAXHZw+b23RcB2Idgcgegy16n0M20Tlq1lNhy3mnhkuC6gFKVILJ2oOSkZlMd5lCq33zu0SdhZdiK2AtYpGzgKAHdKSB8vioklKuD86+T0TzESgRewsqNPxeAbjezanauNjT/pgVSHKDnY4vIJMKSwgTfle2e++zeu9rDU7DxRrjhL94zO5uaaUuUERAmppAwB4LBPRpd7wBdJXamLCHlRcAOLhKY2AcA6HdAQ1dAB4OTEq1q7g6joVO7c1Wv+FxXzUo1NxHhAej95qPfA6CnNyOvGFDBMqpgRfyO01wKko/uUpM0VcmZ4XszR8wnrlhvtmegKcJXqvlBVSAOtYuWaei16AQTJDTDkaYN5u5vANDTAzBBwstUQg0GBlXFkSkgAYhkrKShq15mYRKg2AYfeu/imLn9n75RAL0TQINaniA3A7iYsEVGbdP9AryEnFgRBjXvvwrQnE4MQkifufN7I/KpaYH2EgGsWoOe/lmacF2DJvkW5kUgv+uKPhGolpna1Rki+6e2yEuAV1Cgxh6OxLKgK/cuAB0a+kjzFvPnX///zWjzRgA6ywPDpC5mJRX4NLiMFi4E6rLWBEoB0wAdtRp6/9Jhc8d1bwL94eogoEusgryYnaZrYOQE20CzlzmoQENtB8JGsiz7/LcfOyZCoLiVsF8qzWNcBUEpgGUr4TGSHVH6bbk5nE8IIle/ToC9SQCdQh9jH1Rg16A4PlJjVZzpPtjs7X4XQM+Z2SQyOmoBPdkh60uzvgiMpKK1SFWzerQoVL0uD+gBtTvdFdXNrMxAA3QkcpWAjlQX5qciftPkUKu4DOcfAb071w2T+13e5B5gF7/9L943P5+abkkhtUaMdCEBXSKc5YBrTnsSEez8KU+NywZ3tQDQqaHfDkAfyML0ixxqBnfJQQyjIda+v6TTKBCr6ZwMU5kdAf3D35sURleCjb0Exp2ysRkKSgpMoovYgi50GTCHn7uyLztk7rp8vdkGQEfpMDU/ApSkgQj+PWiSgOWMlg78iYyNZmX+PQoAb4amuMnc/ciPzBA0RgJ6uayAHgMAlWh2lExq55NWr7QcK0yqDRp5DwD9juvfDG33kAI6fblkioUmYdSavx+0H4KrdGcLGzHX2a4JgWS4udfc+d1xAEu/bTaj78gKijzTYiES+nMnMpCO6Wsu6rsEIB82d71lE+Z+pBK4p0YTNd+rtmuDowKcBdl/DtDJX2g1KDebGVhCRpq3CqCPtGwWS4lWslPBxaVHimZPoYp7HfQkoBOYOvKTZgsB/do3wG0wLsGJKjhZIJSZ67szZS/opXzSisWs/U/QQ++GQ9jnd37/GMzWA7I/JVjS+ro1SE5dSXJ2pXY7vlVKAdAXFNChoVPwbsJ70IrDyHIH6HFprMSJW2E86OR112IopStdFbOpVpjce83d31QNnT50ialg+pxYT7BrEAkv87eFtHxhmdoFqM2DpW9OTFkqsSfFOaamFP6eBTmKiBphM4+F5LT50dFvm6UmVNs6DYAukZ9SUAaFM2jTwyFRQKfJPWG6M+snPrv345tC7aUGvXnv5355cbp5tqmJOck4FAWJIg0m4QovEh+kBnIRDJNlVMpivj7Tk6h5gZVQQ1eT+6UC6M2orGfAOAVBWcUqTGCNShO6V7l/UTdAA9o0OpdgOwJAufOxKZjce4BhAB0IHdKEA//GAiau5gE1dpoi+anaueZN9y8NmU9e0WX6YXJHGDGryqBCmJbJrNXyA28px9Q1z8+eO5wzAMkIAP3PESREQJ9NMFqclcFYZxv5xXgPAvqy1DcL6BQ4WosIRlwYMx9EdsGWxUEUaaHGhVRFauh50h/aTVQFsGAXEYrAagURCAauyBOtayMQpO787lH5ZFoaL5ZpliY+Uo7UPhfvH4HPXSom1HxPAX2DALtLrZMgRunQZ/ORa8qCrv4d7PxZiyDOss0EaPjQAeiHWwjoPxZAp8ndAbrLzFC+h4JSDEAkoOdbAEoUMJhud0wA/YPXXgb//ziyOmhyV15KcOS1LJhvWaGUU38LiV0hewQZY5J/yPcowJrTAwF2CoLUgLgkaCanJs2v0LWk9/DE0kqCPUTQxr5qzS2KW+nWawDooHkLguQI6JK5gHmTXyRtCp7msIu4YP+c+ryr3+RzrasusmjmUVefgH7PNx+vADoFEQofNLlTWM+hVLPwK8ls8Xnoy6l+FgG69qd2Rfj5N22nKl2O2GIPQXFSxIWAnuseIvMT2gAAIABJREFU++yej/cE2UKNfs/ee355aS49nWYVLgX04EFxrpWki1KWyluQ4IV5sCiEgKKR6NktGQTFEdDBMJqZ7AtNUwEdEr/tTb7qtREwJ4PnOArownzwqwqg45+oIRLQ6VskoEtTGGlSQXzW6ma8w5VcdYVlNFgrAiAfMp+6fJ3phfaCRHYFdLbVdIC+6onX3OCYuTWbVwHdSNoOzaZ3P+IAvVs0WfrQqaGXAUAUtF3EOEet5kijShw0wx5ot//2ul+AljuInxnkxCAkSjH0obOsqS2sE+QdhPako/VdWEB3dBmBm2A5oGt9iVJsZbqi7cQGLVMrz2ljlCqgD1UyMaqAbjVbyaUK6MMV2ouWgA9qnpxXEoDeDevCdvNnX/+ROQIrg/jQnSZpo9OrJnf4xikUg56qoRfgiz5utkIIvOO6yyQOQAHdEVhLDLu0tTDmYpKqAujU0LGvFdDp6jgubhoK166anypsWl1PrQ0nAjoDP2+9+hLR0FsQ5c4IeHU/sY0tg09JJ230ou9Et02QzcOzS0BXC1ME1SsX0dJ5CGf0nm8A0NNboKF32gBKogGERfCTHJorOQVE0pzF0hBUID1x3kFfJSAFlt/28+RD56JUzHVcYOtbdEVLtEcvz14EpsO2sT+68VMe0APsopvvec/SdGom7WpSB9XOK48WDV29J9KOhfWXwSilgIgcevhyYerdAon/tmsuA6CPQxOAyd35vWqj1wK8T+UWpwHZwCuivAYfWQ39e8cg/W+WBj+sPEithFetclwLjOKZFxMpAH0JmiJ86P1ZmNzFxkkgsOk6AbWrZfOWMRwrESeAgBSBhIFNdz8CBicmd+ShU1Rh9ziWWqUFwr6Hu8f1veaLtaOhTB80xd+4HsCycFij3GnmZhtdGuJEwwrLDIVIevEMM5UQydakZa2G7mxAThB6JR7s2saKq6NGQ9fFUuBftmhh9oxOWoMMiXoERNBzDgVxaHIXQAfdZ9Cq2Qkt1bxrfSOuBUtCky8Jg8IlWR0QAkVDh/+/DeugV806OyG2HvtHxlYfOh9xGCb3j4gPvV/O5En3tQV1qdZoUzhbMU+ez1uvfj0saSM4p1NQwrUfvItZiNm2zJZ0um0DvwNvdjujJHnoQ8hEueebP8Y79GO/M01TYxdcQZuctIDWev5uz4XeAjUDeEAPaK6t0NBqJlW2ovWc4zCD8Z8oURIYyK9doxQP6MG38C1337I43TTdpB2ywgu3LCnLqmwSEY5FSjCZVzxfKMQhIJ9fBuhbskfhq4PGUgMCwd+meqcWR9Fe3KqxC7vFnxLM1r3mIwLoPYhIxp4SU51txsI8XGKcll2zJUkp+VuGbQH9E1dsNlvgLmBHLWnoYpvfhNGwlCFR6HCMnmDltN0Sonxpcgegw/Q7nN5m5pJtMldQW92eUpyHGlJVCFCy8rzEoJED0BcV0PuWBrEOqAwPBin1HCRDIUzr2hWrRg3RRiu7QjUElI/Shw7mzDfUxiwa+Mr4GHfVFrbR/uCqvzofeh8EKiFVLZjrL0JvHbpVRFngeaAPHWPOCd23w+T+IwB7P6Le0WJXULFaZlcsE9w72AdcCylKI7EAdDFBgEUQ4h3XI58bgX1cB7Uk8UAIJXRvVtY+zGuoZUoK5NCMjjlUAR1Bcfagac967nMVOljhTo5KBdBhScO55PlcDuga9MrCOipQubnX7t0w869C6ByC4g6nNiwDdKYL8pkC6NLjQ88l97fbU2GevvJeD+ge0Ou5n077WAD0eQB6iwd0D+ge0ImxHtDdPvCAHtx7UBfG/XNjcq8xt5Okr6aht+c6xv94712b60LEBhvk5ntuRtrabJsHdA/oHtA9oHsNfTkAeA19DTR0D+jBpRBo6DPQ0Ns9oHtA94DuAd0Dugf0+qWtiXNGHbmr8aF7QA8B6PfcMj2dmu7wgO4B3QO6B3QP6B7QPaAHx9M1v/MWD+g+KM4HxVXOofehuyh3HxQnwXZryaG9D30tqf+z+eyb7755arZpttNr6F5D9xq619C9hu419DOqobOOVSTGTkYoKpBBL+p0yrQstfqguIDyhAd0n7bm09aqh8dr6F5Dr2WlXkM/zUFxWeaIxpPIH0YHb/aiTiVN82KLB/SAgO5N7h7QPaB7QPd56CdnoB7QzxCgU0Mv5tEnORE3LYvpsT++6TO+UlwAUPeA7gHdA7oHdA/oHtDr35zlFKPcpcd1UUt2EtCb5tNjf3rzH3pADwLoPm3NB8X5oDgfFOcrxZ2Ue3oN/TRr6K70KwE9zr69aKHaNJse/ZObP90bAM8a/hafh+41dK+hew3da+heQ18TDT2P0oxs98iyxwl2uUJd3+RMbPTPbvkTD+gBxBNfKc4Dugd0D+ge0D2grymgU0Nnc5bFzJKJH49l//LXPo/+m/5aLQWgoc+hUlyrT1vzaWs+bc2nrfm0NZ+2dlrS1hxZ2a1IuuugSxcvmtzpQy/m8tJdamp2xqQnk6V7P/g/tG2Qv1ZFgdPZnIU9suJs4Sjd1hK2CGBJu0+hHeOtbJ+aHddua1UvZrXrlOs+daqfMoa2b2UnL17SNU26rVVrDw6jp/VHHptAJ6eeSpcy1+pSRqh0W6t2oZLfYyyOzfapn7hyI1rAjtlua9LqLPi8V3TZkhau7ILGh8rc2VlKu60NN21B+9Qfm5EU2qcm2T6V3dlquq3VtE+tdi3TPuUdbJ9a220NfbnL6FJFt1UBXcJirtveqdJ75fcqa1htg1nG3LkE0j4VXe7uRLc1tlF1vetK0m2NN7quWaBxTScztt7lmi7vtnak+iTpv87Ldv3ShdJuZqv9JLldcxbymWJtt7Wt6Lb2k1futlaZv7ZPZbc17aQWxf6ekfap0g8d7Wul25rtcsbvyM4EnSpbdLXzPtk6MC4Ce7LabW1C26eyO5/2Tz3JPsdasHWsbZ+qzVls+9TcMNqnTkr3OXeeOUZM9v2KLndB56+zqqwtu60NpbR96nCqT9unWjoTD6Q1L9sHg4Y8m77bWoV09i9sY2j7jhs0mudBLKD/LQ9Gsuja/JFZkuyJV9DQq+2JVw6/7OcVPXNXBh/EsE+EF8O8rkwrx2aWJpFMm8XFDP4smtn5eTAi9NdebCt95YNf8ID+Uwl+8n+EyX0BzVma66eh23XjwcRBZz90XsUI+xYzN4FtPKfRS3zEfGD3RWZL7gh+XgDzBNMuI2uBLhWDe4IwZGGOEPaIr9zL7MfOvtQW0AXowYBGmregfSoAPd0j3dJLmGME7hsyMjSyFvDRdqkRU2C/dGF+ukP5HYLiJy7fAGYHQLe/IyMkqGs3x4CAwqm6vvFkXZyHPFXBin24yZTv+funzXBii5mKNqEPOr+Dfuj4d5mD7dvOe1xfem1zCboD0AkspPtAdth0lEH3EtsREzDRBInrxbaU5AGB6M+5ksGKKGeBmnNnu0v2Q+8zdz6G9qkA9hiBQwiLecr+wBvIllE+w/aYKtBoW98ixuxfOmLuunIT2qiOKEUsYHIcQCjutW1jg9Ifj6bgyRlJl22Oh0bbs9EWM5TsN5//+6fQ+nVA+tKLsCStdrURtwoeVvTAXDl72Yv4567SkhnIHTYfuPp1Igx2oG2tALrsV9BfWv3KymE80D/o/GV/cyCstxNM8OPhFPqhf/+o7HvdI6Qdu4ijySrPB/cOwRF/jcViMgZfi4LHluyo+fWrL8YnBBHO2/ZwL5qkjBMHX9b77fkIOf8iFpsCEec/H2sxh7BXPv/oUxBg+/Bzu2CAHGi0TuXFfWY32omChXwj3NXQQXGLzXN2s5wCEU8B0Ivs9EwGJ8yZGnrJZDI5k81m5c9SLouDHjXtmebifbd/qdpQ+RQe77+iFKh/P3QH6GRYRQvoJaxTUhgczzs1FjKIW6+9xAzkRy2jUHmsCmBBVohM1QE6gJk/8fzLwMo0+e/saU1gGQKjqwA6AQWTs3oxAAVWBTJmoCp5nusbzT1IpnzXFRshlEBTpEZMFCejlD/ugQHnL2BYBQhV3/AbCNazCWosveZzYHCHqaHH2gDo5L4FC/6EIgUWp/nqz+xYiHMChkzLyO3XgEED2FuLc5BfOH+Cqd4Xg0CjAkTQixIG6AYBTm0zBCkqCtTQt5gPf/dIFdCpX1EOouIggG5BEd+nYEHlwgkGDtA/+ZZe9BQ/LPcUhe7oly7zJoN3gB587uQ3FCBieHa5lAfmAljiLRD+Bsw933gSdN8igpUKTKDuSQBdZ6F0LUJgagOdt2SHzO1XU5CCAOsAXfYlAV3nS1rJHgpDf+5HgqsIpxyvCO0WgP69Y+YwhEEVuNz6oru4BXQRrPCnIP+kFh0KgAP5I+YD16oA2JafEUWO70aRR/aLAaBzzhbQw82fljwrMmDec/F2cxBC993ffMKMQoBdSHSApJwgrD5RBfRoCX3ZHcVWWgqCboOa+zygi15UazhZJVXlhIP1kzfycEFDL4BhlQpLplDMmumpGZMn04Hom8f3SvG46cy05b9y2xdUZPTXqiiAPPQlNGdJ119DXw7oZUj0ZARxMPrm3LQF9IvBKEZgypvGYoNBkLk5C9Gq3qLmy1azLEGY4FYS66LdkKIB4n+Hm6ApksGBWcRFk6FpVQHdWiNfGdCx9yiMfPLyjaYX2otYHK02JJ+OsQWdv21LRIsAdbwKoIvJvR3CyFZz9zeegMa4BSb3NhOHnbxUzOm7SlOjVwZ0aoa9C0Pmg9ddincYNC2gexGAHomTSWsfcLWQBLuo0VpxRNaalhLqqm4dhmFqv/P7YwD2vooAwieJhk4TtxXnRLcFYWUs7At1oRgA+Yi56/LNsDIMy88ChNbkLpYF0a3VQhD0Kloa8F1K4Dcx0HcBpt/DKdAdro7hlm2yDj8N0Eu8l9Yo0LWAWJ+23Jxo6HdAgO1bHFQNXRQaFbYoGAgdZNrB5y5349nObM5PyjzD2OcC6NByVXh7ZUAnz+VZiGIyzTS5w4J2GwVACCSt2WmMTTCHkmUBPV7OWlqotSHs/Kmdq5mhYJaSneYA9goFqVHsd65DEVjgAf1Ud3ddTO7hAZ1m0QgOQjSOzYMyr/li3izMT8LMvmBy1ndOTapABgZTadtSW/b+277og+JOdZ1rvndaAF2YlJpO42W1rCigw5wGRkYAJyjeDgbXnxsxzZlJNVlGIZOB4YTiaaItqJlX/kBDUkAn8irXHIbp98OPHQWww/SL3xFwymR0NYBOjZbAUKj4G5XRQmEzW6mhv2Wj2ZSBhl7hjVa3cBpSgLWoaJjO5C1c3s4b858HkAw3wZf7yONiAqYPPY4JFUsAdAgaYi4VoKBli6+qOrIwevyiE0BC7faD170eADNkUhSkOG1UXsR/8P5YoTBpp2KhUM0JUoL9tPZbzGsM9P6tx8YkDkDdCUq8UwV0+p8/feVmsxmmd11P1dB1kJrnhgB0ARMx2+BPMSN/zwJYhpID5s8egQ8dc5/GOtAPzXlXNXTeREjDnqFmT2AEbyqA7rRIDcAH/RsQpPqXBk1rBdBlR1XpZF0IgQ9AxUJE2lgPJIYfTzN2YcIMQkOXrSV7Q4WIOOYnQoDQUzX0GHiuAPrStOnDOb3jegiAmcM4t1MgeUL2CnKMlEg832L+VoHcCSn6Uqu/GLdQ5n7GRJeaugDo/eZzjzxhjgigd9o97TX0U6NsnQD91B528m/BOCsbRRX1iMlghy1ll8ziwpTJ5hahkSQlVY0R7pSmCegdS21LX7nti81hntuo9545QKcJlgWB4JsDg9uaV0ZBU14qO6WMgIAOq0uFya16UWqAnMyGTMv50AWYwckAXhNgEr+F4KwhaCzUNyhAOkCnlq0+dDW91gI6hysV8qKtfAa+3M2wLsiXxHHuwJOM1DLpQPMncySjtGOICYBTL5tFAnoLAf0pM5jqFxM8Ab0AgZc+X2o3rwroC4fMb0CQ2op3SCEojtkiJgHmzPelIC0xKwHnL2hBEyyHcMxdgYLvM5HeYn4LGvqQALrSTD24TkNXgvF3TkN3pl26EAYI6NDQNwJcKgFvGgqlWp3QCXsosFDCcUB/eX0uPrRPSHxZmH4HUwPmz2EZGYGG/mqATi2yTF8wNXQAZnt+GvQmoF9k+hcGTbMAutPExYxhhVA+OAT9VQqp7kUbsDaGff4f4GIahNsgDrA+EdA5HYIkuC+i+Rygt2ZnRRC543pa0oZNGoAuw4vEYwU2rjeDNvk7oXvI+VPCBqBzPQupLrMPZ/VuCLDDMVqkOqyc4gH91FjLGgO6BmZQS4DUKECeMTMLCIDLLsIVlJGgHTWNasoagb0ELb5tqXXxgVu/3HJqL+m/VUuBMwroWLM4fbkAkq2ZQfOBt+2CxjJkmhD1LhI/GRs19KCAwhcTjdZq6fw7NXThz1ajA8MaaR4wH/3H42Bw/QBE8g76D63GYYlDn7kCugwqQXE0BScRhdYHUPzkL64zG2D6FR4qTEhUTgWCwPPnYNaHSsATJcqaADBsBibHAwkECf3DM+Zw87lmBj50nokSLAsSxEX/e42GrmZhfX9G+3cAWM6hT5R0XzwIQEfMiwgkDCzS96xodkGOiQC6jSHgc4Ue/B0/o+YoBSmYfgcRnLUM0LE2GjRpl4qin+CzhqfJKPjOVgQjfvqK9WYDLCQyroxv6eRcNWIhCSiQCAkYBGzBluAO+mbjbWa4ebvQnfSfSkBT/CkaOpUSArqYt/HZUUTMCEztH3jbhUL/NNahsi85f0cn+Qyz/+3+kTMAuhHQMfxR7PMP/6/jIozk4Kqka6OioTOGQiw5CugRRpGAhgxfpYl9C87nr+++UM5rMwXAiiZuzRh0fy7T0EPufxfDgc8MAPwg5vyfQfcjya0SFIdZipbufeinckDrAOivZHJxh/WEFIeaeXGhijT7wCeYRyT70tKSWcgWxGceR1AQAyLEfc5jjg1b4MaFmbFtoX3hgdvvZaSKv1ZJgdMSFEdWzEhVCW5yJndo6GC0TJroKsyY3vkD5l9evsNsnt9vusDwIgTQmoCgWp3X6b6v/qlaoRMMK1HuZFdiZhQngBntONd87EdzZrR9W0UwFEC38RsKgCsAXX5Hhp83m2f2mY9d1mZ65gdFGIiJ6q5ALD5AhZmKzv7q865+3y1fNWpaTeec/zSCgsY7dpq//N7LZqRtp5mMYcs70ynOBOlH/6YzuTtAd2l4nQCSzdP7zK9dCbrP7jPrSgxiJWxSs2eUO4UWtXIEmT/n7uKSNHqbv7ECCX4+3DRg7nqhLJ+1b0wg0bhyvSTmnjEBIgy4WNeSgMudF0Tks3bcZeZ7WeOg9Fc/sPAXJ1hhIlORNnOkfQfovs+Mdu6AD71TgiVPZnLXrC6uBd5CzA8R012Cq2P2gPnVK3aYTTMvw/Uxg71E47wV3yqATpeFChNB6C8rJ/5nEhFZSNZqM9q61Xzsx3NmrGOH/t7JivhafAWg05KiXoeo+Pr7cD7/5eXnynmlYMLzSyFRfeglk4A1gnESkmeBqbv1Dzp/SUGTCPyymYYgNYQ5/7/f3w+r2jkQYDvEcOUB3XGJV/usC6CfPHvsVAE9B//T/MKMWZydMxn4y8swsccSXEWaYWDKsr4hB+hlMNC2xdb5B277cturvZ7/9xMpcDoBXQ481lOAxZriqOkKoM/tN7/yxq0A9H0A9FkR0KQ2P/NxAy6UgIgAump0wnYk3ZImXYI6ciWgoY93n2c+/vgiAP1czRmGlKjR1AokvE4O6CWTgoa+YfoF8zuXNAPY9wvzi0PN15AuPFM0jGCXiARW66wAuuXxBPQp5uU2bTP//YeDZrzzPDMZbZN8e3UTUNgF7cTHqT70lYDeBUDfsjhk/vkbBwDsL1pAt64rjBGXgCQyaAfCAd7DBnsxKl01fjsWfj+IgL5PvWjwCUCvAWoFdBdUZQFdaOnM9gSoAjT0IfOh8xHDAG23dlzewTQ41dqDz13mABdeHvuw8mSMNwlAH+s63/x/oPthxDBMwZf7SoDOPRyNE8wxFoPSBNDnzKbpl2S/DywdMl2IXWAWhbtkxjbuo5qquHrai1OJNToEcOGKKSD7AdaXsY7t5vefWDTjXRdg/0M4lABEvVYCOjV0mtVjGKcb57KH5/TN20zPLAQRnFsNKeH4yucTEHC5X/hM+RfGYax+6nIHh0biqpzJMvbhFARWAjrpPtGyUwCd+90D+qkSuA6AXmbOKyV9+4ebWk2auoVqfy8aGXYIf1cEM8rCZzUxeZTsSEzuvK+Sn4q0tQjFQx463BfH/1i8gSb3jqXmuQc+8D8ZeuqvVVLgtOShWw29Cug8rJToGYBjoKFMg7EdNO+9tNdsRXBWB3xzamLlH5ufvMr3EIZALdz6vjW3l3nwyl40KpraV8wMwQ/96WeKZgQaepE+ZPihqaHTVPpKgK6R2mRjBbMFftAPvzYOoeQADERq2oyAsTFgzkXJB5i+zl9mTU2Zf7FanNXQCSSH09vMXz8+Yg6lt5q5VLc2lrGArs98JQ0dlhH6cgGK7399HwL7DiKWAcGIwjw1iJEWlUhtgZMgL2Hnr9HmEjsvo9BycLB5GwC9DEDfZjU8pWkF0C0SiMfEAjrXjBfzzLcuHgKgR8x2fFIr1HE1JU8z6StqQ6CZqwWHabK6juLOwNrOgs6H0tuF7kMC6B0VLbdat4OmawK47LYKoMcx/7bspNkGk/X7L+1DcJkFdKuh6751QojG+QfNvhLlHs+XTG2xOJGvlsyRtu3mk88WzGHsewquAviW1ifT0ClMUvDmudyKoLj3Xbq5Mu/lgM66BQyK4xs7y0K48+vG4WjToPM+WHO+8AQyI1LbzUy80wP6qnZ2HQA9Qk3Lpk7w2VKsQ0+kXM4kJL+33I+S5MLCgplfmjfU0Ano1HTIaPI80PhelKlFAHSasqqATh96AoDeCkD/sgf0VS22frn+leL0cNPkLgZurKPzhYqHDgxHNEUAChnFNgRntYvGoowsqHTvXl39g2RoylgcwKr2q/nRBHQyuNG2c6CN8aFMj2QqTm2hENVAnA+d4zA3mcCyZeGg+fCuuOmbOSSR5SwGEmFBmrCTF0asoF4pZCMaOk4EyDkFkzvB8K9/QkDffhJAJ82Vq5+oodcCeg8AfVAAnbEortiInNeQoFi7Dqqh62+4Locw97tejFQBnYFj1nerAoB+1wG62lctUFpAv/P8stkmgG7BWz5sil+A/b/yFu4Rd0lMAgB9JtUJep+rgA7rAn3ozmy9DNBxo+q+JwP0gypIYe5dMLlHJbrc0sb9BY8OCua170HvjwR5UluHojTSsc188hkC+vZXBHSmeWqgYdwGhSIrQgB9UAXvpQN23vqkEgQGqS9gBatKLn04maoiaJAO06D7ywLoRwDoiBmxgF6kRYd56NgfsRItUpxPyAe/wt6pw5EOvisf/Pqj5SJTVxx6rnaoOgB6FCY/0aytL0diY2q1dealWj8jv5fL5STojYC+mFkwsaT6ZsjguWAFmzfJt6LZbSWgwx6Pfujtsw/edi/rYPprlRSofy33EwGdjMJVdKKpsTM/KRo6AX07CpwwWKuSL77K+Z/4dQU08eeR1TvlRzR0rUg2hACnu55bDuglSflSs7kKArLjbOySal61gP4RaOg90NATDOJjupsNigvNVmpATd5N0F3nPoW880GY3P/6J6PmYNNyQHd0oIn3p5ncaa5+/+t7zHYAOjVHOYq12BiS/o4BWpy1lgZ9xCHS/SUAO/yhUpyEVgEblV0J+rbPV/5sAV04WtFsA6jceR4B/aCOa4WfGrmhTuKIToLYTnlvFsAySECHIEW3AQHdVRBcnra2HFhE8bAa+nbsd9J9q5jc55ZZcip7xmrYYZZA6IIBS5QusdcZf0TB9ROioZ8I6FHEitCATkBXl9OJgM5zqoCOedvzxPXTs6JCm7DrOgkkTgichovpZez3WkDXKpA835qmuBzQXfREGAouv7fhAZ2Ay1xWWWDri3OFN2jSjKMQDC9KjgsAcAI5q77xZw1mogleC8sQ0IswafL31NBPBHSuKE3ubTP33fqlzvotY+OMdHoBnXmuNMlVAZ3mvK5aQM8eMp1IjxHwJSMKk0Nsx6jVDCWjxmLDqQK6MgoH6MpuTwboDHRiYRc1ufPhjrEFZwOOQVYUjpMBOjTFgwCYWpO727EEdKetuDx0jsUodzW5/3RAD1OURUBQyGUhygpVMjf86iAB/cWYOYDIZdQok1+/GqBrkJ9+75wFAPr5APaTALp7/7Dzj9rSqPahEiMxkw4J6LljcBMo3ZcBul1bIY8F8zDz18I+SmsZj/EhkEhG2n8aoDsJkvyX64d4EGI0fnAa+skAvbYIkJu/rnrwva9321HwMZVqM/shuP51jcldYmFE+ldAj0BDF1ugbDwP6O4c6GcdNHRKtDRD8hLfOYe1fnKtXBQ1mbxGsLMeeyaTkeo//D3BPi8lHFVDZ4AGNXQKAg7QxagF5rQiyn0WUe5eQ1++mqf0U/3bp+qh4rrxEkDHRc2Yv6ev/ARAR0WqiuTPamsBLUxVkz2tOZYxnAKglzhX7rNKpTMCoA0sEsmS2rnmRqsP/aChhr4M0PnaxHb644POv0bjkek7Lr9SQ18B6LW2fhaQce9eW1hGAB2ujQFo5qKhs2LZSTR0aU4SYv7VTWf9we4XFtA/8RJ96edUAZ0FYSrMuHbLSjgz/q8WOwL69sUD5iPnnQjoy4BECgKd0tY/4Uvit5fiLPafqA1iXeegoR9sUg39EDX0VwyKc9qjvR9WG9HQfxqgc9OIxsn15iuHo79Yivh/ieo7EdCZ4MigOKn4yvPJv1j6K9200Qn3OwF9O3z/73v9RjMAIaoLpWB1X+o8eVViJJwwK4BeDfhbzUrUxkHwObWAPgwf+nSi22ar8HwrX3GAroumro56XgG3Un2mcDaY3DXtQMlArVv837bYPgGeYE6tnH/y8J07sOf31ZTlBHN0AAAgAElEQVTC/bXc5C6Slxx8RuCiMIKYslzaWsK0w4d+/633eh96gG0EDX0G7VPb61X6VWpghwB05wMP8Cp6wG3BklMB9BGYIhkUJ4AutcdtuVGM82qA/tELNSiuoqFbQFf/fXA2oA1GVEPSSyTb5SZ3C+gz6W6NSalx3jtAd4FWWrvMaugrAF196PoI+6RQc1++ZssBna9FkzsB/UALAL3sNHSeaadd1Y6geQMuDz0CBk4NvQLoljwWX0ixoFumcp8KhMsBnayHPvRXB3QVACvgTLLipak/viqg87tWAA27dyqAuwLQ6UMfbN1OG+lpBfRw6+D0fpUxCOgvQ0NnUNxKQC9HESTN9bIaugf0k23/OmjoDtCpVUv7PoA5/zCCndo4NXNprgJgJ/BLuUqCOUzqUoMYaUFiIrTlL1XTUwmdAUmSXmQBXSwA8KG3I23tvtvv9WlrAVgaCstMo5Z7x+kC9KjkofO4kYHr2lJDp9n0fZduNNutyb3iQ7eSfoBXqQChYOEpaOi1gM6eAbL/bJBPIEC3yoFT8IK+w6oA3Ubpu2dVNSZ1djptm9H+KzX0lYDuQD3MvFXDVPpLLIIdjIB+ED7cjwPQD1FDF0CXQql6tlfU8Jf9WGkCwuj7PPbMAfNRaOjbYSGp1H4RMNT/6LIHp76IBLW322TqUwZ0Ow8niwmgY6KrAfQwtK+INNR/ggI62/Yy2Ew09OOnrKG7oLhQsWk1MlktoNPkPowg0Jk4BFgRmBkUpxkprF+he8xr6CfuHZsLqcEoUnuqYo4hwJKAEmGIf4/a9qkstbWYmjI/PPYtk02jHSOZIqNDLYEJ2Pzd7MK8mZ2dliA4B9xRplXQ005gtuZ4F1kRs7WZC2S0PKhy8DEzqc2NxQTwS8ovgvDaFjsX7rvjC76wTABucMvnbpmcTs92aXcurrFjwZabqYdKmO+rfarvTRlswWqN4irhnWIK08he+nIV0BkUBx86Te723gCvsOwWJ+O79pDiQ+cGEguu5gcPEVieRfcv+BbFisSOfiybanVC7Q7mTO6qPdFVIGlr2JdbxeSOinFzB9HtjAPjREhhGXnFwJczu7qBnLZF4khQXE2U+yA0l5nUOuTQa9rassuZcOWNdD1XAvo2mN5pcqeGXsFAd9wDvoFoyycDdKv0CqC/mBBgp2Ducq4jdLkt09KV9lQOqKFrTYGCAPlHz88roFtaS3LiCkAPsQQr6FgNimPMQjVtrZqHroFh6nfm4tdmwYvigf3RkT0uaYLLotwFf0hwO38rSYSeu92GGhSnaWsj7bCMPFsyg6C7dMFj+iaDlUG4OI2o5MGV6FG+CxQt8NkOAnpWzymj8zsRFCcvKHNW047sUWtB4jqEOccVQcgSYRpBoNTQ/+bxMeT/s+QuKvTJvhAkV0DXSjN2/+jy6bu8Or96NX6miuQaXqFN7rInHRTzwKkvRXODEWHOtLEEUsmwCeLltESy50zGlNflzHeGHjG55kWJfZRFFoaOjmh5FIpB33ICeg7tThOsG22fUUsqV1CDaSpatiArkZdZqUqp/Zy5yeJZDY4rJWiej6GwQbNpm23NfOnf3tu0hqT/mX30Tf/xnUcX25bWl+JZaSoRRz11KWrCP5LGsopPbp/aGuj20LlKZ0IkMLn1aCfZg4pl/+JN21BScp9pWZjDftJ2D6EkfMvcHagLc6EGK5eWBGW54COdO83vPRVBOs9O7OGsaHtaXEYtRiJ6YJ4sjpKn4Ij3YH9u3Zfohz71kvnYRSXTOzMMQLdplIwbobvBAXvAHeGYmprc1aIhGokAeicilneY//LYflQs22lm0xvE2hWXWuzsGKcpewJyNl/P8lsVpGByp9//1y7fbnpRKKQdPtIEEF1z8eW4ajBqiMsBeklSTW3aoPAQaOgwuf/BvpQExbm2p5ES+tDLjJ0v3S6i7aeuuEefaQkm90Pmt3dkK0Fx8q72j6SB2XULMX3x0XI/UMiJJ2ImA34zn+5AdcELQfeXzRFUGaQPXVwrfJ7ds5pdoPtXmktBEWGhH+4narq9qC4odGdlRGZ16CJZcJQfnC4TZvrS7pX7vCBFhuj2NJhzv/nYU1Ez0nWeKlBYbMa08JwnWMyJacYWoNmgKI45x4oJ07o4DkFkv/nnbxqQ89pdWqQp1b60CroVQCfL4I4VqS74K5CM3I4FfC60tiH4c4f5bz84JBX6JtGXnul4cpqt5KT1Exibo7jDmvSr5ls/hc/9zAO6a3Qv+YggHAsPiMYCk1cRgJ5B4fwIqrclTato1XkAwULLlHn82P8ymfQ8+hmgUw61HVCC5nVq5Qx+45VIobFK0TamF0pV5VmVsvGsEgCFrDUCbR/Py8YlNh6/T5kkTlsLg6tgxp03i1KuMlFsMd3Z7uKXfuNvfD/0AOfo5j9/39hsamZTObmEdcVhZ+J1TRWr1Qyp1c30CEhTEwvoXGdbsM0UUf1vXXHBnJsbM++5aAM+D6Ai1ZyJFbCuLHAiGn1wjqCMVjVxSTMjdxDOq4wOCGwOpLaYT77YZA6gWUUZgB6FcMimP2Uww1Lepq1xzvh+zqVN2oA5MpJzc4PmQ+ctolgImrOwGQjLEUNwlR4DJy+UeMpkPBHQFcxrAZ3BWfvRfeo4alvLa7GwDM4crV8MLFWgsyZ3/rswPJhQC9MA8gPmly7pMTvRHGe9mUU1MQptOj3eW8L5DCdU2facdhAX7MhnHEL+/++/lJb63KrdaVEYAQFhxLZjmgiUSH+V93ZFqVBQBpr575wHQEdhH6c6uVL9YnKvbJtg+0c0TGTV5HKoVyYma902x2PwoSe2mr/6ybCUDZ5GPrTkoVf2N4FMhS9afOKobMnAXV7UkNej9OuO/Ih5z6U9ph+V1yqALt/QAjxh9nzt5hKDE12ZFPKkxlAOOfR9KOjTavZj3+u8uWWZR25Mkl36WNxH5sHgVfimAdrRQlwqxW3P7sc53Yg9P4rSrwsGhUIUMGVtTtTQVWs+5e2+4ovMkGKAKiXBojmaaDOH4ueYLz59FPt9szkWazHRFDvBOcEBSCGWhlpAr7U2BJ1H9b6fK0DnayXgo5AKUqjUVooVIUdT6gQTy7HrGRa+mbWOj5onAehTkeOmqa3NLMFXvri0ID5zahB57DIKVpRWqSGdAOSOfvYgU2IXDR2BD1nitwX0BA5JaW7RNDUnTDaBylzonFXKQALOdJmv3P7f1pT24bfO2oxw8z2/Mj6bmNmYj87LKYkRoGyP6SAzUubAaG891ZDHaq6IaYqnTXJ6zOwsTAigb1t6WSpSRXI4makUTmdWpeyAV0VDBBiriVwBnVuLPDaWjJjnI5vNH+5HBy0UOoljTxchIDLdkoJnW7qtYl6nUJBjJTixVGkqZX4pZy4sj5l/twMNZhZH0J2KwcT0BWPwZnTwRUdAF+AU8BXsbRagaD4XelJDbzP74j3m3qfGkBe93Sw0b5CyyPPzcyBdSk3vFYRzhCcd8Ae/J6DvLIyZm3dBkELBkJalYxDAcbra0KiQrjD6sEQgCcaRVUa3TTtcRR83Dfzj4eZ+8/GXm6RinCsQoIDOanFc85o5I9jJAboQBN9jhbiP7sygfO3h6hSdh6jixFWgCXYJ0ikdU7BAzsPiCFycb9lgDiW3mS89PW72JXoE0FndToWm6pz5zCg2CbVjtnluAy/MZfCZgeka/dBv2bUe9B8V0zUFHaFXVYILSPXqm4pVJ4m1RB8M7hrpM4DtO9jcaz67r8M8h32faALfFuAWSQ9KEtwdpL81w+cA6PEkzmE+ZmMuXjTvft1GcwHOa3J6yjTBQuumLRX6nKZMV6wMGZT2vJfMHs8GZpBxTKe70MN9pwD6y/GNJtO12SwV0NLWmfrxN+oBvKih83IlaIOt/4l3rSmo1MPk7qJjxecpwRG2nSQAnf8GPR2SfAKm7hapFZyL5tCIfsY8N/Vj9K+FaT23YKbBYObmZ2VDSd450yRgzqX5nT3O9apqEBUyOkDHnohFlsTkjn0l8B4tNUld7haYCHFkzAw6RcUIAPk42hN2lB+89a/c0a7XWjbEOLf8p38xMZec31CMQUMHlrOOdZiLwp90orJmrIQkOrhjgX0AE+Z6SPo7i2Pm3WBw/ZkXTHcCh5SAzoNMeSIwQyZTsJXiJOCqWheeU6DxIYP5DLf3mc883wJz3gA0MezpYhaAmBZGXsgxQEuDMrWciQZv8ec4QLEJQmT/7EvmQxcuml5UuZMYuhj2YQZz5wWGF2r+JyG+My1PJVvNSOu55otPorBMcqsZKaDPQZJ9t6MmnUwC2BfQDY69zd35UnOkaDQW0Aeg5f6z124wOwqHTXcS/REy7JEA2iB2MQ5BGSaKwMCigK5AUXE+Ov6OXw8B0P/ghZQUlnF8RnygooXT5M7OH2rlYYET/r32eyws89sXZJFChW5rNePK6/JnUbFVAApyyfxBv/x8DtZEHcskE2YyDzcB6E1BahgR+nR9KKCrll71xeL8gH5NTWnwOrU25CAA9sVz5lzQ+5bXbULKIwq05OZf0dccdO58lsyf25B/SWNPYl9TQDuSGjCfeq4Z+/48AGIO58DVXidnBU+21ii+TzQRxzEEl8/BtYRz2b/0EgB9nQiC64vz6GxKi46eZ9lbEtOEHwTQHe8I9hYikHD+5OtJAHo+Dd/5BRCkjkGQVQ09knJB0gRvIAFlAMZYyDw07qKe1888oFd86DWATgJJiUYcujgquS0tYsMbuKyxoMUYGEDrkvnJ0PfNpJkwE9ljZqm0JGAv91n6Sk13SlaWQk6grhKfG4XdqZPiU4tJjWB0WhNAh/m/lBZAT0iaDtLf4hnw0aTJLZRMc7Y18/AdX/Y+9AA7+b2f/VdDueb8llIkYzIQoopx2GAqB3OVA0owlm1vaPlhAqY7d8R4YFOJpGlemIDp8aD55Tf3CqC3oE0u+llA+MMWYFB8MH6gDE2Ue/6NQGE1fTJe7CPxJuBzBGbT3/tBFC0xd0ARSwDQ2cMbfkd8X4tW8G7uR/6XJj7EbuBH/omhgUDv3PPm995YMj0I7ENYCPzQ1szI5wSce4UhrwAqZ27X5iyt5lBiG5pVHDYT3ReahfRGk4ULLMPYFKhiFJYLNgjRKchq1lbfeBfa1J6L/tbvf0MfmrM8Z9pR2EncagQvmFmF9nXihyu9Nnytg2ib+qnnWyUPfeX513aY/JYyiCh867UX34d56B96zTw+D58QrBR0y56ww6k589GMLcgBMPDzbLoZ9N4ldD8EV8dUoqvSvc8Jb+59EvCd5+F2pDLT1NQkcT+Mct809bz5lTf0mnNQG70Dygj3UiXosXYS3EOrPHaVr1OW4g+0SOEvjHWisj2K2IXf/WEUNd1fg/MNoRVrzD8abOgKP2kwHDaUSccwb5R2bc4cNf25583/8aZedF07YFpoCYK8yLUgdHOriKvMLZuN9Qj8Bpw/ZMoipsSTO4eHjaR2mf/xg2EIsrBItWK/52FJsqZ+nolCjA27rAwpm876FILScMV9PxeArnvCIXG1UpP4jLCaS4tZmCa7xO+YKyGvvHjcPDP8AzM4+bIpJHEIJOlf2+C5uu7o3lMqx+ihlNh0CZYvxTBYsSS9IRjIy46V0SIGYNOjUkbE9BxswBGTTEbzqRj3H4KTyjANljOpLOygkUgpB19PtOMH//2O//rmOq1hQw1z25/+X18+lj32z6IwPUcgFecZKyEHXQ8tRSnwJJeDKEcGkdURRO/iHyj/U1exMVW4j0xCNReV4JMQwlxuuPjocCA7S9OTO9DzbM9rm82OxEETn52V7zeB+QCfAvvg5PBV3JFEWcs1+Q98tj3r+6P95j/v6zEHywNziXgijQ5Z5Ryi2aJQ0cHwUPW1hL2GsByaFE2K9WZoSRVTPKLc57cXD7beeu6o2R6FyZ2PoPBiCSaAHpgjVxVbOYM13IRDzsa7zJGmnebeJ46ZF8r92aXUhlSMbicUY5KWlwAhaSlcc1WA3ZSyXYXJ0Z6lfdtuvrjLvDYxbpqWJgyWQ/z+bIlORhq2Hr0TQNwUhPQEGHwOIVL8j55pMyNN503ko7EuTDrhgvBW1uJ2Vh0tgCLujsKWzEvx39w1ZwYy+wW45Fk17xrOf6sDibJJsAMZtZMeLNhNG8zzxR7zPx8/fnS4eWcE6VPrHX9cKZiwkAyVmRhs9YlEpJhdKpRbcqPHL4iNbbrlom7ThyDQ9sKUjYqvmbwFxRBbRzaPKEx2/tyLjAU4WOrDfu87djC29YViPL4Oc98IRamlXC6gqGcRXiqc4XKcYXI4f4ViS7IJzDdRik4PTu9I7jtnz4Wt5rzoGASRSbiYdIaizXN87QSjLyLnPvgbiIEFAgPke1mHQnu72Zffbh56NjP4stk0PhvvvDQSg3kYFwUlggjrP5UALcQP/D8fhakRfvgM4gB0pqgUBAaGppxcTTIn7VyA7BTJo5KyRfgdTnoRVICcg/8A5vD7GH6QMg1rdtXD5O4YeaXKFGtak9DqydOe5PmISSdaTGaBkeh5k+6MHN9z+VvXr9mL+wf/TFLg8MPXlroWfxxpiU8ypNjkF+i/C/4qjq+IMMHYD6K7ZTAaAatWyMUNbzDtb/0h8Tsw95l/5A3llrnHlaNZZTIHjY7aephL3qGGi2g0NI9eDF6JdWY8fUF5y/XfhigbfO5HHr22lBz7x8i6NDgntXPY29mkJgHzvfjRQ1y1gK5ZBnb+4CPHE+eb9XufC8Ujjz1wYXldHj1YJYhOLS61OdDBqWIxiUFxmYJJ0mQEa5JZKprj2SaT23y56dn9cKg9M/jQW4qb8y9Gk6Xj1fnXKpSkV+AdqfMXrRwqkKA6zQsIal5ou8S0XvejwHQ/9Ohbyh3TT5qOKEo0U1jAHwrHFUC3+0X2bsj5wyNgEi3AbOzJhUK3OZ6+zAy8/ZFQdA+xnU+wBIUZa9X31gvQ+WDJSxbDo/q0ZKWoofPA4wSl4s0IqIGHMR03i4Xph9597bV7Vj1hf0NDU+DQ3+4u9cdfiMTyR6z9Lhw/qAUTBXReyvgrJtl4ixlZGDD9v/R8YAbHUce/cGF5Y3K/+PyLeUTKA9QlbaySJrf6pT1Bu8WREw1bcrNQ4ctsMkciO83Azf8Qau4HvnhlcXt6GId7HHr7kok2EVVs+dGQHNm9A4FJ5u40OPjEZ2IXms53PRlq7tNfubjcUXwOxLZpbhbQq2bX1dN9+R3ssAaLAKN4mSKLIE4T3WQO5AbMue/5bqi5j/zt1cVN5kWMPI4xGU2p9QUqCm4dAD3CGCO6NzF8LAGTFwByIneu2fTe4ILUy/f+QnFHyxhqdiN2gRZ2ygpWcGUe+wk4HhLU5awycyTRa4ZyF5hz3v33oegeZkes2YM56boAug1SUUBX/zUjh+WASnShg3ikuIi5kSkzub+78eq3viMM4fy9jUeBoa9eX15fetykIxOVfGLpix6UITjLnwCJZLUrZ2AENX8nnBNBTtHXmXXv/HGosyrAUnqaaSAnQmDQ+dsprmTwUs4VaZt5APrRxIWmb+/fhZr78ANXl3sAitHiaMW6oOZSldvDXFU3gfIMzcjS4IVp0L3rXeHoPvWVy8qdpLvNN5ahhRo68cB7x72020POcwFgLMV6zCiEkf69j4ai+5H7315eX3gOO5CAjmwOCR517imdQKj5r5id/JiPmhnQPYwgNX7/bsz7BcgfRwHoiJliPEotoFvrF1cgzPzFgmY9vYwxyJQ3mmPRS83AjV8PRfcw+3nNHnymAF1KsgqrrAJ6PFbaf8PuK3aEIZy/t/Eo4AA9BUBfySACU4PauDjgaLunXZAqBJzDFaACoEcuCg3ox++/uNwNYCmD81SGroOG5Wp5O1+kCNIC6HBJlHvMsfiFpvem8IC+qfQcgkwBLJi/nOhaYSgg8ZdZGKSEKOdeCZ8yxwEs628KB+jH7r+svI6ALpYX23ecc7cBkGH96BWBRBQY7iP4xGObzHi0joAegSCFlFymdlaFN12AMGlfvL/WZSNkwfxFgL0puGVk/P5ryuvzAPQIBREFdAYr85JKcwyCqggmwSVCmvLduEkIUktmI86qB3RrJg92KrU4CHcCIjUpMSE8gDWVnQktbmtzMxyxIMU2YgiOK83duPsK3xwlGMkb9q7DD9ygGroZhatPm+1KZcKAPIFMhdG7jOxOFGBuZBZGnFG8SM2x43LoyQiAZe/ToYTv8Qd+odxZfhopY7YHAVN4BBdZmCXgC+BuF2wlMSw2mldN1wnky29CkZPXmE3v/EaouQ8+8E/LBPQUTO5llOjLU0hHNJxEw4eYv6O/FszU0q5xhB6RHiWEXB2P7DKbbgwOLDwo41+9uLyu/AzGZrtPJiay2Yggr1gQK9HjAU6VG09AEWb3BKuQITYyC5M7AX3r3odD0X38vmvL64rPg8YUpADoFauIFtgRtluN6lz1G2gNBjYZIrBrSeAyfOjT2O+b9gb3oR95gBr6S7AsTAig86xqsCJLxzJs1qWLcc8GT1Opnl8tVZyBAHscGvqWvQ+FovuqCVlzw5o9mHMIb3K3qQviL68FdEYqaxlY1w6zjNDYPL+GY5SEd2XP7it82liYndOA9x65bw+Y8xNwQ49KoI0wIXHrBCPGKwE6AzepUHBcMtEpc6HZcGNwn6IAywOXlTvMU3A30d7IWu7qs2cBpuB2a3J4rfSmgK4BahpcxpEB6NFdpuemb4biMycDdIQ7y7zDAjrnrqvISmQcz7XPpSC1y2ze80youY89uKvcDUB30fGsEyD+cwvoYTR0B+gcDbHRdQf0UWi660rPiMm9TAHWUcI2RJF9L9XyAh4AS3feLYV62LsAD5kxFwHQg1tGDj8IQM+/ZNLlCcyb6cvIhpGgOKZzskYIDy/EKamWw/UOFlgp+96aihjFTkCfjF5i+m56MNSeCcZN9K41e3C9AF0gmhoGAJ0cMC+lVqt13VVDx4Ii55WAzgB/BMpm9r7NA3qYjdOI9xLQNxafQG4ITZCaABdcu1VzI/8IAKIohTAZakLw+ylc0eJkzLEIzNY3hAP0o1/dBQ0dwEIwkSAea4OUAhvBGTJrm5OLMC9bm1DoxMkrMzBBHovvMgM3hAsSog9dTe7Why7nmM+pQ1GcyqszhsFGN9GUij+TEKQ27wlH94mvXVjqLD0XQeiCDi+iGgHFBskJKAS/pLiJy7MjTTBsAT70epjchx6ipvsMLFIARuf7F8sReG4l796ue4BXkLm7SoG0HDEaHeNPQ5DacGNwQUrmDUBvAqBTUGC6GOs1MLWQdSYYgKrox6JSYQRabkG1VkRgdqEAewyA3vtOD+gBtgNvqUa0I0lGGEotoEtxDZbJpISGtA5APhYxYVLl2MJNu3/RdzsLSPVGve3I/TcA0B9XE6QtHRmGHQugU3OgooDSxBLGCScfAZ0anWjwAui7AOjBGRzXa/zBC+FDByiKeZaAroAo2OKSv1e5sMKQWSENA7LMsuPPUukN4y9G4FOMXmQG9oTT0IcfeBsA/VkAOkyotWl2YcGQ71tJg3dMnk5WBFvjx6lyfQC9o/xcJEl6i23ZvYANt67HO9RKBBi2ENsIQH8tguL+IZTCNvQgfNHFpwTQKxhIQJcMaSuYQEMPKhCKHEnBkpYdOxyTsSfhLtgUQpAioG/IOQ1dff9qckdMKP6CNHbFDltUKswZpmQp74ExBdBjlyJmxJvcV8lK3NdfGdBRa0PLXwqgoySrADpMOmhfiirS0++66oqugA/1tzUoBY7cr1Hu6ptTc3hg5Za83abTSAEYIggbfADQqTVUTLR4xlT5YrNhbzhf7pGHVENHKXVUoHDWcbH9hmDIViIRQEfAlAtncRp6ebOZQoBT795wPvQhaOgbMXf60JlDTy3ONtsKRX9JD+RepvBkjZVMl+e6KqCHF6TG/m5XqaP8jAC6ejsUWaQLuwPzECq6CyqToixWQ6cPfQJC4EDYKPcH6EN/2iQjYwLozhgghhhBSAeKwV5AKGEBnXIO3NsoRasaehgB9sgDEEQQ5Z4oW98/Nf8KoOt620UIZR2RrWP3EIWcHC1S8KH37fVR7gEhogroaEshY2ixe5hV6EMno2STFlC7iN3Ob0hQnIlNvGv3FZsCPtTf1qAUGPnqNdByn4RvDukwlkFUWZm1NTub8yl8UrNxlu84VXFou2qB1PanjmFMmvBBcfTldhoEZ1mLgLgsxWRtEe0U5qucsPY9dSM4U7tjbrYEhJjcpxGh37s3nIZ+EJriBvj/U6UJmT+1OKl2ZwWHCnc+YX4r57viZ9DfuT0cZ5e3w3+kdC0APawPfeJrCugueLKyX6wwKAKh/DLY/hGrCLcOxohTyMS6ZqMbzdHyJWb7jY+E0tCPANC7sN9TUZjcOZKbIv9am2qwWrrb7zthmPvHCQxicjfh6D6Cea8vPmuSBHTZ6FXLfqWbXg0P0zVZPf2rYqAOtmQ2IGbkErPlxnACbBj2GmrBwzyY94YPiuMoqhZILWtqCrIu1qRS+b36OrTvL6qvRyOjN7ztrb1h5+/vbywKDH7lynJX7DnTAu+quN5k6zk1jz+4lKdT+6TlSPyGFkAkBwPpXhREacATLY6+3MhrzLo94QrLTH7t4nJ74UkTY4M1DSsRpszu3spYVz9/xhBojW3t7FYBLbwP5ZOlyDozW34NTO6PheIzL3/1beWuJCwjpWkpFMcaJxwwHk2hnjuj0k+N3ivXR/2rVc1TPA9uOWn6NRfAl/tCqLkff+gC+NAxBkGXZMZ/qqWGtTyvpPkFoL8IUChVWCgvqbuDtWUwfj7abaZyrzc7bwwnSA199a3l9ugT6IIxU4nG5zuQZtyzkhWAuStIrn7/0BXKDpjq9tFCd0BFFPS52HTuCW6R2gcNvRsCYAcsaVroiOvKvhu0KPBcrbhEWln9/FGmUBeUtcsw9/lIt5ks7jLb3/mdUHsmDFddswdz0uJdJSAAAAuOSURBVPUHdI6qTjEtJ8PD6gCfO15TRaKR0pE91+zuC0M4f2/jUWDwwbeWO5MvmFhm3KQBijFxSDsECEIP7FUyHGzRDMyN3LnJgjbIkOhzCfRE5azSeWbTTS+FOquTD1xU7ig8JZXiWFAMTaoAiGByUHeDug3Ex28tCsgms75EJUkWRbkXo+vNVGGHOffG74ea+6GHryt3pp8wkcyEiWuDOwgjoBBK16ab1Icf5NLGPHpnJZ6Py2m15qnIa033jc+Gmvv0Q68tdRQxBgHdji3D21GrYBjkDRBZvVQAEEL0gzSFhmNSn6iU6jXTmUvNtreH8+Xu/+pbyl3xZ00zRJsUg9ktcDM6XNddGwC5FLYgb8BufyW2b8WelMZk2PJziLvoeOdTgen+0oPXljfEnjZN6LiWcoDONqciOGAD1ayxztm+zGpfQOjBKndltMeGINW0yUwXLyhvffu3Aw642gmc+P3ARAv/aA/o9aChH+PMUWDfw1eVOxMvogX6qGkGo0iTgWqWU6BL/OS0rFvtiopanPnojCCGGir9q4GUo4XzTf+7wgHL5N9eXO6C1lJGLyHwTw0npdUqpBfR1XuoYCqD5KANZWH/nUct91x6V7n32odDMbjB+68ut8fBoGFyZwEPNLzAf9iKmAFPDIYNRH7R1KStecVCQaIQofAJS4kA+s1PBBxd5zR93yUK6DTpCJI7UogZRtMfg03fFsIBHSidmQVZVxY8WkIf8fnCZaUt73woVKX+4YdvKKcLPzGtpaM1gG5pVGnHGnDy9jbJPZfOltp0JwKp5DjS1jbcHFxDP/gQXAUxROfnR1kYUSwIbK8t9Y7wg+x9K4AGpb17a25FyJXY6zjKqR4zWzy/sOO6b0lDlrW4Qm3WsBNeMw09WhrZc/Xu/rDz9/c3FgWevH9PoTn+QiwdmTRtOMll9OaOo71VUJM1gzZF88GVg+2VRTbiRRaYQXY1mwpJ5ZSoOVraarbdGM6MN/Glt5W7Ey9DDQJTg6O1DMZJF1QJAE/TfxCTo0zPugjQ1U00Nb5DAZp/FvSZj3aZiaUN+Yvf/bUQLWzQ9ezBW0qx7FORtvgM0o5gUWBQNC1vKC5TAMcuCiqv3mRKc3eSUc+Sk8WCLxxLzfdRvNdMbGd5w95vhBJGjt53fbGj/CJSn9XPQeuLC3hkT/Uci55U+/+t6j1iQKg4ujeyqEwRrYS1IlrSzOU7TT71+uy2G/8GDpbg19NfvrG0MT0SaS4fk30ax3MIGGIqlx7lmg5WaYy1SpeTSGJonMU9HmPTSprFoaFPF84vbb750cDCyAsP3Vhqyj8XaYkcMy3Yi1xf5v9LfIrkna+0KgRz2fC9c0V0qkPb1Dl8LpludPK8YPHSGx9sCU71cHc2JKAjJX34Hbuv2hKOdP7uRqPAM9/8zfGkOdgdK07G02AS2SX0uKcfV06RsLpVfTKHPS5+OLZVVLOxaOgAlIItiIEGqeXZ6MD0rhv+qjsMvQ995V9NNBcOrVukLgEml462QhhJojkXeso75/Gq508/Kos4MfgU7WxFA8XfALbFRLS8EG0vRJu2HT1/96dDubdefvg3p+PF/e1N6DJZRnuuUsFWuwMQIGnKRumvnv4C6MxOphtUfOkAKOiLeCcUpIuU58r9kzve9Zehgmf33ferU21muCOHsHBaXJh9Q4Dhs9VloaAYZP+wr0kcmRHlQoktRdFwB8JJIlmeK6QLpciO8Z03fHprmD3z4rc/MlOafaG9qTQrmi7nzEuCBpm2yZ0rroRg8+dtzYmmciFXKC1E5tFwNo8OAM3FbHzH8R03/d+B+fOz3/zgXLpwqDVlZtW/xOJH3KEC6BpsGoHApperw7D6/YMiTeViIVtONjWXM3Ac5OPduVJ5++iF13zmvDB0D3NvYwJ6xBx+xzVXDYQhnL/XU8BTwFPAU8BT4GyiQGMCutfQz6Y96OfiKeAp4CngKVAHCjQkoEe9D70OW8cP4SngKeAp4ClwNlHAA/rZtBp+Lp4CngKeAp4CngIBKeABPSDh/G2eAp4CngKeAp4CZxMFPKCfTavh5+Ip4CngKeAp4CkQkAINCeg+bS3gbvG3eQp4CngKeAqctRRoTED3aWtn7Yb0E/MU8BTwFPAUCEaBhgR01HIfQi33UEUXgpHb3+Up4CngKeAp4ClweijQkIAei5UGb9i9e9vpIakf1VPAU8BTwFPAU+DMU6AhAR0+9EMo/br9zJPbP9FTwFPAU8BTwFPg9FCgIQEdPR0O7rnmqnNOD0n9qJ4CngKeAp4CngJnngINCuilA/Chn3vmye2f6CngKeAp4CngKXB6KNCQgB6Plfa/Y/fuHaeHpH5UTwFPAU8BTwFPgTNPAQ/oZ57m/omeAp4CngKeAp4CdaeAB/S6k9QP6CngKeAp4CngKXDmKeAB/czT3D/RU8BTwFPAU8BToO4UaEhAR2EZHxRX963kB/QU8BTwFPAUWEsKNCig+7S1tdx0/tmeAp4CngKeAvWngAf0+tPUj+gp4CngKeAp4ClwxinQkIDuK8Wd8X3mH+gp4CngKeApcJop4AH9NBPYD+8p4CngKeAp4ClwJijgAf1MUNk/w1PAU8BTwFPAU+A0U6AhAd13WzvNu8oP7yngKeAp4ClwxingAf2Mk9w/0FPAU8BTwFPAU6D+FGhIQEce+hCas2ytPzn9iJ4CngKeAp4CngJrQwEP6GtDd/9UTwFPAU8BTwFPgbpSoCEBPR4xh99xzVUDdaWkH8xTwFPAU8BTwFNgDSnQmIAeM8Pv2H3VljWku3+0p4CngKeAp4CnQF0p0JCADh/6EfjQ++pKST+Yp4CngKeAp4CnwBpSoCEBPRYzYzfsvqpnDenuH+0p4CngKeAp4ClQVwo0JKBHo6XxPVfv3lxXSvrBPAU8BTwFPAU8BdaQAg0J6KjlfhQ+9I1rSHf/aE8BTwFPAU8BT4G6UqAhAT0aM8f27L5qQ10p6QfzFPAU8BTwFPAUWEMKNCagR0rHERS3fg3p7h/tKeAp4CngKeApUFcKNCSgxyOlyXdcs3tdXSnpB/MU8BTwFPAU8BRYQwp4QF9D4vtHewp4CngKeAp4CtSLAg0J6PChT8GH3l0vIvpxPAU8BTwFPAU8BdaaAh7Q13oF/PM9BTwFPAU8BTwF6kABD+h1IKIfwlPAU8BTwFPAU2CtKdCogD4Nk3vXWhPfP99TwFPAU8BTwFOgXhRoSEBHlPsMotw760VEP46ngKeAp4CngKfAWlOgUQF9FoDesdbE98/3FPAU8BTwFPAUqBcFGhLQEeU+B5N7e72I6MfxFPAU8BTwFPAUWGsKNCSgw+S+AA29da2J75/vKeAp4CngKeApUC8KNCSgox/6Ikq/ttSLiH4cTwFPAU8BTwFPgbWmQEMCOrqtZdBtrWmtie+f7yngKeAp4CngKVAvCjQmoEdKWZjc0/Uioh/HU8BTwFPAU8BTYK0p4AF9rVfAP99TwFPAU8BTwFOgDhTwgF4HIvohPAU8BTwFPAU8BdaaAh7Q13oF/PM9BTwFPAU8BTwF6kCBxgR0HxRXh63jh/AU8BTwFPAUOJso4AH9bFoNPxdPAU8BTwFPAU+BgBRoSED3eegBd4u/zVPAU8BTwFPgrKVAYwK6L/161m5IPzFPAU8BTwFPgWAUaFRAn0It9+5gJPN3eQp4CngKeAp4Cpx9FGhUQD8GQN9w9i2Hn5GngKeAp4CngKdAMAo0JKDHYmbsht1X9QQjmb/LU8BTwFPAU8BT4OyjQEMCOmq5D6OW+5azbzn8jDwFPAU8BTwFPAWCUaAhAT0aMQf3XHPVOcFI5u/yFPAU8BTwFPAUOPso0JiAHjMvwIf+mrNvOfyMPAU8BTwFPAU8BYJRoCEBPR4rvfiO3bsvCEYyf5engKeAp4CngKfA2UeBhgT0qNfQz76d6GfkKeAp4CngKRCKAv8bi+4xSx5EjuwAAAAASUVORK5CYII=;" vertex="1" parent="XJBxNDXNKOUv2HLO4PTf-41">
          <mxGeometry x="303.44651162790694" y="91.4942528735632" width="46.89627906976744" height="46.89627906976744" as="geometry" />
        </mxCell>
        <mxCell id="XJBxNDXNKOUv2HLO4PTf-23" value="" style="group" vertex="1" connectable="0" parent="XJBxNDXNKOUv2HLO4PTf-41">
          <mxGeometry x="151.72325581395347" y="298.8505747126437" width="82.75813953488371" height="101.14942528735632" as="geometry" />
        </mxCell>
        <mxCell id="XJBxNDXNKOUv2HLO4PTf-15" value="" style="image;sketch=0;aspect=fixed;html=1;points=[];align=center;fontSize=12;image=img/lib/mscae/VM_Linux.svg;" vertex="1" parent="XJBxNDXNKOUv2HLO4PTf-23">
          <mxGeometry x="1.397693023255797" width="79.96275348837207" height="73.5627906976744" as="geometry" />
        </mxCell>
        <mxCell id="XJBxNDXNKOUv2HLO4PTf-22" value="Rasberry Pi" style="text;html=1;align=center;verticalAlign=middle;resizable=0;points=[];autosize=1;strokeColor=none;fillColor=none;" vertex="1" parent="XJBxNDXNKOUv2HLO4PTf-23">
          <mxGeometry y="73.5632183908046" width="90" height="30" as="geometry" />
        </mxCell>
        <mxCell id="XJBxNDXNKOUv2HLO4PTf-25" value="" style="shape=image;verticalLabelPosition=bottom;labelBackgroundColor=default;verticalAlign=top;aspect=fixed;imageAspect=0;image=data:image/png,iVBORw0KGgoAAAANSUhEUgAAAgAAAAIACAYAAAD0eNT6AAAABHNCSVQICAgIfAhkiAAAAAlwSFlzAAAOxAAADsQBlSsOGwAAABl0RVh0U29mdHdhcmUAd3d3Lmlua3NjYXBlLm9yZ5vuPBoAACAASURBVHic7d17fFx1nf/x9+fMTNIrpcVry6VoKUhppiVYyKRgUECQm6gBklJkdWVXRFFckF1vFX+uePl5wYe64urWlqTFsCoK1AtCLbm0QGmStkgLKLSCXKQt0Gsycz77R4NbuqWZNDNzJjmv5+MxPB5Mvuec9wQy5z1nzvkeCQAAAAAAAAAAAAAAAAAAAAAAAAAAAAAAAAAAAAAAAAAAAAAAAAAAAAAAAAAAAAAAAAAAAAAAAAAAAAAAAAAAAAAAAAAAAAAAAAAAAAAAAAAAAAAAAAAAAAAAAAAAAAAAAAAAAAAAAAAAAAAAAAAAAAAAAAAAAAAAAAAAAAAAAAAAAAAAAAAAAAAAAAAAAAAAAAAAAAAAAAAAAAAAAAAAAAAAAAAAAAAAAAAAAAAAAAAAAAAAAAAAAAAAAAAAAAAAAAAAAAAAAAAAAAAAAAAAAAAAAAAAAAAAAAAAAAAAAAAAAAAAAEBZsKgDQKo979qxiWzvZA9yr8uFwfOB7Xqi9Y7vb446FwAUSl39FWPCbZVH8j5XPigAETrl3E+c4Qo/IbdTJVXu8aOcpHvd/Xutd3z7VkkeTUIAGJzZZ3/itMD8apferv/7PtdqZt9b9qtvtoj3uZKjAETgxLM+elBFkFgg0/n9jXXp3mSYunDpnV97uhTZAKAQas+7dmwi3PUTl12Qx/BW9erCe3/zrb8WPRj+jgJQYnXv/vjBuZyWyTV9AItttERQu+y2b2wsWjAAKJDTTvvUuF0jdi2TVDWAxTa6+ezWX317Q7Fy4ZWCqAPEjIVZNQ9w5y9Jh3kud9u0+nkVRUkFAIVju0bsbNbAdv6SdJi5fnHWWR+t7H8oCoECUEInn3vVe1w668CWtpmH7Hjhw4VNBACFNfucT7xbsncd2NI2c2uQ4H2uRCgAJWXXDG55v0Z8bQOgjAUKrx3UCkzXaN489k0lwC+5RE5+58ffKNeswazDpUknn/OJtxYqEwAUUt27rnmDywb1Pidp4uz7NvM+VwIUgBKxCpuuQnx6Nx/o92oAUBJhIlulAuxXLBjw+QM4ABSAEgnlry/Qit5YkPUAQIF5GL6uICsy3udKgQJQIoG8MGfwB0oVZD0AUGAuK8j7nHvA+1wJUAAAAIghCgAAADFEAQAAIIYoAAAAxBAFAACAGKIAAAAQQxQAAABiiAIAAEAMUQAAAIghCgAAADFEAQAAIIYoAAAAxBAFAACAGKIAAAAQQxQAAABiiAIAAEAMUQAAAIghCgAAADFEAQAAIIYoAAAAxBAFAACAGKIAAAAQQxQAAABiiAIAAEAMUQAAAIghCgAAADFEAQAAIIYoAAAAxBAFAACAGKIAAAAQQxQAAABiiAIAAEAMUQAAAIghCgAAADFEAQAAIIYoAAAAxBAFAACAGKIAAAAQQxQAAABiiAIAAEAMUQAAAIghCgAAADFEAQAAIIYoAAAAxBAFAACAGKIAAAAQQxQAAABiiAIAAEAMUQAAAIghCgAAADFEAQAAIIYoAAAAxBAFAACAGKIAAAAQQxQAAABiiAIAAEAMUQAAAIihZNQBABSMVWXmvjYZ9hwSKjkhTIYTAg8muHyCXBMkpdwtMPNxu4d7UmZj5domqafvuZcky5qUc9kmKdzklnjeLLcpsGBTz86eTcdO1nMtLS25qF4kgMKgAABDyPTZjePNg+Ms9KPM/PDQfbKZHW7S4S4dJuUqckFCkstCk8tfsbzZnv9u2uvHu5/Ty0+7JJN5KLkplCuZSmn9k+pNZxqfNGmDS09IesJkG9z80SDoXbPq3pbnivTyARQQBQAoQ3V1dcnnsxPT5j5T0jRzmyZpmkJNlMK/77vN9txhl0xK0mSXJr/8hMsll8JcSulM43OS1sj0kGRrAg+7Xhq35cFHlyzZVdqYAPaHAgCUgZm1F0/MmVUHoVWHptrNPcoE0qiXP5EPMa+VdKpcp0quUKbRL4zPpmsa18vU6q42C3xlV9uih1Ty7gLgZRQAIALT6urHJLLJUy20c+Q6PXQdad73qX547hKTMh0r6VgzXS43pTONz8r0B3PdFebszu4VTX+JOiQQJxQAoCTmBTNqHj5JFpzt0unq0fGSEpKG6If8gnidXPUu1VvCPZ1p6Daz34XuS46elP0DJxoCxUUBAIqkvr4+sf6vyRqFVi+te68rmBR1pjJmkqXdlTbZv6x/MrUpnWm8w1y/Crcl7uzuXrgt6oDAcEMBAApqXjCjdt073K1h3ZM6z6RDdj9fso/5L0p6WtImlzaZ9LxJm9x8k9x2ydRjuy/7k8x2KfTtbl5pslGSFLpGmmmEpJRcE1w+wWQTZHaI5BNceu3/vqaimiBprpvm2pjcizMyc+4IzRando5asnLlTb0l2D4w7FEAgAI4vuaSKTkL3y+tf7+7HSYVbZcfSvqTpDXu9ogFvsHNnwh79URyZOWGzqXztxRns/+rqmruaBubnWyyI1x2uLkf5qaj3O04k0/R7qsECukglzeYe0O2cusz6UxjkyvxX93tC9cUeDtArFAAgANUXX35qGzlSxdJ+oecwtkq/D5/q9wfkOk+d1srD9aMtl1/7Oho2VHg7QxI3+H4tX2PV5g2rb4iOKji6CDQse6aHrgf76aTJI0v0OZfL+lqU+7qqkzjA4Hb/ERPz80rV7a8UKD1A7FBAQAGqHr2pYdnw+wVWW39kGQTCrVel/3RFHaYguU51/JjDu15aKidCLd2bUuPpNV9j1v6nraq2kumKgxPlNmJJs9IqtIgpyI36QQ3PyFbmfpyuqbxJ0rkvtPVesv6wb0CID4oAECeps9urA5CXZUNsw0qzN/OczItNdddiSD565WtCzbs+cPVBdhAmfDutpvXSVonaYEkVdc1vCa3y05102mSztAekwodgLEyXakw8ZGq2sbfy/zG7tZFt4s5BoD9ogAA+2czahrOl9lnPFT1oFcmrQxNP0tYcMeq1pu7FdOd1Mqli/4mqaXvoaraS44OQj/LLXyPZLU6sKMDZq7T5HZaVWbOH03hv0+dlF001I6iAKVCAQD2zapmN5wThPZ516B2/KFJqyTdrpyaOlc0P1KogMPJHkcIvnXMrEsPqUhkzzZTvXYfHagY6PpM/hbJFq7/S+r6GZnGGw6ueOrHS5cuzRY6NzCUUQCAV5gXpGsfqZeHn1Foxx3wx3PXQxb4fJM3rWpb/FQhEw53D9+34Hnt/qpgwfTZjeMDt4sU6jKZnzjglZmOdOkHm3smfipdM+dLyZ7RC7mMENiNAgD0SWfmnGG2/mvuqjrAE/q3yLXYE+H87tbFKwqdL45WtzZvlvQfkv5j5slzjs1ldZmZXyLpjQNc1Ztk/qNs5dZ/rco0XNfdvui/C58WGFooAIi9qszc48zCr8n9TD+Aj/wuPSDXd16srPjp40vn7yx8QkjSqnubHpJ0bV1d3b9t6Zl4tksflfSOAa5misluTdc2trmFn6SoIc4oAIit6rqG12R77LNS7gr5gP8WQkl3BqG+vWp5813FyId96/su/zZJt6VnXzRVYeIjkv5R0qi8V+KqNQ+WpzONt4eBrlrd2vynIsUFyhYFALFTV1eX3Nw78aPZHl0vacwAF39RZt/zrL7L3eui13fd/1XHzLr0+spE74dk9nHtniwoX+cEoU6fkWm8Yeu4zV9+dMmSXUWKCpSdQU3EAQw1MzKNMzb3TGyX6xsa2M7/JUlfyXrvkV1tTf/Kzr+8PHzfgue7OhbdsG3c5iNM+ifJnxzA4pUufX7MC+PXzqhtOL1oIYEywxEAxEJV1dzRNib3WZf+RS/fhjc/L0n6XhjoK30npKGM9X2Cv2natPr5qXGpy1z+OcnyugujS2+W22/TtY0t7okru9sXPlvkuECkOAKAYS9dM+ccG5N7WNKnlP/Of7vLvjQiZ4d2tTdfx85/aFm7tqWns735phcqKqdI/klJ+f/3c9VLuYfSmca5xUsIRI8jABi2amrqR2631A2Sf1T5X9fnMt1qufDaruWLHy9iPJRA31UZ35g+u/G/glCfkvRxSZX9Ldd3y+MF6Uzj+ckK/+e+mQuBYYUjABiWqmZffOJ2S3VJ+pjy3/nf7WFwQldb84Wd7PyHldWtzZu72puvSwbJqZIWKv8pmN+b7bE1VbMbzi1iPCASHAHAsFJdfXmqt3Lb5y3065T/4f6/yO1jXR1NPy9mNkSv74ZLl07PNP5n4Pq+TMfmsdjrLbTbqjJzvp/aNfqalStv2l7snEApcAQAw8bMTOMR2cqtbSb/tPLb+edM+vZOG3EsO/94Wd3evCz7Yu9MSZ+VlM/kTWbyK7KVW1emaxumFTkeUBIUAAwLVZmGt4fSfZLemt8S3iVXprO9+ePr2n78UlHDoSytXdvS09Xe/P/CQNMk/SbPxY6R2/3pTMM/FDMbUAoUAAxx84IZmcZ5JvudpNflscAud10zdVK2uquj+b5ip0P5W93a/Keu9uYzJV0qaUsei4yU7MfpmsbvTJtWP+A7FQLlggKAIeuYWZcekq595A6XPq/8/l9ea9JJ3R3NX+ce8dhbV3vzwlwyrJJ0d14LmK5MjUu1zzjp4slFDQYUCQUAQ1K6tmFaZTL7gNzPzGN4TtJXsi/0Ht/Z3txZ7GwYutYsW7yxq33q6TJdrTzODXCp2oNgxcxMQ00J4gEFRQHAkDOjtuF0ubVJmpzH8MfdglO72puvW7u2pafI0TAszAu72pq/KfMTJOVTGF8Xyu5O1865qNjJgEKiAGBIqapt/KC73SFpXH9jXboz673V3W0331uCaBhmutoWrd02bvNJkm7MY/gIuS+akWmcp/znnQAiRQHAUGEzMo3zzPWfklL9jHVJX+lun3ru2o6WTSXIhmHq0SVLdnW1N1+l3ScI9nf9v7n0+XSm8cecHIihgAKAsjdtWn3FjEzDT/tO9uvPc0GoM7ram6+T5oVFD4dY6GpvXmhSraQ/5TH8suS41JKjaz8wtti5gMGgAKCsVVdfPip5cMVtLntfHsPvzyXD6lXLm+8qejDETmd7c6dVVFS7dGcew98+wnfeNa2mfkLRgwEHiAKAslVVNXd0tnLrL/M609/858ldY+rWLFu8sQTREFOdS+dvOXpS73nK77yAWUml7p1Ze/HEYucCDgQFAGVpRt1lB9uY3F2S3pHH8Bu72o5+H3O0oxRaWlpyXe3NV5n0T5Ky+x1sOjYMg9aqU+YeWZp0QP4oACg7x53Y8Hr19vxB0kn9DM2a9E+7T9Li+36UVmd7801yu0DS1v0ONB1p2dw9x9dcMqU0yYD8UABQVqqrL08lEnanu6r6GbpVsrM725tvKkkwYB+6Oppul4enSPprP0OPyFl4R1XV3NGlyAXkgwKAstJbue18Scf3M2yzm53e1d7021JkAvanq2PxqoQHp0h6op+hUzU6995SZALykYw6ALAnk47oZ8izJr2zq62JKX3zNK2ufsyI7MgJuTA7IXQ7JOFuuaSPDHI24u+DTD0WapskZZPanMiGz1d6YtOKFU0vRhZ8CHmw4+ZHjzvl4pMT2eAuSVNfdaCJcwFQNigAKC9BuELhq02k5k+GrtNWdyx6uKSZytzRtR8YOyLc+RYPND1wvcllh0s+WdJhkt6oHlVk+85VM3OFJllo8r1+zd53PDAIJQ8C7ZQrnWnMSv6MzB43tw2ucKNcfzIP1mhEam3n0vn53D0vFtYsW7xx2lvr35ZMpX4rafq+R9nakoYC9oMCgLLS1bqoNV3b8PO+k6v29CdPJk9bvWzhnyMJViaOrv3A2Erf8VaZnRS4n+iyKvnOI2Qy891TIL78zwJJSjZJrkkur5VMMsnNpZ4epTMNT8qC1ea+Ime2QubLV7c2by5kgKFk7f0tT0+rqa9LWmqJpFl7/fi+CRVP/iKKXMC+UABQdrYdtKVh1AsTPiv5XJPGu+lX8sQnupctfDbqbKVWXX35qN6Kl04xs9PNdJr7zmmSJeSSl8WU8zZJ7pNcOjNwl1yezjSuk+n3FvpdiZ7sPStXtrwQdcpSWtvRsmnKWWedMnrLhH+T+QUmjXLZnVaR+tzSpUv3f9kgUEIUAJSdR5cs2SXpM32P2Kk6cc6hlggvkOzdWW2tNVmlJHlBP9gXjUk6Rq5j3Owj2cpUNp2Zc59JtwVuP3uw4+ZHow5YCn3/D39e+U1fDUSCAgCUgXTNpZMs6G30MHivzGdJVg4f7wshKXnGpUzO/Cszahu7Xf7fOQ+b1rTf8ljU4YA4owAAEZly1lmVo146+AxzmyvPXuBuSdnQ+Jh/oHbP72BVCSW+MCPTuFLSTTtsxKJ1bT9+KepsQNxQAIASq5596eHZMHuFv6B/NOmQEmxyu6TnJd8k2SY35QL3LW57tQ3Xwdo9N8iEvschksYUK5RL1ZJ+MMJ3/v+qzJwFMruxu+3mdcXaHoBXogAAJZKe3TDbQl2VDbPvlpQs4DF+l/TE7kvMfI3JHnP3DUHSNgbbRz8+mHskTK67bMS47I7Dg2zi8DDww0w2xc3fIrfpko6UlChA/jEmv0LuH07XzvmNQv9WV0fzb1XgyxkAvBIFACiydG3jqe76vEK9rTB7NH9SsuXuWq4gWLFLFZ3FOoT++NL5OyWt73u8Qk1N/chtiUSVcsFJgdmJ7n7SICe6MbmfKdOZfV8PfLGzvfmXoggARUEBAIqkKtPwdpPmyXXyID/tvyDpHpP/Tjn7XeeKRY8UJOAgdXS07JC0ou8haffXG72ePd1cp2v3nRxfcyDr7vt64BfpTGOn3K7v6mj6hSgCQEFRAIACm17TcEwQ2PVy1Q9iNX+TtMQDb8ltzv5m7dqWnkLlK6aVrQs2SPrR7se8YPrs9TMToc51qVHSUQewyhky/1k603ifAv9kV+ui1sImBuKLAgAUyHEnNrw+kbDrJX1QfgDfjbu2ufzWIJGY39k6ZdnQv8XxvHB1q1ZKWinpC1WzL56lMHGpyRskjR/gymYptGXpmjktngqu6475jJBAIVAAgEGbF6RrH7lc7l+WdPABrOA+yf9jZzDy1mF8OZx3ty5eIWnF5LrLPjmut/d8uX9I0tulvKc0NJlfaNncuVW1c76Y2jn66ytX3tRbvMjA8EYBAAZhes2c6WbrfyBXzQAX7ZXpF0FON61a3nxXUcKVqb4TC2+RdEt69kVTFSY+ItcHZRqd5ypGmvu/Zyu3XlaVafhwd/uiu4sYFxi2KADAAairq0tu6pn4aZN/WlJqAIvucPMfJORfW9W2+Kli5RsqulpvWS/pqmNmXXp9ZSp7lVwfkzQuz8WnmuyudE3jd0ep99q+kxIB5CmIOgAw1KRnXzR1c8/ENpPmKf+d/3ZJ38j29r6pu23RJ9j5v9LD9y14vqut+XNWUTHZpC9Iyvc2wybTldst9eDM2otPKGZGYLihAAADkK6d888KE6v0f2/1+mpCyX8cWHhUV3vzJ9fe3/J0MfMNdZ1L52/pbG+el/XeN8v1TUn5Xv1wTOhBezrT+BlpHu9rQB74CgDIQ1XV3NHBmPCH7t4wgMV+FwTBNatab+4qWrBham1HyyZJVx+Xuei7SQU3uOx9eSyWkvTFdGb9ycmKhjkrly76W5FjAkMaTRnoR3r2RVNtTK7DlefO3+xpd72/q735DHb+g7Om/ZbHOtsX1QfudZIeznOxM7I9tmpmpmGgJ2YCsUIBAPZjRqbxfIWJByRNz2N4aNL3LZV6S3dH84JiZ4uTVR2L/jDKe4836d8l5XPp36GhbOmMzJwPFTsbMFRRAIBXUVXTeJVLP5M0tr+xLm2wIHhHZ3vzFZ1L5+d7AhsGoKOjZUdne/OnXYnjJXXmsUiFy29KZxq/zXkBwP/FHwWwl/r6+kS6pvE7ZvqW8vkbMbV4oBmdrTcvLXo4qLt94ZoXKipqJH1FUj6zJX4sXbvu1urqy0cVORowpFAAgD3U1NSPXP9kxW0yXZnH8BfNdWFXW/OFq1ubNxc9HP7u8aXzd3a1N1/nbmdIeqbfBdwuyFZsu3taTf2E4qcDhgYKANCnqmru6G1B6peSn53H8IeDhNV0djS3FD0YXlV3R9PvXYkqSf3PBmh+YlKpe2fWXjyx+MmA8kcBACRNn9043sbk7jLXaXkMb/KtiRNW3dv0UNGDoV/d7QufTe4ac2bfvAH7Zzo29OCe6tmXHl6CaEBZowAg9qqr68cFoe6WdFI/Q93N/q2rvfmS7u6F20qRDflZufKm3q6O5qvl9kH1f5XA1GyYXcaRAMQdBQCxl61I3SBpRj/Ddsr84u62pi+XIhMOTFdH049dfqb6n0r4CHf7dikyAeWKAgCYzu9nxKZA/vautkU/LUkeDEp3+6K7E2Eu49KG/Y1zWT7negDDFgUAseeyV/+0aPZ06Fa3qn1RRwkjYZAeXH7LH1NB8mRJj+xnWD4TCgHDFgUAML/5VX6yUZZ92+qOptUlzYOCWNm6YEO2t/cUSfv+7+fiCg7EGgUAsTch9dRXTbbolc/6mkA6ue9+9Rii1t7f8nTWe+tk9uu9frQ8TOiaSEIBZYK7ASL2li5dmpXUWFU750bzMCPTX7Jbsr9Yu7Yl31vRooz13VnwrBknzalV4NNCt8e6O466R5qXzyyCwLBFAQD6dLc1LZe0POocKI7O5U1tktqizgGUC74CAAAghigAAADEEAUAAIAYogAAABBDFAAAAGKIAgAAQAxRAIAYO7r2A2OjzgAgGswDAAxDdXV1yS09E49z86nmOsplUySbKvkbJI2WNErSWPlOpTONkmubTNslvSTpb5IecemRwO0RmR7pfaGni4mRgOGFAgAMA9XVl6dyqW2zwoROMemUzT1eK2ms3OR/H+WvvgLTaO0uBq+V9CZJs0yS2+5lkuNSO9I1DSvM7A+hfNloz3Z0dLTsKN4rAlBsFABgyJoXpGevyyi0+qy2XizpdbafffwgjZRZnUt1JtN2S+1I1zbe7uYLUzvG/nrlypu4sx4wxFAAgCFmZu3FEz20K93WX6LQDosoxki56s2tPlu59bl0Zs7ihNuND3bc/GhEeQAMEAUAGCKOy1z05oQSHwtdl8s0Iuo8e3it5B/NmX8knWm8082+1HdfBQBljAIAlLmq2kuONg9vkHSeyvvKnUDSOeZ+TjrTeHdg4adWtS1+IOpQAPaNAgCUqWl19WOSPcnPysOPS6oo0mZeklSMSwHfHnqwoirT8KNEIvvpVfe2PFeEbQAYBAoAUIaqahoarEdfk2zSIFazQ+4rFNhaD/WIB7ZeYfjnZDL7fE9CO9Yubdn69+1VzR2dmpAd2dubOMTCcLLJpsj8qNA0zVwnSRpzANsPTPahMJd6X7q28XNdbVO/J80LB/F6ABQQBQAoI9XV9eOyI1I/lKv+ABYPJW9zC5YEOS3rfann/nyv3e/uXrhN0jbtngNgnaTfvPyzurq65KbsG6qVC05WoHea61RJiQHkGi/Xd9KZ9e8J7OJLVrUtfmogLwpAcVAAgDJRNfviE7O5YJFcRw5w0U4zb84mfPGaZYs3FjrX0qVLs5JW9D2+Pu2t9W9IpFIXmtQg6aQBrOrU0IPOGbWNl3W2Nd9Z6JwABoYCAJSBGbUN13hoX5IplecioclvVxh8tXN5U1tRw+1l7f0tT0u6UdKN6ZqLZ8qCayW9T/m9n7zWXbenMw3fmDop+6mWlpZcUcMCeFXlfEYxMOzV19cn0jWN33e3r0p57fxDMy1IhLnjOtsXnV/qnf/eujoWr+pqb27wZGKqSd+XlM1jMZPsk+ueTP13TU39yGJnBLBvFAAgIlPOOqty/V8qmmX65zwXedA8PLmzrfn9Dy6/5Y9FDTdA3csW/rmzvfkKt+A47XH+wP6YdP52VdxTXdfwmiLHA7APFAAgAtXV9eNGbzn41zK/MI/hm9z0j13tU9/a2bG4vejhBqG77eZ1Xe3NZ8r8Ikl/7XcB8xOzPbonXXPpYK52AHAAKABABLKVFU0yq+t3oKktGSRndrc1/2goXULX1bbop67EDJn9uv/Rdpwsu2Ry3WXlNLshMOxRAIASm5lpPELys/sZFrrsS+NTT9WtbF2woSTBCqy7feGzXW1N73LXNZL6u1nQ9HG9u84rRS4Au1EAgBLLBeEb+hmy3QN/d3d702f6LsEbyry7o/nroXSapM37HajgzSXKBEAUAKDkXkyO6NLuKXj3ZZN5eHp366JflTJTsa1ub17mSpwi+ZOvNiZwf6iUmYC4owAAJfb40vk7zeyjknyvH20MEnZyuZ/od6C62xeuSQapjMv2dQXD8qMm9d5e8lBAjFEAgAh0tjX9xN1Ol+tnklrd/FvJCj9+1b1Nw/pT8MrWBRtyFT2z5PqmpEdd2mDS962i4iwmBQJKi5kAgYh0dzT9XtLvo85Ran03Ibq67wEgIhwBAAAghigAAADEEAUAAIAYogAAABBDFAAAAGKIAgAAQAxRAAAAiCEKAAAAMUQBAAAghigAAADEEAUAAIAYogAAABBDFAAAAGKIAgAAQAxRAAAAiCEKAAAAMWRRBxhu0pk5Z8j8PEmv2/P5IJE4MgiSJwx2/WEYPhTmete+4knXZpf9rru96dbBrh8A+pOuaXynAp2ror3P5f4Y5rJrXvGka7O57ursaG4Z7PqxGwWggGZk5lzr8q9EFsD03a625isj2z6AYS+dafyUpBui2r7Lvtfd3vSRqLY/nFAACqS6un5ctjL1nKRUhDE8dD92dceihyPMAGCYKpP3OSXC3LEPLr/lj1FmGA44B6BAwsrksYr4j0KSmdmMiDMAGKbK5H1OWQt4nysACkChuCqijiBJgVll1BkADFO8zw0rFAAAAGKIAgAAQAxRAAAAiCEKAAAAMUQBAAAghigAAADEEAUAAIAYogAAABBDFAAAAGKIAgAAQAxRAAAAiCEKAAAAMUQBAAAghigAAADEEAUAAIAYogAAABBDFAAAAGKIAgAAQAxRAAAAuMJIZgAACHpJREFUiCEKAAAAMUQBAAAghigAAADEEAUAAIAYogAAABBDFAAAAGKIAgAAQAxRAAAAiCEKAAAAMZSMOkAh3eOePGSDxkax7es/+4WxT/31ySg2/QrjJ4wfveAJHx91DgDDT7m8zx08/uCSvs8lXSOek0ZIUmqbXshMs02l2nYxWdQBDlT3Ez4+V5k7y93OlXS8pMmSKqJNBQAYbrb1urb3vvK5hJQNEvY3M2+tsMRXaw+3+6NJd+CGXAF44Bl/c5ALvyjT+ySlos4DABje9lUA9pYK7Nlk4B855YjkraVJNXhDpgDc82cfcVBleIOZPiw+6QMASiSfAiDt3qGmEnosyCZOfdsU21j0YIM0JArAA8/5GxPZ3M9ddmLUWQAA8ZJvAXhZYN5bGSQvOGWy3VG8VINX9lcB3P+MvynIhvex8wcADAWhW2pXLvere5/Izo06y/6UdQFofc7HJsLwF5IOjToLAAD5CiXbmdN/rXjMT4g6y6sp6wIwKus3S5oedQ4AAAYqdCW2JnL3tG/0kVFn2ZeyLQArn86eK/l5UecAAOBAZXMa0xuGP4w6x76UZQH4qXvC3L4cdQ4AAAZrV84blj/jr486x97KsgAc9dfcuZKmRZ0DAIDBclewa0fue1Hn2FtZFgA3e0/UGQAAKJSs2+lRZ9hb2RWAn7onJL0r6hwAABRKNvSxHY/7W6LOsaeyKwBTn1KVpEOizgEAQCH1BtmGqDPsqewKQC7IHRV1BgAACi10mxF1hj2VXQEwtwlRZwAAoNDMvaz2b+VXAAJVRp0BAIBCc6msJgQquwIQhkPjBkUAAAxlZVcAAABA8VEAAACIIQoAAAAxRAEAACCGKAAAAMQQBQAAgBiiAAAAEEMUAAAAYogCAABADFEAAACIIQoAAAAxRAEAACCGKAAAAMQQBQAAgBiiAAAAEEMUAAAAYogCAABADFEAAACIIQoAAAAxRAEAACCGKAAAAMQQBQAAgBiiAAAAEEMUAAAAYogCAABADFEAAACIIQoAAAAxRAEAACCGKAAAAMQQBQAAgBiiAAAAEEMUAAAAYogCAABADFEAAACIIQoAAAAxlIw6wFD2gxt/qL89tynSDG+aMlkN778o0gz5ePyxx9U0/5aoY+h9De/R0cceFXWMft266Oda99D6SDOMGzdWV/7LFZFmAFA8FIBBeP7ZTXr2mWcjzXDw+HGRbj9fu3b16tmno/1d7c6xK+oIedmyaXPkv6+enUPjdwXgwPAVAAAAMUQBAAAghigAAADEEAUAAIAYogAAABBDFAAAAGKIAgAAQAxRAAAAiCEKAAAAMUQBAAAghigAAADEEAUAAIAYogAAABBDFAAAAGKIAgAAQAxRAAAAiCEKAAAAMUQBAAAghigAAADEEAUAAIAYogAAABBDFAAAAGKIAgAAQAxRAAAAiCEKAAAAMUQBAAAghigAAADEEAUAAIAYogAAABBDFAAAAGKIAgAAQAwlow4wlE1+8xE6aPxBkWY47PBDI91+vkaPGamjjpkSdQyNOWh01BHyMunQSdq5c1ekGcaMHRPp9gEUl0UdYG8rn8p93EzfjDoHAACStK3Xtb138OupTPiDdZNT1YNfU2HwFQAAADFEAQAAIIYoAAAAxBAFAACAGKIAAAAQQxQAAABiiAIAAEAMUQAAAIghCgAAADFEAQAAIIYoAAAAxBAFAACAGKIAAAAQQxQAAABiiAIAAEAMUQAAAIghCgAAADFEAQAAIIYoAAAAxBAFAACAGKIAAAAQQxQAAABiiAIAAEAMUQAAAIghCgAAADFEAQAAIIYoAAAAxBAFAACA/fGoAxQHBQAAgP0Iow5QJBQAAAD2Ixta1BGKIhl1AAAAylU2dGWH6SEAjgAAALAvLr3UMzw//UscAQAAYJ9e7Bm+n/4lCgAAAH/nLu3KSduzrtww3vlLZVgAtmU1a1dumF5zAQAoXy6FMdr9lF0B8NBHhMO8dQEAELUyPAnQtkedAACAgjPbFnWEPZVdAXCFT0WdAQCAQjMPnos6w57KrgAEbm1RZwAAoNCCIPdg1Bn2VHYF4OTJiV8FgXJR5wAAoJCyQfInUWfYU9kVADMLU+bros4BAEChJALbdOqh9peoc+yp7AqAJCUTmh91BgAACiUZ+C+jzrC3sp3j8Pd/zm7JhhoXdQ4AAAYjYep9447EhGnTbGvUWfZUlkcAJCmZ0NVRZwAAYLCSSf9Oue38pTI+AiBJSx/Prd2V82OjzgEAwIFIJeyZU48IJppZ2U1xV7ZHACRpTEXw1lTCNkedAwCAgQrMeypywaxy3PlLZV4ATpho28emgppkwnZEnQUAgHwlTNmRI5Nnzn6zbYg6y6sp668AXvbAU/6al3blHuwJdVjUWQAA2J9kYC8GiaD21MNtTdRZ9mdIFABJcvfEso3+055s7oLQbcjkBgDEQ2DyVBD8Yczf7OwTTij/+9oMuR1p62N+eDaZW9Sb00mhl/dXGACA4S8weSphaywI5rztMFsddZ58DbkC8LIfuKfesjH8YBj6+0PZUWHoY0MpaT50XxMAoMyZ3KRcYNqaMHs8ITUHieC7mcM4Vw0AAAAAAAAAAAAAAAAAAAAAAAAAAAAAAAAAAAAAAAAAAAAAAAAAAAAAAAAAAAAAAAAAAAAAAAAAAAAAAAAAAAAAAAAAAAAAAAAAAAAAAAAAAAAAAAAAAAAAAAAAAAAAAAAAAAAAAAAAAAAAAAAAAAAAAAAAAAAAAAAAAAAAAAAAAAAAAAAAAAAAAAAAAAAAAAAAAAAAAAAAAAAAAAAAAAAAAAAAAAAAAAAAAAAAAAAAAAAAAAAAAAAAAAAAAAAAAAAAAAAAAAAAAAAAAAAAAAAAAAAAAAAAAAAAAAAAAAAAAAAAAADAAfofZSbRfNvw5RwAAAAASUVORK5CYII=;" vertex="1" parent="XJBxNDXNKOUv2HLO4PTf-41">
          <mxGeometry x="520.0002325581395" y="64.08494252873561" width="97.4706976744186" height="97.4706976744186" as="geometry" />
        </mxCell>
        <mxCell id="XJBxNDXNKOUv2HLO4PTf-28" value="" style="edgeStyle=orthogonalEdgeStyle;rounded=0;orthogonalLoop=1;jettySize=auto;html=1;entryX=0.556;entryY=1.067;entryDx=0;entryDy=0;entryPerimeter=0;" edge="1" parent="XJBxNDXNKOUv2HLO4PTf-41" source="XJBxNDXNKOUv2HLO4PTf-15" target="XJBxNDXNKOUv2HLO4PTf-37">
          <mxGeometry relative="1" as="geometry">
            <mxPoint x="570" y="220" as="targetPoint" />
          </mxGeometry>
        </mxCell>
        <mxCell id="XJBxNDXNKOUv2HLO4PTf-31" value="" style="group;shadow=0;" vertex="1" connectable="0" parent="XJBxNDXNKOUv2HLO4PTf-41">
          <mxGeometry x="27.586046511627906" y="55.17241379310343" width="229.88372093023256" height="128.73563218390805" as="geometry" />
        </mxCell>
        <mxCell id="XJBxNDXNKOUv2HLO4PTf-4" value="" style="rounded=1;whiteSpace=wrap;html=1;" vertex="1" parent="XJBxNDXNKOUv2HLO4PTf-31">
          <mxGeometry width="229.88372093023256" height="128.73563218390805" as="geometry" />
        </mxCell>
        <mxCell id="XJBxNDXNKOUv2HLO4PTf-11" value="" style="shape=image;verticalLabelPosition=bottom;labelBackgroundColor=default;verticalAlign=top;aspect=fixed;imageAspect=0;image=data:image/png,iVBORw0KGgoAAAANSUhEUgAAASwAAAEsCAYAAAB5fY51AAAgAElEQVR4Xu1dB3hUVdp+DymEkgQSSKUlNEPvICJNaQpWxN7b2nZ1f3V17d1/93dXd1fWvvbO2kAUUEFQqdJ7CS2UhARIgAQC3P95T2bizGSSKZk7M3fm+55nnpnMvffcc95z8853vvMVBRFBQBAQBCyCgLJIP6WbgoAgIAhACEseAkFAELAMAkJYlpkq6aggIAgIYckzIAgIApZBQAjLMlMlHRUEBAEhLHkGBAFBwDIICGFZZqqko4KAICCEJc+AICAIWAYBISzLTJV0VBAQBISw5BkQBAQByyAghGWZqZKOCgKCgBCWPAOCgCBgGQSEsCwzVdJRQUAQEMKSZ0AQEAQsg4AQlmWmSjoqCAgCQljyDAgCgoBlEBDCssxUSUcFAUFACEueAUFAELAMAkJYlpkq6aggIAgIYckzIAgIApZBQAjLMlMlHRUEBAEhLHkGBAFBwDIICGFZZqqko4KAICCEJc+AICAIWAYBISzLTJV0VBAQBISw5BkQBAQByyAghGWZqZKOCgKCgBCWPAOCgCBgGQSEsCwzVdJRQUAQEMKSZ0AQEAQsg4AQlmWmSjoqCAgCQljyDAgCgoBlEBDCssxUSUcFAUFACEueAUFAELAMAkJYlpkq6aggIAgIYckzIAgIApZBQAjLMlMlHRUEBAEhLHkGBAFBwDIICGFZZqqko4KAICCEJc+AICAIWAYBISzLTJV0VBAQBISw5BkQBAQByyAghGWZqZKOCgKCgBCWPAOCgCBgGQSEsCwzVdJRQUAQEMKSZ0AQEAQsg4AQlmWmSjoqCAgCQlgR/AwYhtEIQCKAJNu7u89Nbcft5/Cd18UDiLW94mr5zOP2Y41doKwAUAnguO3l+JnfuTvGa8psr1IABwAcdvnO8bj+rJTiuSJRgIAQlsUm2TCMZgDS63hlOBxLsNjw/O3uCQD7AOy1vfY4fHb9rkgpddLfG8l1oUVACCu0+Ne4u2EY1IK6AugEoCOAPADZtlfrMOuuVbtTZCO0XQBWA9gCYD2ADUqpbVYdVDT0WwgrBLNsGAaXUh0AdLYRE9/tn9NC0CW55W8IHAGwkeRlIzFNZADWKKUOCVChRUAIy2T8DcOgptQTQHcAfQCcAqC9ybetbv5g+TEcOlqJ0opjOFRRibKKyt/+PloJHj9y7DhKbd+X2c47fvIkjp80UHmC7ydx4oSBSn534qT+7sRJQ39fddzAiZMnUVHJlVmVNI6PRWyDBoiNUYiLaYAYfm7QAHExqup7fazqeNX3DZAQF4PEhHgkNoxDYkIcmtreq/6Or/4uKSEeTROqzkltEtRVbyGAdQCW2jSz5UqphcGaS7kPIIQVoKfAMIwmAHrZyKmHA0nx+4AJCaLoUDmKysqxt7QchWXlKOT7oaq/9ff8rqwcB44cDdh9w7mh+JgGyEhugrTEBKQnNUbLxEZIT2yENL6Sqt7tfzdpyD2CgArtYdTIlju+lFI7A3oXaUwjIITlx4NgGEauAyH1tWlPOX405faSnfsPYWPhQazdsx/5+8qwofAgCkuPaEIqPsyNNJH6IJDTIkkTGN/bt0xC5/Rm6JCWjC6ZzevTrOu13Ln81fZaRTJTSvFvkXogIITlBXiGYdAIPgLAcADDALTw4rI6T+EyjaS0ce8BbCwqrfpceAAb9x7E0eO/La3qex+53nsElALapCSiY1qy04tklpUcEEX5GAAuIX+wvX5RSskvkPdTJBqWO6wMw+hiI6aRNpLym6DKjx3XmtLqXfv1+4qCYmwqPIjdB2nbFbEKAo3iYtElq7nWxk7JaIYe2anokpmC9CS6rNVLfgQwmwSmlOK7SB0IiIYFwGZ/Gg3gLADjbC4EPj04Jw0DW4pKsXpXCVbv3o81u0lSJcgvLoVh+NSUnGwhBJo1boju2Snompmil5TdslKQl9lcbzr4IeUAvgfwNYBp4mJRE8GoJSzDMOjfZCeo022e3V4/Y9xdW7S1EAu2FmL+lr1YtK0Q1KZEBIEGSiEvozkG5qZjYLs0DMpNR7tUutf5LGtt5EUCm6uUYnRAVEvUEJYtTIVLPGpQJCqfjOSbi0qxIH+vJqiF+Xv18k40p6j+3/Fp8C2aJuDU3AwMsBFYr9YtwN1NH4RhSLMctK/dPlwbMadGNGEZhtEWwAQbQdFg7pXBgf5Ey3bu05rTwq2F+GXLHpQcjg4XgYh5ssN8IA1jY0DSGpiThoE56fq9ZVOvHk/7yOhGoZeOAGi8j4pwo4gjLMMwuDd9BYCrAdDlwCvZsq8UM9bswMy1OzF3427ZqfMKNTkpkAjQDjaqSyuM7tJaExgdar0UOrS+B+BVpRSXkRErEUFYhmHEADjbRlLjvbFH0XXgp017MGPtDk1UXPKJCALhggC9+Eee0gqj81phVF5rX3Yj6YX/FoB3lFIl4TKeQPXD0oRlM5zfCOByAB5j8HaUHLIR1E7M2bhLjOSBeooiuB3u9jWJj9PRBaGUHq1SteY1pktr9GvbEjTsexAa6LlcfNO24xgRO0IeR+0JlWAfNwwjBcCVAK6xhcLU2gWGsdD+NGPNTsxcuwPr9jC9koggUDsCNIQPyEnH0I6ZGNYpC33btMQjXy3Ci7PprB4e0rxxQ5xB7atLK5yZ18qbeEqm3uGS8U2l1LLwGIV/vbAMYRmGweDhewBcXNeSjzt3P23ejY+XbMZnS/N10K+IIFAbAtRUaPwmOQ3rmKldEOgk6igkqz9/viAsQWT/h3bKwqS+7XFuz3Y6YNyDLALwAoCPregmEdaEZUvDciGA3wMYXNdE0EmTJPXR4k3iRe7pkY3y4/SRIkFRizq9YyaY/aEu+XxZPq5+k/6c4S3MdjGuW1tNXqPyWukMGHUIkxy+BODfSika7S0hYUlYtmXf7wDcAqBVbUgySPiTJZvxwaJNWL9XlnuWeOJC0Ek6bVZpUFmaoJi9wRehg/CZz3/lyyUhP5ce+Bf0ztXkNSgnHXWYvLgE+RjAc1ZYLoYVYdli+O4CcENdM/7O/A34YNFG/LSZPxIigoAzAvRnGt65iqBIVG1SmLbefyk4cBhdHv3Q/wZCfGV2sya4bEBH3DAkDxlJrqn3nTrHde8/lVK0d4WlhAVh2exTTwOgS4JbYbDw6z+txRs/rZMUK2H5KIWuU8mN4jG0Y9USj+8MTg6kGIaBZne9EcgmQ9JWTAOF8T3a4Xend8Hg9kz9X6tsBfCYzTUirFKHhJSwDMNgmuCnAFxUW24uquMv/bgGtCMww6WIINAoPhaDczM0QQ3vlAVu+XuxzV8v4PIe+QC7IijDBp1UbxvRDRP75IJe97UIs6s+BGCKUiosQvhDQliGYbSxMTjdE2qgdezESXy2dAv++cMqrCworteDJhdbHwEaj/u3S9O7eNSg+rVL8zUOr94g0IbFH89IE6aYvu60U3D9aXnITK51ucjEgw8opb4J9fiDSliGYdC582EAdPassTXDjJr/+XktXpu3LuSOeqGemGi+P7Ulak3UnqhFUZuiVhVK4S4htfxIFYYBndurHW4Z2lX/ONQi8wHcqZQKmY9HUAjLtut3H4Db3QUg7z9yFM/NXI6Xf1wNalci0YcA7U52O9TpHTLBXa5wkvs/X4DJYeQ8aiY2p7XPwLMXDNJJCmsRalr3KqVWmtkPd22bTliGYTAQmY5q9FB3kvLK43hpzmo8N2u5ruYiEj0ItGreFCNsO3kkqgBk7jQVvHB2HjVj4HSDOK9XLh4+uy9yW7AYeA2hTWsygD8ppVidOyhiGmHZln+MY2L+KSdhiah3F2zAk18v0dVdRKIHAeZLv+n0Ljq0hAUgrCK0qV7zFlOxR5dwqXjN4M7405jetfmv7WConFJqTjCQMYWwDMO4CsDzAGqUIflqxVY8OnWxzmsuEt0IcJu9bUoi2rdM1uT12ysZrZs3BY+HizAv2iiLOY8GEjsGgd8xojt+P7K7u/AfalsvA7jbbG0roE9EXVoVne9ufncO5m6KykSJgXx2oqYtFnwgiV3SrwPO7eVTgtiAY7TrwGHkWdh5NFCAcOn+z4uHYExXbvTXENO1rYARlmEYQwB8DsDJUsdg5FfnrdER76wwLCII+ILARX3bY/KlpyO+dl8hX5rz+9xIcR71GwCXCy/sk4u/XHAqmPrZRaht0Qn8ITN8twJCWIZh/BHAX1x9qvL3leKGd2Zj8bYiv3BiFH3v1i10BRr6Ywnh+QWjZS965vyBuHVYN9P6z/CuxnGxOCWzqnyXJ8l75EPsOhg0+7Kn7oT8OHdyn5t4Kib2ae+uL9/SIVwpxVz0AZN6EZZhGPSletuW8qW6UzSq//OHlXh6+q9+pxq++tTOmsEZgU6hprZj/yFdOmvNblsprV37dQFS8YAP2PMQFg3xH+Gtq0dgeOds0/pzz5Rf8MrcNdXt0zmVGwKnZDTX5broZsGsDqwObbelnfH3L/3+8TVtIGHQ8IjO2XjpsqHIqOl4uhnAOUqp34CuZ3/9JizDMPg0MaNhT8c+lByuwGWvz8IvW/b63bUXLz0dVwzs5PX11L6YrWFlQYlO0rd6dwmYXVTEeghQ0/nwxlG1baUHZEDXvvUD/rt0i9dt9WzVAnmZzbAwvxDM/S9SEwHGc75z7Rk62NxF6AZwuVLqs0Dg5hdh1WavInFMemWG3zFXrZo1wcc3jUbXrBouWz6PlYn7uJRc41DYlP0Tfy+foQzaBczh9OY1I71JQudXnw4frcTFr86UjR+/0PN8ESMUHj+nv95NdCPP2sJ76uUZ7jNhGYZxsy3xl1OfmJeK9ip/hWEYb197BsjUZgp3e6iBsXS8rs68uwQb9hwQD3szQfei7TvP6IFHxvczLYiZmv+5k6djRUHE1WXwAt3gnkKb1utXsapeDaFd6zylVIW/PfKJsAzDuATA+46ZFWg/euiLRZg8x7+c12TlP4/rg7tH9aoryZi/4/PqOo6BVXMctTHayraVlEmxVK8Q9P8kZgp4+YphON9EtwUmehz/4tfI3xdQ+6//g46CK7tlpejVEnNxucgM1glVSvmVtsZrwjIMg2W0vnDcCayvvSqlSUP85ypzjav1eTa4K7nWpoXRNkYb2YqCYhw4En5FVRksvGKntTJbMJkc7VXcCTZLWKH7vMnfYE/pEbNuIe3WggCLZbx//Znucm8xXc1Ef4DzirAMw6B+Nx1AtdMFH4DRL0zFtmL/frV6ZKfgoxtHI6smA/szjqBew6wSeqdS71hWGflJbKx1GGyhhvLs+QNx3Wl5uPPjn/Cfn5nCKPyFJPXJTaPR0sd0xb6MbMm2Ipz/0jc4WC6FSHzBLdDncnnoxvVhslLqNl/v5ZGwDMPowVLYAKqT5VCzYn4gf4uPMvcOo8FZUilS5KRh6CUHyctxabmlqBQ8ZoZ0aJmMd687A3mZVRFQh45Wot/Tn4Z9EY5gOIN+v24nLn19Fioqg/8jYsZcW7lNmn2m3DxaF4Z1kSeUUkw35bXUSViGYXS0kVW193pZxTGM/cc0rNrlu/GSPlUvXz4M55lor/B65EE6kRkp1mtXC5uR3+ZHRi2tPnLt4FNAx0rXklSzN+zSxuVwFA+7SAHr8pRfN+PGd+eA/oAi4YEAVwJf3TYOA3PSXTv0O6UU4xC9kloJyzAMFjijwxfTGGupqDyOCS9OBwNBfZW2KU3xyU1j0DnA+bZ97Ue4nF98uAJrdlXtUmr3i9379Y9AuYfwpaSEOPz78mEY371trUP5w0fz8OYv68NlqLofiQ3j8M51Z4BOhmYKnUHpFCoSfgiwZuI3vz8b3Z3zbPFXZZBSaqE3Pa6LsJ4BwKR7Wo6fOImJr8zAD+sLvGnX6RxWp33z6hFI9FD/zeeGI+wCrhy3l3BZ6eg/VqK9+aktsET5W9eMBHNJ1SXhtjTMaZGI/948Frkmp5NhvOrz362IsKcisoZDQ/ysOyegQ1qy48A2AujqTWFXt4RlGAa915c47gg+NnUx/jZruc/o0ZHsDyNpBhOpDwJ0enX5ZaqzudnrC3Duv0OegltrVG9fO9JjsdL6YMNrb35vDj5ctKm+zcj1QUCAdSIX3X+ha0D7X5RSf/J0+xqEZRgGg/f4M9XFfvHSHfsw4m9f+OSTxOT2H9xwprs1q6c+yfEAIfD7j+bhrRAuDW8f0R2PT+hval4rLqGZb/3bNcxsImIVBG4b3g1PnzfQsbvcHennqZirO8JiWZ/H7S0dO34C/Z+Zgq0+ui/0adNSF7PsktFcB5F2y65/uI1VJiNc+slQFM4dc5EFW7i5ckn/avOnKbdn+NXEl2dgQb7/caumdEwa9QqBH/54DsgTDrKascl1OZU6EZZhGHk27aq6RMmDXyzUmRfqK9whYjI2khe34asi4pujQ1oSmIZVxBwEgr1ryPxI9K9yeRADPrg9B49o73Xa90SsiQCXhgvuuwAJcU4VkR5VSrGIq1txJayPAEyyn8ml4PDn6NxurtA2wyj9PKb0sJEZ03qIBAaBOz6ch7fnB2fXkA6ho7u01hp196wUnZ4l0ML02udMnh4SzTHQY4n29m4e2kWnkXIQxhm2qC3VcjVhGYbBJ2sfALozaBn3z2n4efOekGBKn63O6VWaGFN7UDPjZ087ZCHpbJjfNJS7hqwnyHJRjC3rThLLTkXXzOZ+1xlcvrNY+5mxNJyI9RFgdZ71j12K9CSnIq7XK6XecDc6R8K6xVa2R5/HbKG9nvwk7BBp0jBOE5cmMm0fo1aWEvZlokINZLCXhnWNlw8pC0+QxBii1S07VWtjnsK0fty4S6eHkcyzoX6aAnv/e0b3woNn9XVsdK5SaqgnwmI11wH2k+6d8gtedsjIGNguBr41pqXhP4CjfYykRr8PkSoEbv9wLt6ZvyFs4UhKiAfTYlMTqyKzVHTKaKZDuL5cvhXXvvU9jov3etjOn78dS0tshLWPXoJY51C9XKVUjVLbWsOyheBUP8kM4m3/wHsoO2r94qaZyY3RmbuUWSnonJ6MLpkpWiujphZtwqUhdw2ZE8xKYsVMFFbCNxz6Sodol5A9t3GGdsJiAYl77B2ngZaG2kgW2sLsS0vm7+bnTunNasTmRRoG4bQ0jDRsZTz+IzCsYxa+vM2p5vJOpVRr1xbthMU4nv72g9wZ5A5hNApdL+huwTTN9l1L2soiSW77YK6uvC1SfwSowZ/WPhMd05Lw9+9WSHaIekC69IGLXMO3OiilWMiiWuyExWhm7cFFg2bmvW/V47aRdyn9xOgvRuN+l4xmuiwUHWIdK6pYadTMDzXw2Slhn4YmHDHlj9eg3HScmpuOwbkZaJ3SFCdPGpgw+WvM2xSaHfVwxMmfPj0/6TQwC4mDnKmU+s6JsAzDYFK+6lwnrD4z4Jkp/twvKq+xV1TpnNYMXbNJaM31QxyOUnSoHIu3FmHx9iJM+XWL3gkWqRsBpkMZlJOOwe1JUhluaw48+fUS/HXGMoGyngjcO7oXHnDeLbxRKfWaK2ExZpAu8Vq+X1+A88MgaLaeYw/p5Y3jY3/brUynfaxq95LLh2AJ83DRZ2nx1kIs3r4Pi7cVSukzD+Az/YnWnkhSueno27alR5vm3E27Mf5fXwdrWiP6PpcP6IjJlzl5MzytlHrAlbDOstUX1N/TtkEbh0hgEbhvbB/cN6a3KYU2mJZmU9FBTUqsss0XsztIAru657Bl00YY0jETp+ak6bzjtFsyhMxb4W7r4L98Jk6s3gLm4bwRnbPw+S1Ohvf3lVKXuxLWrQBetH/5v98u1RWbRQKDQJP4WLx65XCcXUfCPV/vxOR/zFe+SJNTIRZtLZR6i16AyF1g2p6qXhlgLJu/wvxwrAS9zGKFP/wdbzCu4/ww7YyD/KKUGuxKWJ8DONf+JXc6Hv1qUTD6F/H3aJPSFB/dOEovCf2VYydO6mo4jtqT2J48o8mNkl6tUzUx2Y3kTHkUKLn/8wWYPNu/0naB6kOktcN44oXOhFWulHKyoyjDMN4EcLV98FOWbsF1b/0QaVgEfTyntc/Ae9ef6bOnPcnIvqxbtK1Qk1XliXoVyw362ENxQ8YsauO4TXtidlZ+Z4ZMX7Udl7w204ymo7pNBs0z04eDlCqlnFKTkrD+DuBO+0n8Z6GqK+I/ArcM64qnzh3oMXEd6xsu2V5lc+KLufLDseah/0iYdyXT2JzWgfanqiUeg6pjGnhvf6pPz5g0kPUOHauHMz8/d2FF/EfgptO74K8XOmVuKFZKORWtJGGxzE51/pnCsnJ0fIjFnUV8RSAupgEmX3o6JvWrmbiOWhLrGNrJiUs8yeXkPcLMAU5iqnIxyECuCWlrvO+N+zNJWI6FRUhorFfJHVsRzwjwR/72Ed0cT9yjlMp0/IKEdT+Apx2/TL/nTfHY9Yyv0xmuiet2lBwCl3R2glq2Y19ICq36OIywPJ07d4v/fKHO8GA1YU1KZuvVlZF2lVSXe2NOL7PqVVoNI3t/WWNzQo92jt3foZRq45GwLnzpW8xat9Oq4w56vzumJePuUb1QcOCQJqj5+XtRcljyNQVyIsZ1a4MPbxgVyCZD2hYLvG7YW1U1nGRWtbwsidroA3qTbHriMrRo2shxXrYopdp7JKxPf92C698Ww3tIn2i5eQ0EZv5hPAbULMQZUUgxMSFNB5rEHLQy5uePZBnbtY3eUXeRdUoppm2vFrdLQhZMzX3gPRz2UNQzkgGUsYUfAj1bpeLHu88Lv46Z3CM6Bu/cf6hKG9PFd6u0sQ17D+L4ycjYQX772jNwbk+n5SBR9Y6weGaoS0SZ/AxI84A2XH92y1jw13tlQYmuPL2ioFiH9ITrbuWrVwzHpH5Oq4SonUtu5GwoPPAbidlsZCQ3KwmTb25+8nJw08ovDYsX0Q4z5oWpVhq39NUHBJia+ItbxyGlFmfK3QePYNWuYqzcWYKVu6rILBwMxRlJjbH8oYtcK634MPLIP5Xlz1yN/KsKSsDvw1FuGJKH5yY6ObTbu+m9hsUrej7xsc/1CMMREOmTMwKnd8jU9gJfs65ye55LEpIXSWzlzmKtkQU7x/qjE/rjrjOkmrivz/Wug4druF2s37MfjKYIpXx/1zk60NyN+EZYU1duw+WvzwrlWOTeAUZgQo+2+M/VI92p337difaVbSVlmrj4K67JrKAE20vK/GrPm4sSG8Zh5cMXo3kTydfvDV51nUMb2OaiUieXCxr9OaecW7NlZOdsbZaoRXwjLDbCMB2G64hYH4Ebh+RpT2LlQ0YCf0b9/sKNuPWDH0194N14RfvTVbmmFgSoNVe5W1TtWPLFDCCBLK/WrFE8ljww0dWVwbFHbgnrPgDP2M+iIc/R+LX/8FH0e+ZT7DvE+oYiVkWAZZRYTsls+cf3K/HQl8y4bb4se/Ainwq10pk3IT4GTCsj4h8C9OanJs3QJJJYfaowvX/9mU5ZTOhI65LeZ7VSysn1nW4NToT1fzOW4q4zeyLGoXz8zDU7MPGVGf6NUK4KKQJUpiZfOhSXDehoej8e/nIRXvh+hen3sd+AKXv40Hsjy3fuw/h/TdeGZ5Z+Y2Xqrkx5ba9xmdkcTOAn4h0CZRXHcOM7czB99XbvLnA566I+7fHaVcOdvn3+uxW409k2uVYpxQSj1VKDsB75ahEYQ/rI+OqaFPrkcK9p5xdqEX4R6/m9c90ZoFOemcKc5lwCfrBok5m3cdu2N86kDIua8OLXKK2o2/myTUoiumax0nhzXZ2aaYEYxeBmuz3o4wynG3KZeOlrM7GtxD/3ifSkRlj854lgHUq7bCs+hNEvfIX1j1/qOFTPS0ISFplu5SMXo03z33KT05l0wovTdUYBkfBHgNrClJvH6FxQZgprWF75xnf4ds0OM29Ta9uenEn5z3XWv6bhwBH/tvSZV6tTerITiVErI7mZbAoMCZ6ebvrmz+tw73/n+x0Xy4SWM+6coOuE2oVLwT5PfoLyyhNeEZZT8DOT9zGJX05qIpY+eJGTgZZqIEkrWkuAeZrMcDnOQOwvbx2nU/6aKXweLnz5WyzID+2PGJcWXGK4Sn3Jqi7smLefxEWM7ctKamTEPhKFKXW4ymLYnr/SMDYG024/C/3bpTk18cZP63DXJz+BPnbeaFhuCYst3j68G548d4ATaR0oP6odStftOeBvv+U6ExHIaZGoHULbpvif/teb7hWVleOcydO14TXUwgd91SMXOy3dGFg89h/TwHTSwRQa9LtkcUnJwiPNbO/NQYKzqmwuOqgTFjIUyF/hsprJ+UZ0znZqgm33eepT/V29CYuNPDiuL+4e3dOJtPiwjvnHVO2/IRI+CHjyXg9UT+mjw0ox2/20YQSqH47tPH5Of/xhZJUzaajIqrZxcenIHxCtiWXR2F9lJ6N9jEvOcJbPl+Xjlvd/rJdzMHf+6KjMjKKOwtx7nR95H/ZwSG8Jy2mX8NGpi/H3WcudGmYRhUl9nVVuVgwZ/Y+pUjoqTJ42f73Xfe0+l1nUrMLNzcXuTEo/If6Y8p8h3IVaR6e0ZjaNzG7sTwmLupa0Td7/2QK8/tPaesP4+lXDMdFlyU53qXYPvOvUthvCWqOU6up4Uo1sDXYblmsvp952Fk7v6JT8DyWHK3DFG9/hp81S8bbes1qPBs7rlYO3rhlZjxa8u5TxpZNemQFWjg5HIQ7zt+zFntIj4dg9r/vEkKnuWVW1LFmYoXt2ik4BzSDhYAg15yv/8x24u1ofYX+Zw4wZYh2FIV5dHvkAJS4bId5qWLXasFw7y6yPHdOaOX1N1/57p8wPCBPXB5xovfbqQZ3xwsWnme69/v26nbj09VmSiTaEDxrdAWjY/83I3xx5Gc0DWmyDPpfXvf2DRxcQTzB0aJmsQ25YOcpR6Jje/+lPkV9cM3TLW8LyuCR0vOHKhyfpLV1X4XbnHz7+ydM45HgAEfjzuD7405jeAWzRfVNTft2MG9+dI4VZTUfa9xvQPpaTmlRtH+uSwSVmCtq3TPLJPkbF4/GpSyU7rucAAB7dSURBVALi+MvssK9fObxGcD0L+4775zQsyN/rdqABXRI63mH6HWfXUPN4nB25+NWZAY038n0KI/8KPqTPTzoN15x6iumDfWXuGtwz5RfT7yM3CCwCdBrulFG1S+mokbVy8K2033Fv6RFt2gmEjyV/QO8f26eGjxpjE4f+9XNsLKp9p9FbDcvrJaEjpA+d1Rf/M8p595DHmTxs4sszdKyRiDMC1EwDkcXg7WtG4txeOabD624DxvSbyg1MRYAOxXTapBbWOT0ZLC5732fz672JkhAXo+2o7qIqyAn9n5nicafRVMIiqmd3a4u3rxtZQ/Vkgv2/zFiGf3y/QoqAOjx+8+45XxtOf1hfgO/WF+CHdQU+JVULlvd6KENtTP1vlcZNQYDl1/592VC3geiMNbzkVe+KzppOWBw9PeLn3nMeEh3iguyorN9zADe9N6feuw2moByCRqf8bgzOPKVV9Z0ZkrB0+z58v75AvxbmF9aaoztY3uuhDrUJwbTILf1EoFnjhnj6vIG43E1gvWEYePCLhfjX7FVetx4UwmJv4mMbYP6fLnBbN47/lLSDPDZ1sUeV0OuRWfTEly4fikv715414dDRSszduFuTF7Uwe6FV7rRMvf0s073XwyXUxqLTG1Xdvqhvezxz/kC3qXqOHT+B81/6BvM2+ebuFDTCss8U2ZZl2l1y2ujDBQcO486Pf8KMEAXJhsPT9NiE/q7pM+rsFtf+s9buxPge7UyPUaPDJR1CV+wsDgeopA9hikBWcmO8eOnpGOmwUnDsKp8fPkf+JPoLOmGx49nNmuKr28bWWqX3u3U78dAXi3TJomiT24Z30yp0uAmJcfyLXyN/n3lpjcNtzNIf3xCg7fWPZ/bEzUO7oFFczbhImhLu+HAePlrsf4qhkBCWHYZbh3XFE+cMQGzN0j06de7ny7bg8WlLsGVf9MQjMryJYU7hJIy7I1ntLQ3/UJZwwi1a+kJyum1EN/x+RPdaPe1pxpj06ox6m3xCSlicUGZ2/Ox3Y9C7jduKGNrA/N6CjXh6+q+WD6fw5gEe1jELX942zptTg3LOkm1F2tYQrqE2QQFBbuIWAcY5Xjv4FJ1WOy3RfUpp2lwve20W5mzcFRAUQ05Y9lGc3ysHL18xDMyH407oBvHqvDV4buZyv9a+AUErCI0wjGL+fRcE4U6ebyGhNp4xisYz6JR8Sb+OuH9sb7RNdZ+iiMV0vliWj2vf/r4600IgsAobwuJgEmJj8bdJg3FJv/ZO+eIdB8oKxO8t3Ih/z1kdkUvFlCYNkf/UFYGY23q1IaE29YIvIi9uFB+LKwd2wu+GdtVhPbXJqoJiXP/2HKzbG3jH8LAiLDsATeNj8a/LhuLcnu3c7ibyPNq4vlm9HS/OWaW3+SNJDj5/fUiHw0wGk16ZCRZlEBEEspo1wS1Du+LqUzvXmQ2CLjY3vjPb1GzDYUlY9keE9q1XrhiOUXnZdWYaYP6lF2evxidLNoW8Qm0gHm+mgOXEhFpYdv6zZfn479ItYZE1NNR4RNv9B+akgxtjE3q0QwyrztQiDCW7+b0f8XMQUkiFNWHZ8aFB742rRmBIh8w6k/qzHtrr89bi1Xlr6x33FMqH88e7zwMLJ4STMN01ievjJZuRH0W7tuE0B8HoC7ObMmfYbcO7ok8tG2H2fuw+eAR/+GheUIuLeEtYPqWXMQtYdvb5i0/D6LxWtdq47Pf+YNFGvbs4d5P1louf3jwGo/J+C88xC09/26VGO2VpPj5Zsjkggdr+9kOuCxwC2c2a6LqUNwzJ86jdr929Hw9+uVA7LAdbMpMbY91jTmW+3NYl9Ctbg1mDYYrr+8b0xU1D8tC8ScM6b0Pvef5jsTT6+r3WKIpBL+ErBnYyC76AtUv/rPcXbaqRLjtgN5CGTEWANf8u6JOrU5sPzs2oc/VC96Lv1hXoyjUF+w+b2q+6GvdWwworwnIc0Jl5rfDUuQNwSkZzjyBSM/ho8WZ8vGQTqM6Gqzw6oT/ucq5uG9Kucqm9Ztd+rNpVgtW293V79vtddy6kg4nymzMH1thubTRJjenaBvy7LqH/3X9+Xocnpi2pNeg+mJBanrDsYDF+6e+ThuDMvGyPWRQZbP3Tpj3aHkO7DJ3bwkkYa/ns+YOC3iWGTjB7BkOi7MREkrdCsYagg2WhG9Jvakj7TDAYmfYpb/K+b9x7AA98sTCo9ilvIPWWsMLChuXNgHgOsxleNqCD2zTN7tpg1oPpq3dg6oqtOgA71DKxTy5ev2qEqd1gbCA1Jq05aYIq0ZkfmKJWxPoIMFzmjFOyMaZra5zdva1OwudJmPGTHun3/3cB8ovDMxzOtBTJnsAJxnHuLj58dj+M79FWhwB5I9Qupq/cDiYVW7K9SPt7BVtYjoupYgIhdLRdvXu/JiT7O6Plw02rDMRYo70N/jOTnMZ2bY2hHbPADJ+e5PiJkzrt8bPfLsWcDYEJn/F0z/oc91bDClsblreDZ8rXh8f3A2P1vJlItkvbzTerdmgHVWb/ZCnuYAjLNi28/0KfbsVl7paiUk1Mq3bvxxq+7yrBVjeVR3xqWE4OWwS41OvduiXGdW0NFnVgmS9vhInz1u45oHPQ0T5lJYkawnKcFP4C3T2ql/YzqcshzvEa2nd+3LgL01ftwLSV20wNxKY2uPXp2sNzSg4frSImLul2VxnD1+wukfJaVvrP87OvXOqNPCVba1FjurQBy3p5KzQDfLBoE/5vxnJUHA/Oj6+3ffP2vKgkLDs4dI+Y1LcDrhrUCX1at/SpdtvmolL8smUPWDj0ly17Qa/wQMq+564FV6M0ftp356qM4SVhvcMZSAykLYAphpkPfVBOun5nVhNPO3t23Kh18zmdumIb/vHDSl3U2OoS1YTlOnlUqe8Y2R0jOmYhzYdfLvvykRWF5+cXaiJbvqO4XtvALLtE7UkkuhBg9gMS06k56RiUm6GrOnPp563QbPHrjiK8u2AjPly8MaCZErztg5nnCWHVgi4LZtw+vBvO69VOV7L2dulob44PzuJtRZq8fsnfiwX5haABXEQQqNbwlUK37BScmpuBU3PSNEHRk9tXodvJDxt24YXvVmgNPJJFCMvL2b2gdy6uObUz+rVtWaNarTdNUD1nemFX29PW4tKQ7ER602c5J3AI0PepR6tUXbS0a1ZzXffP3xLydD3ZWHgAXyzfin/+sAosDBItIoTlx0xTbb+sf0ft50KVPalRvB+tVF1CrYtLP7vxnIS2oqAYZRWijfkNaggvZBbOzrZqynZi6pKZ4pfmZB8GK8xsKzkEmhzo6MyKSdEqQlgBmPnG8bGY2Le9Lhrbq3WqThfrriqQL7eiSwU1MmZG4GtL9ecy7W4hEjoEuFOX2zIJuS2SkNMiUdfdzNGfk9C6eVOfzQeuI6HGxLhXLvPenb8R1MJFqhDwlrAs5ekeDpM7uktrnYCQuzutU5rWmvrZn77SPkav9G0lJLQynXk1v7gMew8e0WE0xRGwG+QPLoG8huTDHx5q01WElIh2qUk602Zt+cv9uT99ogrLKrRWTX+/1+at9aeZqLkmoj3dw2kWCTQ97hkVz6UC03k0TYiHDxtAXg+n8sRJrYUVlZXrSjcksUK+H3L4Wx87EjXFJegKkJHcRPstkXCcXrbv0m3fN2kY5zXWvpxIXz7Ow8aig1i0tQiz1u3Ewvy9vjQR9eeKhhXiR2Bw+wwM75SNQTlp6JCWrGO+vPXED1TXGZHPUJ3SimM4cOSY9ui3/8132tOq/q5655KF31VUHkfF8RPaYZXX8B+yvPJEvXdDueRqGBeDRnExSIiLRUIs32O0nxyX39zBTWwYh8SEODS1vVf9Ha+/I+EkJ8SjaULVOd7E0QUKS7bDDZYDR45iW3EZVhSUYO6mPTobrkj9EfBWw5IlYf2x9qkFps2hJ3737BS0TWkK5tVOTmiI+Ni604H4dBOTTya5lZPUjp2wEdtxTWiMXyPxaDLSpERyitXL5mCTtb8QcKeOGybUZLeXHNYFFxijOXt9AXaFceoif8cbLtcJYYXLTPjQD+ba7t8uTW+Td2iRhKxmjbV2wX96X/3FfLhtVJ1KLYlLa5Iul3HcpVtZUIxlO/fpoidSpzE0j4O3hGX54OfQwBuau7Zq3hR5Gc30Tlbb1CS0atYELZsm6Fdyo4Zo0rBqycX83dEkJKFjx0/q6sNc/u4/XIHCQxU61Ik7cQwU52YGU+7wXJHwQ0BsWOE3J0HtEQOt0xMbIz25EVo2bYTUpg2R2qSRTsfTrHG8TvbWtGGsthU1jo+rtivRiB0b00BrdHThqHqhzupGvgyMdMEdNBLHyZOGztN1glrP8ZPVy0sSD5dlZSSg8mNa69l/+Kheph0oP6Y3Hao2Ho7IMs0X8MP4XG81LLFhhfEkhmvX6M5B4zcda6uILx5JCXGIjVFVhvyKShysOKbJRms8R45FRIBuuM5HJPTLW8KSJWEkzLaMQRCwOALeLgmFsCw+0dJ9QSASEBDCioRZlDEIAlGCgBBWlEy0DFMQiAQEhLAiYRZlDIJAlCAghBUlEy3DFAQiAQEhrEiYRRmDIBAlCAhhRclEyzAFgUhAQAgrEmZRxiAIRAkCQlhRMtEyTEEgEhAQwoqEWZQxCAJRgoAQVpRMtAxTEIgEBISwImEWZQyCQJQgIIQVJRMtwxQEIgEBIaxImEUZgyAQJQgIYUXJRMswBYFIQEAIKxJmUcYgCEQJAkJYUTLRMkxBIBIQEMKKhFmUMQgCUYKAEFaUTLQMUxCIBASEsCJhFmUMgkCUICCEFSUTLcMUBCIBAW8J608AnrUP+LFpi/G3mcsjYfwyBkFAELAQApnJjbHusUsde7xaKdXN8QtlGMa1AN6wf/nvOatx32fzLTRM6aogIAhEAgI9W6Xix7vPcxzKbKXUCFfCGgngO/uX01Zuw2Wvz4qE8csYBAFBwEIInNOzHd659gzHHr+plKJCVS3UsNoD2GT/ZmVBCYb89TMLDVO6KggIApGAwB0juuPJcwc4DuVRpdRjroQVA6ASgOKB8mPHkXHvW5EwfhmDICAIWAiB/5s4GDcOyXPs8TVKKScy0iRlGMZOANn2M9ve/w4OlB+z0FClq4KAIGB1BD69eQxG5bVyHMZwpdQcJw3LRlg/ARhsP3DFG9/hqxVbrT5+6b8gIAhYBIH4mAbY9OTlSG4U79jjdkqpbe4I6ykAf7Yf+Hb1Dkx6dYZFhirdFAQEAasjcFGf9njtquGOw9imlGrnOi77kpAH8u0HT5400OGh91F8uMLqOEj/BQFBwAIIfHHrOAzvlOXY04eVUk+4JSzbsvBHAKfbT3j0q0X4+3crLDBU6aIgIAhYGYH0pEZY/9ilUErrT5qOAGQppfbURVhODqRbi8vQ84mPrYyD9F0QEAQsgMB9Y3rj/nF9HHs6Syk1yl3Xf6M0w2gMoBhAgv3EG9+djY8Xb7bAkKWLgoAgYEUEmjduiOUPTXI1tl+ulHq/TsKyLQv/A+Aa+4klhyvQ56lPsf/IUStiIX0WBASBMEeAhnYa3B3kMIAUpZRbv6pqDctGWG0BrAXQyN7AR4s34aZ3nVwhwhwC6Z4gIAhYAQEa2Wlsd5F7lVJ/ra3/ToRlI627AThdcP6/v8H36wusgIH0URAQBCyAQEJcDJY+cBGymjVx7O0yAH2VUid9IawGABYD6G2/qODAYfR56hNUVJ6wABTSRUFAEAh3BJ49fxBuGdbVsZvHAfRQSnGFV6vU0LBsWlYXAEyKFWu/8utVVVkcDG44iggCgoAg4CcC5/Roh7evHenoxsCWagQ6u2veLWHZSOthAE6R0m/PX487PpznZzflMkFAEIh2BIZ0yMAXt4xDbAwXctWyxqZdeVzC1UVYzOJALctJb/vfb5fi6em/RjvuMn5BQBDwEYFuWSmYeecENI6vXrixBZIU7VZepTmulbBsWlYOAKYfTXPs2+0fzMU7Czb42F05XRAQBKIVgfYtkzDrzglIaVLt5mmHokYKmbowqpOwbKRFexZJK9HeEGMNr33re3y+XDI6ROsDKOMWBLxFgMUlZv/POchMdtoR5OUPKqWYeMFr8UhYNtIaAmCua6uXvDYT01dt9/pmcqIgIAhEFwIkqy9vG4fO6c1cB/68UuouX9HwirBspMXYnukAaNvSwh3DJ75egudm0n1CRBAQBASB3xDo1SoVU343Bi2aVvuh2w9+oJS6zB+svCYsG2ldAoAxPk7XfbYsH7e8Nwfl4qflzxzINYJAxCFwfq8cvHLFMMTHVus39jEy0d64upxD6wLDJ8KykdZNAF52bXRlQTEufnUm6GQqIggIAtGLwDPnD8Stw5zKCdrBmAngHKWU34n2fCYsG2mxFs9/ASQ5TguDpUlaC7cWRu9sycgFgShFgOmNP7xhFAa3z3CHwAsA/uivZmVv0C/CspEWQ6y/AdDBsXfHT57E87NWgP5ax07UGhIUpVMqwxYEIhOB0ztk4rUrhyMjmVmqnIRZF65USgUkuZ7fhGUjLbo6UNM607WXGwsP4Ia3Z2PZTqbYEhEEBIFIRCApIR5/uXAQLu3f0d3wigCMVUoFzNO8XoRlIy362D8D4F7XHp84aeBfs1dqz3gJnI7Ex1XGFM0IjOicjVevGIaWiTV2AQkLPddJVjXSHNcHs3oTlv3mhmFMBPCOY8ZS+7EtRaW44Z3ZWLKdhCsiCAgCVkagWeOGeG7iqZjonHjPcUhcdV1aWxK++ow9YIRl07ZozyJpDXLt1EnDwMs/rsFjUxejvJKZJEQEAUHAagiM7tIaL102FKlNa4TYcCj7ANyllHrXrHEFlLBspMU2bwbwv667iDy+6+Bh/OXbZXhn/gbQQC8iCAgC4Y9A79Yt8NiE/hjmXIrLseNUVP6glNpv5mgCTlgOS0Tubb4G4Gx3A8jfV4qnv1mKT5ZskhxbZs6wtC0I1AOBUzKa4ZHx/XFWtza1tcLKzAxgnl2P23h9qWmE5UBc5wF4kXXG3PVqze79ePLrJZi20qkitdcDkBMFAUEg8Ai0TU3Ew2f3xYW92+O3coFO92FamL8DYMHT8sD3wH2LphOWbZnIMO0/ArjHMeuDY5eWbCvCY9MWY86GXcEau9xHEBAEXBDISm6C+8b2xuUDOyK2gVOSPcczPwNwn1Iq6DmmgkJYDtpWKlNKALgFQEN3TwuJa/Kc1fh8Wb7YuOTfSRAIEgJdM1Pw+5HdcUGfXMQ7ZwN17AHLZ/2PUmpJkLpV4zZBJSwH4moN4Al6wAJwS+O7Dx7Baz+txevz1kpdxFA9HXLfiEYgpoHChB7tdDGIQTnpdY2V6VjuV0oxsiWkEhLCciCuPADPMiCyNhTocPrxkk14cfYqrNtzIKRgyc0FgUhAIDEhDteflocbh+ShVfOmdQ2JZd8fAvChUiosys+ElLAciGsAgL8BOK0u9OZu3I3Jc1Zh+urtsrMYCf85MoagIsA0xXeM6I5L+nVAI+e86q792AvgcQCvKqUqg9pJDzcLC8JyIK6hNvsW827VKtuKy/Dewo34cPEm8LOIICAIuEeABR8u6J2LSX3b1+VDZb94lW3n7/36pIAxcy7CirAciIs+XLfaHFCdCmC4grF4WxE+WrwJU37dguLDfqfZMRNjaVsQCCoC3N07M6+VJin6T3nQphh2wlCafymlaqRBD2rHvbhZWBKWA3HFA5gE4A4AXDbWKvSa/35dAT5eshlTV2yT8B8vJl9OiSwEBuaka5I6v3cOUmtWp3EdLJPWvUIfyUAHKJuJalgTluPADcMgYZG4SGAkslrlyLHj+GrFVny0eDNmbygAs0aICAKRiEBuiyRcNqAjLurbHu1Sqwtb1TXUhdSmAHxkRnCy2RhbhrActK7mAGjjugLAYE8AlRw+iplrd2D66h2YtXYHyirCyoboqftyXBBwQqCBUhiYk4axXdtgTNfWyMvgv4NHKbDVYnjP24KlHlsM0QmWIywXrautzZeL5NXZE4ZcNv6yea/eZfxm9XZsLir1dIkcFwRCjgDdEEbltcbYrq31e0oTtz7Xrv3kwz0FADMnzK5vauKQg2DrgKUJy4W8+tm0LmpfdXrB2a/bVHhQE9c3q3fgly17xbM+XJ5K6Qc6pCVrLWpc19YYlJteV5iMI1pcPrAUH0nqS6XU0UiDMmIIy2HJyLpCrKFIrYuB1zXKzbqbxNKKY5i1dqdeOs5YswMHjkTcXEfasxtR4+HO3qnt0zGuaxtNVPSZ8lJooP3ZRlK0S5ma3sXLPpl2WsQRlovWxdytI20pbsYDYEiQR2GywbW792NB/l7Mzy/E/Py94u/lETU5wRcEuMzjrt7Admlag+rXNg30mfJSWEvvOwDTAHyllNrt5XWWPy2iCct1dgzD6A6AxMUcXcyKWqPKY20zure03EZge/X78p3FqJSqQJb/BwjWAHJaJGljOWP2BuSkaWM5Deg+SL6NoEhS31txh8+HsdZ6qk+IBeKG4dKGYRjcXjnLRmBjAHi13WLv/9HjJ7QWRuJaUVCMFTuLsXJXCcqPSfrncJnjUPSDJNQxLRnds1PRo1UKemanonurVG/8oly7yweJSz0S1DSl1OpQjCfc7hm1hOWydGTGiN4AGBrE1+kAmArHJ+FSkob8lQUlmsRIZst37gNdK0QiD4GGsTHoktkcPVqlomerVE1S3bNSPHmW1wYEDeaLAPxoe81VSh2KPNTqNyIhrFrwMwyDtbbtBMb3TH+h3nXgsJMmtrygGDtK5Fn0F89QXEebU69WLTQ5dc9O0e+d05t5u3vnrsvM0rkAAHNMkaR+Dtf4vVDgXds9hbC8nA3DMFgpksQ1zPZOHzC/hd74+cWl2FZ8CFuLS7G1+JA27PMzv5PKQn5D69eFXMplN2+CdimJaNciEW35nlr1YrrgNPe193y5F6P0ucSza1ALwi0Tgi+DCdW5Qlh+Im8YBoOy6fvVC0Af25Iy18/malxWWFZuI7Ay/b6nrBz8rrD0iH7nJsCho+K17y3e2c2aaNJJT2qs31n8sw0JiqTUIsnbsBZvb0fXgqUAWPGYye+WKqXWeHuxnFc7AkJYAXw6DMNgMBdtYXYCI5n1COAtnJqiFlZYWo7dpUdQfKiiitBsZFZUVo59hytA/7JDFZU6JClSslkkN4pH04ZxYJn0pglx4HKNuchJQumJjTQh6VdS1d8s/Gmi7HQgJk1QSimpqGIS4EJYJgHr2KxhGNTESGR2bawnALf1vYPQHb0JUEYiO1qJ0opKHDp6TBNa1esYyo4eR0UlXydQcfyE/lxeeQJHK0+AS1nukOpj9u+PH0f5sROaHClNGsahUVwMaJRmapOEuBgkxMYgIS4WjeJsf8fF6M8N9XvVsSbxsZp8SEaJCfFI1O8OfyfE+eKrZAaUa20l2O2a0xKlVIkZN5I23SMghBWCJ8MwDOLOsmdcQtpfOQ6fmQ9M5ib4c0M70xbbi35PTp+j1fcp+NMgS8JwwtxjXwzDYB1wRzLjDmW2LUaScZJ8kdREvEfgIACm/uVrj+2dWQy22glKKVXkfXNyZigQkF/xUKAeoHvaDP8kr5Y2tws7kdlJjc6wtKsxMM3+HqC7h7QZugQwGwE1Ir5YnYRkYyckJ2JSSm0PaW/l5gFDQAgrYFBaoyHDMFgmheTlSmSO39G+xiSJDG7jK66Wz+6O8ZmilzZf3MZ097m2Y8xxTQJyJCOnz0opKZ1kjUfNlF4KYZkCqzQqCAgCZiAghGUGqtKmICAImIKAEJYpsEqjgoAgYAYCQlhmoCptCgKCgCkICGGZAqs0KggIAmYgIIRlBqrSpiAgCJiCgBCWKbBKo4KAIGAGAkJYZqAqbQoCgoApCAhhmQKrNCoICAJmICCEZQaq0qYgIAiYgoAQlimwSqOCgCBgBgJCWGagKm0KAoKAKQgIYZkCqzQqCAgCZiAghGUGqtKmICAImIKAEJYpsEqjgoAgYAYCQlhmoCptCgKCgCkICGGZAqs0KggIAmYgIIRlBqrSpiAgCJiCgBCWKbBKo4KAIGAGAkJYZqAqbQoCgoApCAhhmQKrNCoICAJmICCEZQaq0qYgIAiYgoAQlimwSqOCgCBgBgJCWGagKm0KAoKAKQgIYZkCqzQqCAgCZiAghGUGqtKmICAImIKAEJYpsEqjgoAgYAYCQlhmoCptCgKCgCkICGGZAqs0KggIAmYgIIRlBqrSpiAgCJiCgBCWKbBKo4KAIGAGAkJYZqAqbQoCgoApCAhhmQKrNCoICAJmICCEZQaq0qYgIAiYgoAQlimwSqOCgCBgBgJCWGagKm0KAoKAKQgIYZkCqzQqCAgCZiAghGUGqtKmICAImIKAEJYpsEqjgoAgYAYCQlhmoCptCgKCgCkICGGZAqs0KggIAmYgIIRlBqrSpiAgCJiCgBCWKbBKo4KAIGAGAkJYZqAqbQoCgoApCAhhmQKrNCoICAJmICCEZQaq0qYgIAiYgoAQlimwSqOCgCBgBgJCWGagKm0KAoKAKQgIYZkCqzQqCAgCZiAghGUGqtKmICAImIKAEJYpsEqjgoAgYAYC/w//Uh6VOFX90AAAAABJRU5ErkJggg==;" vertex="1" parent="XJBxNDXNKOUv2HLO4PTf-31">
          <mxGeometry x="147.12558139534883" y="29.88505747126437" width="59.76976744186046" height="59.76976744186046" as="geometry" />
        </mxCell>
        <mxCell id="XJBxNDXNKOUv2HLO4PTf-17" style="edgeStyle=orthogonalEdgeStyle;rounded=0;orthogonalLoop=1;jettySize=auto;html=1;entryX=1;entryY=0.5;entryDx=0;entryDy=0;entryPerimeter=0;endArrow=none;endFill=0;" edge="1" parent="XJBxNDXNKOUv2HLO4PTf-31" source="XJBxNDXNKOUv2HLO4PTf-11" target="XJBxNDXNKOUv2HLO4PTf-14">
          <mxGeometry relative="1" as="geometry" />
        </mxCell>
        <mxCell id="XJBxNDXNKOUv2HLO4PTf-24" value="" style="group" vertex="1" connectable="0" parent="XJBxNDXNKOUv2HLO4PTf-31">
          <mxGeometry x="18.390697674418604" y="25.287356321839084" width="86.2063953488372" height="96.55172413793105" as="geometry" />
        </mxCell>
        <mxCell id="XJBxNDXNKOUv2HLO4PTf-14" value="" style="verticalLabelPosition=bottom;html=1;verticalAlign=top;align=center;strokeColor=none;fillColor=#00BEF2;shape=mxgraph.azure.virtual_machine;" vertex="1" parent="XJBxNDXNKOUv2HLO4PTf-24">
          <mxGeometry width="86.2063953488372" height="68.96551724137932" as="geometry" />
        </mxCell>
        <mxCell id="XJBxNDXNKOUv2HLO4PTf-21" value="Kali Linux" style="text;html=1;align=center;verticalAlign=middle;resizable=0;points=[];autosize=1;strokeColor=none;fillColor=none;" vertex="1" parent="XJBxNDXNKOUv2HLO4PTf-24">
          <mxGeometry x="6.326399999999995" y="68.96551724137932" width="80" height="30" as="geometry" />
        </mxCell>
        <mxCell id="XJBxNDXNKOUv2HLO4PTf-32" value="Bridged" style="text;html=1;align=center;verticalAlign=middle;resizable=0;points=[];autosize=1;strokeColor=none;fillColor=none;" vertex="1" parent="XJBxNDXNKOUv2HLO4PTf-31">
          <mxGeometry x="146.8920930232558" y="77.24137931034484" width="60" height="30" as="geometry" />
        </mxCell>
        <mxCell id="XJBxNDXNKOUv2HLO4PTf-18" value="" style="edgeStyle=orthogonalEdgeStyle;rounded=0;orthogonalLoop=1;jettySize=auto;html=1;endArrow=none;endFill=0;" edge="1" parent="XJBxNDXNKOUv2HLO4PTf-41" source="XJBxNDXNKOUv2HLO4PTf-11" target="XJBxNDXNKOUv2HLO4PTf-10">
          <mxGeometry relative="1" as="geometry" />
        </mxCell>
        <mxCell id="XJBxNDXNKOUv2HLO4PTf-33" value="&lt;div&gt;NIC&lt;/div&gt;" style="text;html=1;align=center;verticalAlign=middle;resizable=0;points=[];autosize=1;strokeColor=none;fillColor=none;" vertex="1" parent="XJBxNDXNKOUv2HLO4PTf-41">
          <mxGeometry x="308.5039534883721" y="133.79310344827587" width="40" height="30" as="geometry" />
        </mxCell>
        <mxCell id="XJBxNDXNKOUv2HLO4PTf-34" value="&lt;font style=&quot;font-size: 13px;&quot;&gt;wlan0&lt;/font&gt;" style="text;html=1;align=center;verticalAlign=middle;resizable=0;points=[];autosize=1;strokeColor=none;fillColor=none;" vertex="1" parent="XJBxNDXNKOUv2HLO4PTf-41">
          <mxGeometry x="409.9990697674418" y="85.23632183908046" width="60" height="30" as="geometry" />
        </mxCell>
        <mxCell id="XJBxNDXNKOUv2HLO4PTf-35" value="eth0" style="text;html=1;align=center;verticalAlign=middle;resizable=0;points=[];autosize=1;strokeColor=none;fillColor=none;fontSize=13;" vertex="1" parent="XJBxNDXNKOUv2HLO4PTf-41">
          <mxGeometry x="414.9958139534884" y="308.9655172413793" width="50" height="30" as="geometry" />
        </mxCell>
        <mxCell id="XJBxNDXNKOUv2HLO4PTf-36" value="Internet" style="text;html=1;align=center;verticalAlign=middle;resizable=0;points=[];autosize=1;strokeColor=none;fillColor=none;" vertex="1" parent="XJBxNDXNKOUv2HLO4PTf-41">
          <mxGeometry x="722.2979069767441" y="140.40678160919538" width="60" height="30" as="geometry" />
        </mxCell>
        <mxCell id="XJBxNDXNKOUv2HLO4PTf-37" value="&lt;div&gt;Modem&lt;/div&gt;" style="text;html=1;align=center;verticalAlign=middle;resizable=0;points=[];autosize=1;strokeColor=none;fillColor=none;" vertex="1" parent="XJBxNDXNKOUv2HLO4PTf-41">
          <mxGeometry x="541.1495348837209" y="145.00448275862072" width="60" height="30" as="geometry" />
        </mxCell>
      </root>
    </mxGraphModel>
  </diagram>
</mxfile>
